%TF.GenerationSoftware,KiCad,Pcbnew,(5.1.9)-1*%
%TF.CreationDate,2021-03-29T21:17:45+02:00*%
%TF.ProjectId,ESP_Windowsensor,4553505f-5769-46e6-946f-7773656e736f,rev?*%
%TF.SameCoordinates,Original*%
%TF.FileFunction,Paste,Top*%
%TF.FilePolarity,Positive*%
%FSLAX46Y46*%
G04 Gerber Fmt 4.6, Leading zero omitted, Abs format (unit mm)*
G04 Created by KiCad (PCBNEW (5.1.9)-1) date 2021-03-29 21:17:45*
%MOMM*%
%LPD*%
G01*
G04 APERTURE LIST*
%ADD10R,2.000000X1.500000*%
%ADD11R,2.000000X3.800000*%
%ADD12R,1.000000X2.500000*%
%ADD13R,7.340000X6.350000*%
G04 APERTURE END LIST*
%TO.C,R7*%
G36*
G01*
X51924000Y-63049999D02*
X51924000Y-63950001D01*
G75*
G02*
X51674001Y-64200000I-249999J0D01*
G01*
X51148999Y-64200000D01*
G75*
G02*
X50899000Y-63950001I0J249999D01*
G01*
X50899000Y-63049999D01*
G75*
G02*
X51148999Y-62800000I249999J0D01*
G01*
X51674001Y-62800000D01*
G75*
G02*
X51924000Y-63049999I0J-249999D01*
G01*
G37*
G36*
G01*
X53749000Y-63049999D02*
X53749000Y-63950001D01*
G75*
G02*
X53499001Y-64200000I-249999J0D01*
G01*
X52973999Y-64200000D01*
G75*
G02*
X52724000Y-63950001I0J249999D01*
G01*
X52724000Y-63049999D01*
G75*
G02*
X52973999Y-62800000I249999J0D01*
G01*
X53499001Y-62800000D01*
G75*
G02*
X53749000Y-63049999I0J-249999D01*
G01*
G37*
%TD*%
%TO.C,R6*%
G36*
G01*
X51416000Y-86163999D02*
X51416000Y-87064001D01*
G75*
G02*
X51166001Y-87314000I-249999J0D01*
G01*
X50640999Y-87314000D01*
G75*
G02*
X50391000Y-87064001I0J249999D01*
G01*
X50391000Y-86163999D01*
G75*
G02*
X50640999Y-85914000I249999J0D01*
G01*
X51166001Y-85914000D01*
G75*
G02*
X51416000Y-86163999I0J-249999D01*
G01*
G37*
G36*
G01*
X53241000Y-86163999D02*
X53241000Y-87064001D01*
G75*
G02*
X52991001Y-87314000I-249999J0D01*
G01*
X52465999Y-87314000D01*
G75*
G02*
X52216000Y-87064001I0J249999D01*
G01*
X52216000Y-86163999D01*
G75*
G02*
X52465999Y-85914000I249999J0D01*
G01*
X52991001Y-85914000D01*
G75*
G02*
X53241000Y-86163999I0J-249999D01*
G01*
G37*
%TD*%
%TO.C,R5*%
G36*
G01*
X63900000Y-63950001D02*
X63900000Y-63049999D01*
G75*
G02*
X64149999Y-62800000I249999J0D01*
G01*
X64675001Y-62800000D01*
G75*
G02*
X64925000Y-63049999I0J-249999D01*
G01*
X64925000Y-63950001D01*
G75*
G02*
X64675001Y-64200000I-249999J0D01*
G01*
X64149999Y-64200000D01*
G75*
G02*
X63900000Y-63950001I0J249999D01*
G01*
G37*
G36*
G01*
X62075000Y-63950001D02*
X62075000Y-63049999D01*
G75*
G02*
X62324999Y-62800000I249999J0D01*
G01*
X62850001Y-62800000D01*
G75*
G02*
X63100000Y-63049999I0J-249999D01*
G01*
X63100000Y-63950001D01*
G75*
G02*
X62850001Y-64200000I-249999J0D01*
G01*
X62324999Y-64200000D01*
G75*
G02*
X62075000Y-63950001I0J249999D01*
G01*
G37*
%TD*%
%TO.C,R4*%
G36*
G01*
X57804000Y-87064001D02*
X57804000Y-86163999D01*
G75*
G02*
X58053999Y-85914000I249999J0D01*
G01*
X58579001Y-85914000D01*
G75*
G02*
X58829000Y-86163999I0J-249999D01*
G01*
X58829000Y-87064001D01*
G75*
G02*
X58579001Y-87314000I-249999J0D01*
G01*
X58053999Y-87314000D01*
G75*
G02*
X57804000Y-87064001I0J249999D01*
G01*
G37*
G36*
G01*
X55979000Y-87064001D02*
X55979000Y-86163999D01*
G75*
G02*
X56228999Y-85914000I249999J0D01*
G01*
X56754001Y-85914000D01*
G75*
G02*
X57004000Y-86163999I0J-249999D01*
G01*
X57004000Y-87064001D01*
G75*
G02*
X56754001Y-87314000I-249999J0D01*
G01*
X56228999Y-87314000D01*
G75*
G02*
X55979000Y-87064001I0J249999D01*
G01*
G37*
%TD*%
%TO.C,C4*%
G36*
G01*
X75380000Y-68293000D02*
X75380000Y-67343000D01*
G75*
G02*
X75630000Y-67093000I250000J0D01*
G01*
X76305000Y-67093000D01*
G75*
G02*
X76555000Y-67343000I0J-250000D01*
G01*
X76555000Y-68293000D01*
G75*
G02*
X76305000Y-68543000I-250000J0D01*
G01*
X75630000Y-68543000D01*
G75*
G02*
X75380000Y-68293000I0J250000D01*
G01*
G37*
G36*
G01*
X73305000Y-68293000D02*
X73305000Y-67343000D01*
G75*
G02*
X73555000Y-67093000I250000J0D01*
G01*
X74230000Y-67093000D01*
G75*
G02*
X74480000Y-67343000I0J-250000D01*
G01*
X74480000Y-68293000D01*
G75*
G02*
X74230000Y-68543000I-250000J0D01*
G01*
X73555000Y-68543000D01*
G75*
G02*
X73305000Y-68293000I0J250000D01*
G01*
G37*
%TD*%
%TO.C,C3*%
G36*
G01*
X69817000Y-68130000D02*
X68867000Y-68130000D01*
G75*
G02*
X68617000Y-67880000I0J250000D01*
G01*
X68617000Y-67205000D01*
G75*
G02*
X68867000Y-66955000I250000J0D01*
G01*
X69817000Y-66955000D01*
G75*
G02*
X70067000Y-67205000I0J-250000D01*
G01*
X70067000Y-67880000D01*
G75*
G02*
X69817000Y-68130000I-250000J0D01*
G01*
G37*
G36*
G01*
X69817000Y-70205000D02*
X68867000Y-70205000D01*
G75*
G02*
X68617000Y-69955000I0J250000D01*
G01*
X68617000Y-69280000D01*
G75*
G02*
X68867000Y-69030000I250000J0D01*
G01*
X69817000Y-69030000D01*
G75*
G02*
X70067000Y-69280000I0J-250000D01*
G01*
X70067000Y-69955000D01*
G75*
G02*
X69817000Y-70205000I-250000J0D01*
G01*
G37*
%TD*%
%TO.C,R3*%
G36*
G01*
X86982000Y-66236001D02*
X86982000Y-65335999D01*
G75*
G02*
X87231999Y-65086000I249999J0D01*
G01*
X87757001Y-65086000D01*
G75*
G02*
X88007000Y-65335999I0J-249999D01*
G01*
X88007000Y-66236001D01*
G75*
G02*
X87757001Y-66486000I-249999J0D01*
G01*
X87231999Y-66486000D01*
G75*
G02*
X86982000Y-66236001I0J249999D01*
G01*
G37*
G36*
G01*
X85157000Y-66236001D02*
X85157000Y-65335999D01*
G75*
G02*
X85406999Y-65086000I249999J0D01*
G01*
X85932001Y-65086000D01*
G75*
G02*
X86182000Y-65335999I0J-249999D01*
G01*
X86182000Y-66236001D01*
G75*
G02*
X85932001Y-66486000I-249999J0D01*
G01*
X85406999Y-66486000D01*
G75*
G02*
X85157000Y-66236001I0J249999D01*
G01*
G37*
%TD*%
%TO.C,R2*%
G36*
G01*
X86982000Y-63950001D02*
X86982000Y-63049999D01*
G75*
G02*
X87231999Y-62800000I249999J0D01*
G01*
X87757001Y-62800000D01*
G75*
G02*
X88007000Y-63049999I0J-249999D01*
G01*
X88007000Y-63950001D01*
G75*
G02*
X87757001Y-64200000I-249999J0D01*
G01*
X87231999Y-64200000D01*
G75*
G02*
X86982000Y-63950001I0J249999D01*
G01*
G37*
G36*
G01*
X85157000Y-63950001D02*
X85157000Y-63049999D01*
G75*
G02*
X85406999Y-62800000I249999J0D01*
G01*
X85932001Y-62800000D01*
G75*
G02*
X86182000Y-63049999I0J-249999D01*
G01*
X86182000Y-63950001D01*
G75*
G02*
X85932001Y-64200000I-249999J0D01*
G01*
X85406999Y-64200000D01*
G75*
G02*
X85157000Y-63950001I0J249999D01*
G01*
G37*
%TD*%
%TO.C,R1*%
G36*
G01*
X58312000Y-63950001D02*
X58312000Y-63049999D01*
G75*
G02*
X58561999Y-62800000I249999J0D01*
G01*
X59087001Y-62800000D01*
G75*
G02*
X59337000Y-63049999I0J-249999D01*
G01*
X59337000Y-63950001D01*
G75*
G02*
X59087001Y-64200000I-249999J0D01*
G01*
X58561999Y-64200000D01*
G75*
G02*
X58312000Y-63950001I0J249999D01*
G01*
G37*
G36*
G01*
X56487000Y-63950001D02*
X56487000Y-63049999D01*
G75*
G02*
X56736999Y-62800000I249999J0D01*
G01*
X57262001Y-62800000D01*
G75*
G02*
X57512000Y-63049999I0J-249999D01*
G01*
X57512000Y-63950001D01*
G75*
G02*
X57262001Y-64200000I-249999J0D01*
G01*
X56736999Y-64200000D01*
G75*
G02*
X56487000Y-63950001I0J249999D01*
G01*
G37*
%TD*%
D10*
%TO.C,Q1*%
X84430000Y-86628000D03*
X84430000Y-82028000D03*
X84430000Y-84328000D03*
D11*
X78130000Y-84328000D03*
%TD*%
D12*
%TO.C,IC2*%
X50980000Y-82784000D03*
X52980000Y-82784000D03*
X54980000Y-82784000D03*
X56980000Y-82784000D03*
X58980000Y-82784000D03*
X60980000Y-82784000D03*
X62980000Y-82784000D03*
X64980000Y-82784000D03*
X64980000Y-67584000D03*
X62980000Y-67584000D03*
X60980000Y-67584000D03*
X58980000Y-67584000D03*
X56980000Y-67584000D03*
X54980000Y-67584000D03*
X52980000Y-67584000D03*
X50980000Y-67584000D03*
%TD*%
%TO.C,IC1*%
G36*
G01*
X73175000Y-73430000D02*
X72875000Y-73430000D01*
G75*
G02*
X72725000Y-73280000I0J150000D01*
G01*
X72725000Y-71630000D01*
G75*
G02*
X72875000Y-71480000I150000J0D01*
G01*
X73175000Y-71480000D01*
G75*
G02*
X73325000Y-71630000I0J-150000D01*
G01*
X73325000Y-73280000D01*
G75*
G02*
X73175000Y-73430000I-150000J0D01*
G01*
G37*
G36*
G01*
X74445000Y-73430000D02*
X74145000Y-73430000D01*
G75*
G02*
X73995000Y-73280000I0J150000D01*
G01*
X73995000Y-71630000D01*
G75*
G02*
X74145000Y-71480000I150000J0D01*
G01*
X74445000Y-71480000D01*
G75*
G02*
X74595000Y-71630000I0J-150000D01*
G01*
X74595000Y-73280000D01*
G75*
G02*
X74445000Y-73430000I-150000J0D01*
G01*
G37*
G36*
G01*
X75715000Y-73430000D02*
X75415000Y-73430000D01*
G75*
G02*
X75265000Y-73280000I0J150000D01*
G01*
X75265000Y-71630000D01*
G75*
G02*
X75415000Y-71480000I150000J0D01*
G01*
X75715000Y-71480000D01*
G75*
G02*
X75865000Y-71630000I0J-150000D01*
G01*
X75865000Y-73280000D01*
G75*
G02*
X75715000Y-73430000I-150000J0D01*
G01*
G37*
G36*
G01*
X76985000Y-73430000D02*
X76685000Y-73430000D01*
G75*
G02*
X76535000Y-73280000I0J150000D01*
G01*
X76535000Y-71630000D01*
G75*
G02*
X76685000Y-71480000I150000J0D01*
G01*
X76985000Y-71480000D01*
G75*
G02*
X77135000Y-71630000I0J-150000D01*
G01*
X77135000Y-73280000D01*
G75*
G02*
X76985000Y-73430000I-150000J0D01*
G01*
G37*
G36*
G01*
X76985000Y-78380000D02*
X76685000Y-78380000D01*
G75*
G02*
X76535000Y-78230000I0J150000D01*
G01*
X76535000Y-76580000D01*
G75*
G02*
X76685000Y-76430000I150000J0D01*
G01*
X76985000Y-76430000D01*
G75*
G02*
X77135000Y-76580000I0J-150000D01*
G01*
X77135000Y-78230000D01*
G75*
G02*
X76985000Y-78380000I-150000J0D01*
G01*
G37*
G36*
G01*
X75715000Y-78380000D02*
X75415000Y-78380000D01*
G75*
G02*
X75265000Y-78230000I0J150000D01*
G01*
X75265000Y-76580000D01*
G75*
G02*
X75415000Y-76430000I150000J0D01*
G01*
X75715000Y-76430000D01*
G75*
G02*
X75865000Y-76580000I0J-150000D01*
G01*
X75865000Y-78230000D01*
G75*
G02*
X75715000Y-78380000I-150000J0D01*
G01*
G37*
G36*
G01*
X74445000Y-78380000D02*
X74145000Y-78380000D01*
G75*
G02*
X73995000Y-78230000I0J150000D01*
G01*
X73995000Y-76580000D01*
G75*
G02*
X74145000Y-76430000I150000J0D01*
G01*
X74445000Y-76430000D01*
G75*
G02*
X74595000Y-76580000I0J-150000D01*
G01*
X74595000Y-78230000D01*
G75*
G02*
X74445000Y-78380000I-150000J0D01*
G01*
G37*
G36*
G01*
X73175000Y-78380000D02*
X72875000Y-78380000D01*
G75*
G02*
X72725000Y-78230000I0J150000D01*
G01*
X72725000Y-76580000D01*
G75*
G02*
X72875000Y-76430000I150000J0D01*
G01*
X73175000Y-76430000D01*
G75*
G02*
X73325000Y-76580000I0J-150000D01*
G01*
X73325000Y-78230000D01*
G75*
G02*
X73175000Y-78380000I-150000J0D01*
G01*
G37*
%TD*%
D13*
%TO.C,BT1*%
X168870000Y-75692000D03*
X90210000Y-75692000D03*
%TD*%
M02*
