%TF.GenerationSoftware,KiCad,Pcbnew,(5.1.9)-1*%
%TF.CreationDate,2021-03-29T21:17:45+02:00*%
%TF.ProjectId,ESP_Windowsensor,4553505f-5769-46e6-946f-7773656e736f,rev?*%
%TF.SameCoordinates,Original*%
%TF.FileFunction,Copper,L1,Top*%
%TF.FilePolarity,Positive*%
%FSLAX46Y46*%
G04 Gerber Fmt 4.6, Leading zero omitted, Abs format (unit mm)*
G04 Created by KiCad (PCBNEW (5.1.9)-1) date 2021-03-29 21:17:45*
%MOMM*%
%LPD*%
G01*
G04 APERTURE LIST*
%TA.AperFunction,ComponentPad*%
%ADD10C,2.000000*%
%TD*%
%TA.AperFunction,ComponentPad*%
%ADD11O,1.700000X1.700000*%
%TD*%
%TA.AperFunction,ComponentPad*%
%ADD12R,1.700000X1.700000*%
%TD*%
%TA.AperFunction,ComponentPad*%
%ADD13C,1.200000*%
%TD*%
%TA.AperFunction,ComponentPad*%
%ADD14R,1.200000X1.200000*%
%TD*%
%TA.AperFunction,SMDPad,CuDef*%
%ADD15C,0.100000*%
%TD*%
%TA.AperFunction,ComponentPad*%
%ADD16O,2.000000X1.905000*%
%TD*%
%TA.AperFunction,ComponentPad*%
%ADD17R,2.000000X1.905000*%
%TD*%
%TA.AperFunction,ComponentPad*%
%ADD18R,3.500000X3.500000*%
%TD*%
%TA.AperFunction,ComponentPad*%
%ADD19C,3.500000*%
%TD*%
%TA.AperFunction,SMDPad,CuDef*%
%ADD20R,2.000000X1.500000*%
%TD*%
%TA.AperFunction,SMDPad,CuDef*%
%ADD21R,2.000000X3.800000*%
%TD*%
%TA.AperFunction,SMDPad,CuDef*%
%ADD22R,1.000000X2.500000*%
%TD*%
%TA.AperFunction,SMDPad,CuDef*%
%ADD23R,7.340000X6.350000*%
%TD*%
%TA.AperFunction,ViaPad*%
%ADD24C,0.800000*%
%TD*%
%TA.AperFunction,Conductor*%
%ADD25C,0.250000*%
%TD*%
%TA.AperFunction,Conductor*%
%ADD26C,0.254000*%
%TD*%
%TA.AperFunction,Conductor*%
%ADD27C,0.100000*%
%TD*%
G04 APERTURE END LIST*
D10*
%TO.P,SW3,1*%
%TO.N,ESP_BOOT*%
X174856000Y-87122000D03*
%TO.P,SW3,2*%
%TO.N,GND*%
X174856000Y-82622000D03*
%TO.P,SW3,1*%
%TO.N,ESP_BOOT*%
X181356000Y-87122000D03*
%TO.P,SW3,2*%
%TO.N,GND*%
X181356000Y-82622000D03*
%TD*%
%TO.P,SW2,1*%
%TO.N,ESP_RST*%
X181506000Y-64516000D03*
%TO.P,SW2,2*%
%TO.N,GND*%
X181506000Y-69016000D03*
%TO.P,SW2,1*%
%TO.N,ESP_RST*%
X175006000Y-64516000D03*
%TO.P,SW2,2*%
%TO.N,GND*%
X175006000Y-69016000D03*
%TD*%
%TO.P,R7,2*%
%TO.N,ESP_BOOT*%
%TA.AperFunction,SMDPad,CuDef*%
G36*
G01*
X51924000Y-63049999D02*
X51924000Y-63950001D01*
G75*
G02*
X51674001Y-64200000I-249999J0D01*
G01*
X51148999Y-64200000D01*
G75*
G02*
X50899000Y-63950001I0J249999D01*
G01*
X50899000Y-63049999D01*
G75*
G02*
X51148999Y-62800000I249999J0D01*
G01*
X51674001Y-62800000D01*
G75*
G02*
X51924000Y-63049999I0J-249999D01*
G01*
G37*
%TD.AperFunction*%
%TO.P,R7,1*%
%TO.N,+BATT*%
%TA.AperFunction,SMDPad,CuDef*%
G36*
G01*
X53749000Y-63049999D02*
X53749000Y-63950001D01*
G75*
G02*
X53499001Y-64200000I-249999J0D01*
G01*
X52973999Y-64200000D01*
G75*
G02*
X52724000Y-63950001I0J249999D01*
G01*
X52724000Y-63049999D01*
G75*
G02*
X52973999Y-62800000I249999J0D01*
G01*
X53499001Y-62800000D01*
G75*
G02*
X53749000Y-63049999I0J-249999D01*
G01*
G37*
%TD.AperFunction*%
%TD*%
%TO.P,R6,2*%
%TO.N,ESP_RST*%
%TA.AperFunction,SMDPad,CuDef*%
G36*
G01*
X51416000Y-86163999D02*
X51416000Y-87064001D01*
G75*
G02*
X51166001Y-87314000I-249999J0D01*
G01*
X50640999Y-87314000D01*
G75*
G02*
X50391000Y-87064001I0J249999D01*
G01*
X50391000Y-86163999D01*
G75*
G02*
X50640999Y-85914000I249999J0D01*
G01*
X51166001Y-85914000D01*
G75*
G02*
X51416000Y-86163999I0J-249999D01*
G01*
G37*
%TD.AperFunction*%
%TO.P,R6,1*%
%TO.N,+BATT*%
%TA.AperFunction,SMDPad,CuDef*%
G36*
G01*
X53241000Y-86163999D02*
X53241000Y-87064001D01*
G75*
G02*
X52991001Y-87314000I-249999J0D01*
G01*
X52465999Y-87314000D01*
G75*
G02*
X52216000Y-87064001I0J249999D01*
G01*
X52216000Y-86163999D01*
G75*
G02*
X52465999Y-85914000I249999J0D01*
G01*
X52991001Y-85914000D01*
G75*
G02*
X53241000Y-86163999I0J-249999D01*
G01*
G37*
%TD.AperFunction*%
%TD*%
%TO.P,R5,2*%
%TO.N,GND*%
%TA.AperFunction,SMDPad,CuDef*%
G36*
G01*
X63900000Y-63950001D02*
X63900000Y-63049999D01*
G75*
G02*
X64149999Y-62800000I249999J0D01*
G01*
X64675001Y-62800000D01*
G75*
G02*
X64925000Y-63049999I0J-249999D01*
G01*
X64925000Y-63950001D01*
G75*
G02*
X64675001Y-64200000I-249999J0D01*
G01*
X64149999Y-64200000D01*
G75*
G02*
X63900000Y-63950001I0J249999D01*
G01*
G37*
%TD.AperFunction*%
%TO.P,R5,1*%
%TO.N,Net-(IC2-Pad10)*%
%TA.AperFunction,SMDPad,CuDef*%
G36*
G01*
X62075000Y-63950001D02*
X62075000Y-63049999D01*
G75*
G02*
X62324999Y-62800000I249999J0D01*
G01*
X62850001Y-62800000D01*
G75*
G02*
X63100000Y-63049999I0J-249999D01*
G01*
X63100000Y-63950001D01*
G75*
G02*
X62850001Y-64200000I-249999J0D01*
G01*
X62324999Y-64200000D01*
G75*
G02*
X62075000Y-63950001I0J249999D01*
G01*
G37*
%TD.AperFunction*%
%TD*%
%TO.P,R4,2*%
%TO.N,Net-(IC2-Pad3)*%
%TA.AperFunction,SMDPad,CuDef*%
G36*
G01*
X57804000Y-87064001D02*
X57804000Y-86163999D01*
G75*
G02*
X58053999Y-85914000I249999J0D01*
G01*
X58579001Y-85914000D01*
G75*
G02*
X58829000Y-86163999I0J-249999D01*
G01*
X58829000Y-87064001D01*
G75*
G02*
X58579001Y-87314000I-249999J0D01*
G01*
X58053999Y-87314000D01*
G75*
G02*
X57804000Y-87064001I0J249999D01*
G01*
G37*
%TD.AperFunction*%
%TO.P,R4,1*%
%TO.N,+BATT*%
%TA.AperFunction,SMDPad,CuDef*%
G36*
G01*
X55979000Y-87064001D02*
X55979000Y-86163999D01*
G75*
G02*
X56228999Y-85914000I249999J0D01*
G01*
X56754001Y-85914000D01*
G75*
G02*
X57004000Y-86163999I0J-249999D01*
G01*
X57004000Y-87064001D01*
G75*
G02*
X56754001Y-87314000I-249999J0D01*
G01*
X56228999Y-87314000D01*
G75*
G02*
X55979000Y-87064001I0J249999D01*
G01*
G37*
%TD.AperFunction*%
%TD*%
D11*
%TO.P,J2,4*%
%TO.N,+BATT*%
X68580000Y-72644000D03*
%TO.P,J2,3*%
%TO.N,RX*%
X68580000Y-75184000D03*
%TO.P,J2,2*%
%TO.N,TX*%
X68580000Y-77724000D03*
D12*
%TO.P,J2,1*%
%TO.N,GND*%
X68580000Y-80264000D03*
%TD*%
%TO.P,C4,2*%
%TO.N,GND*%
%TA.AperFunction,SMDPad,CuDef*%
G36*
G01*
X75380000Y-68293000D02*
X75380000Y-67343000D01*
G75*
G02*
X75630000Y-67093000I250000J0D01*
G01*
X76305000Y-67093000D01*
G75*
G02*
X76555000Y-67343000I0J-250000D01*
G01*
X76555000Y-68293000D01*
G75*
G02*
X76305000Y-68543000I-250000J0D01*
G01*
X75630000Y-68543000D01*
G75*
G02*
X75380000Y-68293000I0J250000D01*
G01*
G37*
%TD.AperFunction*%
%TO.P,C4,1*%
%TO.N,+BATT*%
%TA.AperFunction,SMDPad,CuDef*%
G36*
G01*
X73305000Y-68293000D02*
X73305000Y-67343000D01*
G75*
G02*
X73555000Y-67093000I250000J0D01*
G01*
X74230000Y-67093000D01*
G75*
G02*
X74480000Y-67343000I0J-250000D01*
G01*
X74480000Y-68293000D01*
G75*
G02*
X74230000Y-68543000I-250000J0D01*
G01*
X73555000Y-68543000D01*
G75*
G02*
X73305000Y-68293000I0J250000D01*
G01*
G37*
%TD.AperFunction*%
%TD*%
%TO.P,C3,2*%
%TO.N,GND*%
%TA.AperFunction,SMDPad,CuDef*%
G36*
G01*
X69817000Y-68130000D02*
X68867000Y-68130000D01*
G75*
G02*
X68617000Y-67880000I0J250000D01*
G01*
X68617000Y-67205000D01*
G75*
G02*
X68867000Y-66955000I250000J0D01*
G01*
X69817000Y-66955000D01*
G75*
G02*
X70067000Y-67205000I0J-250000D01*
G01*
X70067000Y-67880000D01*
G75*
G02*
X69817000Y-68130000I-250000J0D01*
G01*
G37*
%TD.AperFunction*%
%TO.P,C3,1*%
%TO.N,+BATT*%
%TA.AperFunction,SMDPad,CuDef*%
G36*
G01*
X69817000Y-70205000D02*
X68867000Y-70205000D01*
G75*
G02*
X68617000Y-69955000I0J250000D01*
G01*
X68617000Y-69280000D01*
G75*
G02*
X68867000Y-69030000I250000J0D01*
G01*
X69817000Y-69030000D01*
G75*
G02*
X70067000Y-69280000I0J-250000D01*
G01*
X70067000Y-69955000D01*
G75*
G02*
X69817000Y-70205000I-250000J0D01*
G01*
G37*
%TD.AperFunction*%
%TD*%
D13*
%TO.P,C2,2*%
%TO.N,GND*%
X81534000Y-75914000D03*
D14*
%TO.P,C2,1*%
%TO.N,+BATT*%
X81534000Y-73914000D03*
%TD*%
D13*
%TO.P,C1,2*%
%TO.N,GND*%
X72136000Y-87598000D03*
D14*
%TO.P,C1,1*%
%TO.N,+BATT*%
X72136000Y-85598000D03*
%TD*%
%TO.P,R3,2*%
%TO.N,GND*%
%TA.AperFunction,SMDPad,CuDef*%
G36*
G01*
X86982000Y-66236001D02*
X86982000Y-65335999D01*
G75*
G02*
X87231999Y-65086000I249999J0D01*
G01*
X87757001Y-65086000D01*
G75*
G02*
X88007000Y-65335999I0J-249999D01*
G01*
X88007000Y-66236001D01*
G75*
G02*
X87757001Y-66486000I-249999J0D01*
G01*
X87231999Y-66486000D01*
G75*
G02*
X86982000Y-66236001I0J249999D01*
G01*
G37*
%TD.AperFunction*%
%TO.P,R3,1*%
%TO.N,ESP_ON*%
%TA.AperFunction,SMDPad,CuDef*%
G36*
G01*
X85157000Y-66236001D02*
X85157000Y-65335999D01*
G75*
G02*
X85406999Y-65086000I249999J0D01*
G01*
X85932001Y-65086000D01*
G75*
G02*
X86182000Y-65335999I0J-249999D01*
G01*
X86182000Y-66236001D01*
G75*
G02*
X85932001Y-66486000I-249999J0D01*
G01*
X85406999Y-66486000D01*
G75*
G02*
X85157000Y-66236001I0J249999D01*
G01*
G37*
%TD.AperFunction*%
%TD*%
%TO.P,R2,2*%
%TO.N,ESP_ON*%
%TA.AperFunction,SMDPad,CuDef*%
G36*
G01*
X86982000Y-63950001D02*
X86982000Y-63049999D01*
G75*
G02*
X87231999Y-62800000I249999J0D01*
G01*
X87757001Y-62800000D01*
G75*
G02*
X88007000Y-63049999I0J-249999D01*
G01*
X88007000Y-63950001D01*
G75*
G02*
X87757001Y-64200000I-249999J0D01*
G01*
X87231999Y-64200000D01*
G75*
G02*
X86982000Y-63950001I0J249999D01*
G01*
G37*
%TD.AperFunction*%
%TO.P,R2,1*%
%TO.N,ISP_SCK*%
%TA.AperFunction,SMDPad,CuDef*%
G36*
G01*
X85157000Y-63950001D02*
X85157000Y-63049999D01*
G75*
G02*
X85406999Y-62800000I249999J0D01*
G01*
X85932001Y-62800000D01*
G75*
G02*
X86182000Y-63049999I0J-249999D01*
G01*
X86182000Y-63950001D01*
G75*
G02*
X85932001Y-64200000I-249999J0D01*
G01*
X85406999Y-64200000D01*
G75*
G02*
X85157000Y-63950001I0J249999D01*
G01*
G37*
%TD.AperFunction*%
%TD*%
D11*
%TO.P,J1,6*%
%TO.N,GND*%
X82804000Y-69342000D03*
%TO.P,J1,5*%
%TO.N,ISP_RST*%
X80264000Y-69342000D03*
%TO.P,J1,4*%
%TO.N,ISP_MOSI*%
X82804000Y-66802000D03*
%TO.P,J1,3*%
%TO.N,ISP_SCK*%
X80264000Y-66802000D03*
%TO.P,J1,2*%
%TO.N,+BATT*%
X82804000Y-64262000D03*
D12*
%TO.P,J1,1*%
%TO.N,ISP_MISO*%
X80264000Y-64262000D03*
%TD*%
%TA.AperFunction,SMDPad,CuDef*%
D15*
%TO.P,WIFI_RESET,2*%
%TO.N,Net-(IC2-Pad7)*%
G36*
X62962000Y-86855398D02*
G01*
X62937466Y-86855398D01*
X62888635Y-86850588D01*
X62840510Y-86841016D01*
X62793555Y-86826772D01*
X62748222Y-86807995D01*
X62704949Y-86784864D01*
X62664150Y-86757604D01*
X62626221Y-86726476D01*
X62591524Y-86691779D01*
X62560396Y-86653850D01*
X62533136Y-86613051D01*
X62510005Y-86569778D01*
X62491228Y-86524445D01*
X62476984Y-86477490D01*
X62467412Y-86429365D01*
X62462602Y-86380534D01*
X62462602Y-86356000D01*
X62462000Y-86356000D01*
X62462000Y-85856000D01*
X62462602Y-85856000D01*
X62462602Y-85831466D01*
X62467412Y-85782635D01*
X62476984Y-85734510D01*
X62491228Y-85687555D01*
X62510005Y-85642222D01*
X62533136Y-85598949D01*
X62560396Y-85558150D01*
X62591524Y-85520221D01*
X62626221Y-85485524D01*
X62664150Y-85454396D01*
X62704949Y-85427136D01*
X62748222Y-85404005D01*
X62793555Y-85385228D01*
X62840510Y-85370984D01*
X62888635Y-85361412D01*
X62937466Y-85356602D01*
X62962000Y-85356602D01*
X62962000Y-85356000D01*
X63462000Y-85356000D01*
X63462000Y-86856000D01*
X62962000Y-86856000D01*
X62962000Y-86855398D01*
G37*
%TD.AperFunction*%
%TA.AperFunction,SMDPad,CuDef*%
%TO.P,WIFI_RESET,1*%
%TO.N,GND*%
G36*
X63762000Y-85356000D02*
G01*
X64262000Y-85356000D01*
X64262000Y-85356602D01*
X64286534Y-85356602D01*
X64335365Y-85361412D01*
X64383490Y-85370984D01*
X64430445Y-85385228D01*
X64475778Y-85404005D01*
X64519051Y-85427136D01*
X64559850Y-85454396D01*
X64597779Y-85485524D01*
X64632476Y-85520221D01*
X64663604Y-85558150D01*
X64690864Y-85598949D01*
X64713995Y-85642222D01*
X64732772Y-85687555D01*
X64747016Y-85734510D01*
X64756588Y-85782635D01*
X64761398Y-85831466D01*
X64761398Y-85856000D01*
X64762000Y-85856000D01*
X64762000Y-86356000D01*
X64761398Y-86356000D01*
X64761398Y-86380534D01*
X64756588Y-86429365D01*
X64747016Y-86477490D01*
X64732772Y-86524445D01*
X64713995Y-86569778D01*
X64690864Y-86613051D01*
X64663604Y-86653850D01*
X64632476Y-86691779D01*
X64597779Y-86726476D01*
X64559850Y-86757604D01*
X64519051Y-86784864D01*
X64475778Y-86807995D01*
X64430445Y-86826772D01*
X64383490Y-86841016D01*
X64335365Y-86850588D01*
X64286534Y-86855398D01*
X64262000Y-86855398D01*
X64262000Y-86856000D01*
X63762000Y-86856000D01*
X63762000Y-85356000D01*
G37*
%TD.AperFunction*%
%TD*%
D16*
%TO.P,Q2,3*%
%TO.N,GND*%
X88138000Y-81788000D03*
%TO.P,Q2,2*%
%TO.N,Net-(IC2-Pad9)*%
X88138000Y-84328000D03*
D17*
%TO.P,Q2,1*%
%TO.N,ESP_ON*%
X88138000Y-86868000D03*
%TD*%
D18*
%TO.P,BT2,1*%
%TO.N,+BATT*%
X93726000Y-75438000D03*
D19*
%TO.P,BT2,2*%
%TO.N,GND*%
X165726000Y-75438000D03*
%TD*%
D11*
%TO.P,SW1,3*%
%TO.N,+BATT*%
X69596000Y-64262000D03*
%TO.P,SW1,2*%
%TO.N,SENSOR*%
X72136000Y-64262000D03*
D12*
%TO.P,SW1,1*%
%TO.N,GND*%
X74676000Y-64262000D03*
%TD*%
%TO.P,R1,2*%
%TO.N,Net-(IC2-Pad11)*%
%TA.AperFunction,SMDPad,CuDef*%
G36*
G01*
X58312000Y-63950001D02*
X58312000Y-63049999D01*
G75*
G02*
X58561999Y-62800000I249999J0D01*
G01*
X59087001Y-62800000D01*
G75*
G02*
X59337000Y-63049999I0J-249999D01*
G01*
X59337000Y-63950001D01*
G75*
G02*
X59087001Y-64200000I-249999J0D01*
G01*
X58561999Y-64200000D01*
G75*
G02*
X58312000Y-63950001I0J249999D01*
G01*
G37*
%TD.AperFunction*%
%TO.P,R1,1*%
%TO.N,+BATT*%
%TA.AperFunction,SMDPad,CuDef*%
G36*
G01*
X56487000Y-63950001D02*
X56487000Y-63049999D01*
G75*
G02*
X56736999Y-62800000I249999J0D01*
G01*
X57262001Y-62800000D01*
G75*
G02*
X57512000Y-63049999I0J-249999D01*
G01*
X57512000Y-63950001D01*
G75*
G02*
X57262001Y-64200000I-249999J0D01*
G01*
X56736999Y-64200000D01*
G75*
G02*
X56487000Y-63950001I0J249999D01*
G01*
G37*
%TD.AperFunction*%
%TD*%
D20*
%TO.P,Q1,1*%
%TO.N,ESP_ON*%
X84430000Y-86628000D03*
%TO.P,Q1,3*%
%TO.N,GND*%
X84430000Y-82028000D03*
%TO.P,Q1,2*%
%TO.N,Net-(IC2-Pad9)*%
X84430000Y-84328000D03*
D21*
X78130000Y-84328000D03*
%TD*%
D22*
%TO.P,IC2,1*%
%TO.N,ESP_RST*%
X50980000Y-82784000D03*
%TO.P,IC2,2*%
%TO.N,Net-(IC2-Pad2)*%
X52980000Y-82784000D03*
%TO.P,IC2,3*%
%TO.N,Net-(IC2-Pad3)*%
X54980000Y-82784000D03*
%TO.P,IC2,4*%
%TO.N,Net-(IC2-Pad4)*%
X56980000Y-82784000D03*
%TO.P,IC2,5*%
%TO.N,Net-(IC2-Pad5)*%
X58980000Y-82784000D03*
%TO.P,IC2,6*%
%TO.N,Net-(IC2-Pad6)*%
X60980000Y-82784000D03*
%TO.P,IC2,7*%
%TO.N,Net-(IC2-Pad7)*%
X62980000Y-82784000D03*
%TO.P,IC2,8*%
%TO.N,Net-(IC2-Pad8)*%
X64980000Y-82784000D03*
%TO.P,IC2,9*%
%TO.N,Net-(IC2-Pad9)*%
X64980000Y-67584000D03*
%TO.P,IC2,10*%
%TO.N,Net-(IC2-Pad10)*%
X62980000Y-67584000D03*
%TO.P,IC2,11*%
%TO.N,Net-(IC2-Pad11)*%
X60980000Y-67584000D03*
%TO.P,IC2,12*%
%TO.N,ESP_BOOT*%
X58980000Y-67584000D03*
%TO.P,IC2,13*%
%TO.N,ISP_MISO*%
X56980000Y-67584000D03*
%TO.P,IC2,14*%
%TO.N,ESP_READY*%
X54980000Y-67584000D03*
%TO.P,IC2,15*%
%TO.N,RX*%
X52980000Y-67584000D03*
%TO.P,IC2,16*%
%TO.N,TX*%
X50980000Y-67584000D03*
%TD*%
%TO.P,IC1,8*%
%TO.N,+BATT*%
%TA.AperFunction,SMDPad,CuDef*%
G36*
G01*
X73175000Y-73430000D02*
X72875000Y-73430000D01*
G75*
G02*
X72725000Y-73280000I0J150000D01*
G01*
X72725000Y-71630000D01*
G75*
G02*
X72875000Y-71480000I150000J0D01*
G01*
X73175000Y-71480000D01*
G75*
G02*
X73325000Y-71630000I0J-150000D01*
G01*
X73325000Y-73280000D01*
G75*
G02*
X73175000Y-73430000I-150000J0D01*
G01*
G37*
%TD.AperFunction*%
%TO.P,IC1,7*%
%TO.N,ISP_SCK*%
%TA.AperFunction,SMDPad,CuDef*%
G36*
G01*
X74445000Y-73430000D02*
X74145000Y-73430000D01*
G75*
G02*
X73995000Y-73280000I0J150000D01*
G01*
X73995000Y-71630000D01*
G75*
G02*
X74145000Y-71480000I150000J0D01*
G01*
X74445000Y-71480000D01*
G75*
G02*
X74595000Y-71630000I0J-150000D01*
G01*
X74595000Y-73280000D01*
G75*
G02*
X74445000Y-73430000I-150000J0D01*
G01*
G37*
%TD.AperFunction*%
%TO.P,IC1,6*%
%TO.N,ISP_MISO*%
%TA.AperFunction,SMDPad,CuDef*%
G36*
G01*
X75715000Y-73430000D02*
X75415000Y-73430000D01*
G75*
G02*
X75265000Y-73280000I0J150000D01*
G01*
X75265000Y-71630000D01*
G75*
G02*
X75415000Y-71480000I150000J0D01*
G01*
X75715000Y-71480000D01*
G75*
G02*
X75865000Y-71630000I0J-150000D01*
G01*
X75865000Y-73280000D01*
G75*
G02*
X75715000Y-73430000I-150000J0D01*
G01*
G37*
%TD.AperFunction*%
%TO.P,IC1,5*%
%TO.N,ISP_MOSI*%
%TA.AperFunction,SMDPad,CuDef*%
G36*
G01*
X76985000Y-73430000D02*
X76685000Y-73430000D01*
G75*
G02*
X76535000Y-73280000I0J150000D01*
G01*
X76535000Y-71630000D01*
G75*
G02*
X76685000Y-71480000I150000J0D01*
G01*
X76985000Y-71480000D01*
G75*
G02*
X77135000Y-71630000I0J-150000D01*
G01*
X77135000Y-73280000D01*
G75*
G02*
X76985000Y-73430000I-150000J0D01*
G01*
G37*
%TD.AperFunction*%
%TO.P,IC1,4*%
%TO.N,GND*%
%TA.AperFunction,SMDPad,CuDef*%
G36*
G01*
X76985000Y-78380000D02*
X76685000Y-78380000D01*
G75*
G02*
X76535000Y-78230000I0J150000D01*
G01*
X76535000Y-76580000D01*
G75*
G02*
X76685000Y-76430000I150000J0D01*
G01*
X76985000Y-76430000D01*
G75*
G02*
X77135000Y-76580000I0J-150000D01*
G01*
X77135000Y-78230000D01*
G75*
G02*
X76985000Y-78380000I-150000J0D01*
G01*
G37*
%TD.AperFunction*%
%TO.P,IC1,3*%
%TO.N,ESP_READY*%
%TA.AperFunction,SMDPad,CuDef*%
G36*
G01*
X75715000Y-78380000D02*
X75415000Y-78380000D01*
G75*
G02*
X75265000Y-78230000I0J150000D01*
G01*
X75265000Y-76580000D01*
G75*
G02*
X75415000Y-76430000I150000J0D01*
G01*
X75715000Y-76430000D01*
G75*
G02*
X75865000Y-76580000I0J-150000D01*
G01*
X75865000Y-78230000D01*
G75*
G02*
X75715000Y-78380000I-150000J0D01*
G01*
G37*
%TD.AperFunction*%
%TO.P,IC1,2*%
%TO.N,SENSOR*%
%TA.AperFunction,SMDPad,CuDef*%
G36*
G01*
X74445000Y-78380000D02*
X74145000Y-78380000D01*
G75*
G02*
X73995000Y-78230000I0J150000D01*
G01*
X73995000Y-76580000D01*
G75*
G02*
X74145000Y-76430000I150000J0D01*
G01*
X74445000Y-76430000D01*
G75*
G02*
X74595000Y-76580000I0J-150000D01*
G01*
X74595000Y-78230000D01*
G75*
G02*
X74445000Y-78380000I-150000J0D01*
G01*
G37*
%TD.AperFunction*%
%TO.P,IC1,1*%
%TO.N,ISP_RST*%
%TA.AperFunction,SMDPad,CuDef*%
G36*
G01*
X73175000Y-78380000D02*
X72875000Y-78380000D01*
G75*
G02*
X72725000Y-78230000I0J150000D01*
G01*
X72725000Y-76580000D01*
G75*
G02*
X72875000Y-76430000I150000J0D01*
G01*
X73175000Y-76430000D01*
G75*
G02*
X73325000Y-76580000I0J-150000D01*
G01*
X73325000Y-78230000D01*
G75*
G02*
X73175000Y-78380000I-150000J0D01*
G01*
G37*
%TD.AperFunction*%
%TD*%
D23*
%TO.P,BT1,2*%
%TO.N,GND*%
X168870000Y-75692000D03*
%TO.P,BT1,1*%
%TO.N,+BATT*%
X90210000Y-75692000D03*
%TD*%
D24*
%TO.N,SENSOR*%
X73693000Y-75911200D03*
%TD*%
D25*
%TO.N,GND*%
X175006000Y-69016000D02*
X181506000Y-69016000D01*
X82804000Y-69342000D02*
X83979300Y-69342000D01*
X83979300Y-69342000D02*
X87494500Y-65826800D01*
X87494500Y-65826800D02*
X87494500Y-65786000D01*
X168870000Y-75692000D02*
X168870000Y-73941800D01*
X169475100Y-74546900D02*
X175006000Y-69016000D01*
X168870000Y-73941800D02*
X169475100Y-74546900D01*
X84430000Y-82028000D02*
X84430000Y-80952700D01*
X80788500Y-77311200D02*
X84430000Y-80952700D01*
X168870000Y-75692000D02*
X165980000Y-75692000D01*
X165980000Y-75692000D02*
X165726000Y-75438000D01*
X169475100Y-74546900D02*
X174856000Y-79927800D01*
X174856000Y-79927800D02*
X174856000Y-82622000D01*
X174856000Y-82622000D02*
X181356000Y-82622000D01*
X74676000Y-65437300D02*
X75967500Y-66728800D01*
X75967500Y-66728800D02*
X75967500Y-67818000D01*
X74676000Y-64262000D02*
X74676000Y-65437300D01*
X64412500Y-63500000D02*
X65299500Y-63500000D01*
X65299500Y-63500000D02*
X69342000Y-67542500D01*
X69342000Y-67542500D02*
X71447200Y-65437300D01*
X71447200Y-65437300D02*
X74676000Y-65437300D01*
X88138000Y-81788000D02*
X85995300Y-81788000D01*
X85995300Y-81788000D02*
X85755300Y-82028000D01*
X84430000Y-82028000D02*
X85755300Y-82028000D01*
X80788500Y-77311200D02*
X80788500Y-76659500D01*
X80788500Y-76659500D02*
X81534000Y-75914000D01*
X81534000Y-75914000D02*
X82804000Y-74644000D01*
X82804000Y-74644000D02*
X82804000Y-69342000D01*
X76835000Y-77405000D02*
X80694700Y-77405000D01*
X80694700Y-77405000D02*
X80788500Y-77311200D01*
X68580000Y-81439300D02*
X69681800Y-81439300D01*
X69681800Y-81439300D02*
X73097000Y-84854500D01*
X73097000Y-84854500D02*
X73097000Y-86637000D01*
X73097000Y-86637000D02*
X72136000Y-87598000D01*
X68580000Y-80264000D02*
X68580000Y-81439300D01*
X68580000Y-81439300D02*
X68580000Y-81788000D01*
X68580000Y-81788000D02*
X64262000Y-86106000D01*
%TO.N,+BATT*%
X72093000Y-69617500D02*
X72093000Y-71523000D01*
X72093000Y-71523000D02*
X73025000Y-72455000D01*
X73892500Y-67818000D02*
X72093000Y-69617500D01*
X72093000Y-69617500D02*
X69342000Y-69617500D01*
X90210000Y-75692000D02*
X91396700Y-75692000D01*
X91396700Y-75692000D02*
X91650700Y-75438000D01*
X93726000Y-75438000D02*
X91650700Y-75438000D01*
X69596000Y-64262000D02*
X68420700Y-64262000D01*
X72136000Y-85598000D02*
X71210700Y-85598000D01*
X68580000Y-71468700D02*
X69342000Y-70706700D01*
X69342000Y-70706700D02*
X69342000Y-69617500D01*
X68580000Y-72644000D02*
X68580000Y-71468700D01*
X71210700Y-85598000D02*
X69168400Y-87640300D01*
X69168400Y-87640300D02*
X57517800Y-87640300D01*
X57517800Y-87640300D02*
X56491500Y-86614000D01*
X52728500Y-86614000D02*
X56491500Y-86614000D01*
X68420700Y-64262000D02*
X66618700Y-62460000D01*
X66618700Y-62460000D02*
X58039500Y-62460000D01*
X58039500Y-62460000D02*
X56999500Y-63500000D01*
X56999500Y-63500000D02*
X53236500Y-63500000D01*
%TO.N,ESP_ON*%
X84430000Y-86628000D02*
X86572700Y-86628000D01*
X86572700Y-86628000D02*
X86812700Y-86868000D01*
X88138000Y-86868000D02*
X87887100Y-86868000D01*
X87887100Y-86868000D02*
X86812700Y-86868000D01*
X87887100Y-86868000D02*
X89470900Y-85284200D01*
X89470900Y-85284200D02*
X89470900Y-81223100D01*
X89470900Y-81223100D02*
X87533600Y-79285800D01*
X87533600Y-79285800D02*
X86461900Y-79285800D01*
X86461900Y-79285800D02*
X86214600Y-79038500D01*
X86214600Y-79038500D02*
X86214600Y-68867900D01*
X86214600Y-68867900D02*
X88356600Y-66725900D01*
X88356600Y-66725900D02*
X88356600Y-65061000D01*
X88356600Y-65061000D02*
X87375600Y-64079900D01*
X87494500Y-63500000D02*
X87494500Y-63961000D01*
X87494500Y-63961000D02*
X87375600Y-64079900D01*
X87375600Y-64079900D02*
X85669500Y-65786000D01*
%TO.N,SENSOR*%
X74295000Y-77405000D02*
X74295000Y-76513200D01*
X74295000Y-76513200D02*
X73693000Y-75911200D01*
%TO.N,Net-(IC2-Pad7)*%
X62980000Y-82784000D02*
X62980000Y-86088000D01*
X62980000Y-86088000D02*
X62962000Y-86106000D01*
%TO.N,Net-(IC2-Pad9)*%
X78130000Y-84328000D02*
X78130000Y-83603000D01*
X88138000Y-84328000D02*
X86812700Y-84328000D01*
X78130000Y-83603000D02*
X82379700Y-83603000D01*
X82379700Y-83603000D02*
X83104700Y-84328000D01*
X84430000Y-84328000D02*
X86812700Y-84328000D01*
X84430000Y-84328000D02*
X83104700Y-84328000D01*
X64980000Y-69159300D02*
X64529500Y-69609800D01*
X64529500Y-69609800D02*
X56789300Y-69609800D01*
X56789300Y-69609800D02*
X56154600Y-68975100D01*
X56154600Y-68975100D02*
X56154600Y-66472100D01*
X56154600Y-66472100D02*
X55691100Y-66008600D01*
X55691100Y-66008600D02*
X52337400Y-66008600D01*
X52337400Y-66008600D02*
X52154600Y-66191400D01*
X52154600Y-66191400D02*
X52154600Y-69032600D01*
X52154600Y-69032600D02*
X59576000Y-76454000D01*
X59576000Y-76454000D02*
X68981100Y-76454000D01*
X68981100Y-76454000D02*
X76130100Y-83603000D01*
X76130100Y-83603000D02*
X78130000Y-83603000D01*
X64980000Y-67584000D02*
X64980000Y-69159300D01*
%TO.N,Net-(IC2-Pad10)*%
X62980000Y-67584000D02*
X62980000Y-63892500D01*
X62980000Y-63892500D02*
X62587500Y-63500000D01*
%TO.N,Net-(IC2-Pad11)*%
X60980000Y-67584000D02*
X60980000Y-65655500D01*
X60980000Y-65655500D02*
X58824500Y-63500000D01*
%TO.N,ISP_SCK*%
X80264000Y-66802000D02*
X81439400Y-65626600D01*
X81439400Y-65626600D02*
X83542900Y-65626600D01*
X83542900Y-65626600D02*
X85669500Y-63500000D01*
X80264000Y-66802000D02*
X79088700Y-66802000D01*
X74295000Y-72455000D02*
X74295000Y-71835800D01*
X74295000Y-71835800D02*
X79088700Y-67042100D01*
X79088700Y-67042100D02*
X79088700Y-66802000D01*
%TO.N,ISP_MISO*%
X80264000Y-64262000D02*
X80264000Y-65437300D01*
X56980000Y-67584000D02*
X56980000Y-69159300D01*
X75565000Y-72455000D02*
X75565000Y-72861300D01*
X75565000Y-72861300D02*
X74630200Y-73796100D01*
X74630200Y-73796100D02*
X73924500Y-73796100D01*
X73924500Y-73796100D02*
X73660000Y-73531600D01*
X73660000Y-73531600D02*
X73660000Y-70634600D01*
X73660000Y-70634600D02*
X75405100Y-68889500D01*
X80264000Y-65437300D02*
X79756700Y-65437300D01*
X79756700Y-65437300D02*
X78167600Y-67026400D01*
X78167600Y-67026400D02*
X78167600Y-67287900D01*
X78167600Y-67287900D02*
X76566000Y-68889500D01*
X76566000Y-68889500D02*
X75405100Y-68889500D01*
X75405100Y-68889500D02*
X74849100Y-68333500D01*
X74849100Y-68333500D02*
X74849100Y-67145600D01*
X74849100Y-67145600D02*
X74460200Y-66756700D01*
X74460200Y-66756700D02*
X73260800Y-66756700D01*
X73260800Y-66756700D02*
X71518400Y-68499100D01*
X71518400Y-68499100D02*
X68649300Y-68499100D01*
X68649300Y-68499100D02*
X66158800Y-66008600D01*
X66158800Y-66008600D02*
X64279900Y-66008600D01*
X64279900Y-66008600D02*
X64154600Y-66133900D01*
X64154600Y-66133900D02*
X64154600Y-68664200D01*
X64154600Y-68664200D02*
X63659500Y-69159300D01*
X63659500Y-69159300D02*
X56980000Y-69159300D01*
%TO.N,ISP_MOSI*%
X76835000Y-72455000D02*
X76835000Y-71102800D01*
X76835000Y-71102800D02*
X79960500Y-67977300D01*
X79960500Y-67977300D02*
X80820800Y-67977300D01*
X80820800Y-67977300D02*
X81628700Y-67169400D01*
X81628700Y-67169400D02*
X81628700Y-66802000D01*
X82804000Y-66802000D02*
X81628700Y-66802000D01*
%TO.N,ESP_READY*%
X75565000Y-77405000D02*
X75565000Y-76754400D01*
X75565000Y-76754400D02*
X72724600Y-73914000D01*
X72724600Y-73914000D02*
X59734700Y-73914000D01*
X59734700Y-73914000D02*
X54980000Y-69159300D01*
X54980000Y-67584000D02*
X54980000Y-69159300D01*
%TO.N,ISP_RST*%
X73025000Y-77405000D02*
X73025000Y-77868600D01*
X73025000Y-77868600D02*
X73866300Y-78709900D01*
X73866300Y-78709900D02*
X75944500Y-78709900D01*
X75944500Y-78709900D02*
X76200000Y-78454400D01*
X76200000Y-78454400D02*
X76200000Y-76191000D01*
X76200000Y-76191000D02*
X80264000Y-72127000D01*
X80264000Y-72127000D02*
X80264000Y-69342000D01*
%TO.N,ESP_RST*%
X175006000Y-64516000D02*
X181506000Y-64516000D01*
X50980000Y-83571600D02*
X50980000Y-84359300D01*
X50980000Y-83571600D02*
X50980000Y-82784000D01*
X50980000Y-84359300D02*
X50903500Y-84435800D01*
X50903500Y-84435800D02*
X50903500Y-86614000D01*
X50903500Y-86614000D02*
X52814700Y-88525200D01*
X52814700Y-88525200D02*
X142010200Y-88525200D01*
X142010200Y-88525200D02*
X166019400Y-64516000D01*
X166019400Y-64516000D02*
X175006000Y-64516000D01*
%TO.N,Net-(IC2-Pad3)*%
X54980000Y-84359300D02*
X56061800Y-84359300D01*
X56061800Y-84359300D02*
X58316500Y-86614000D01*
X54980000Y-82784000D02*
X54980000Y-84359300D01*
%TO.N,ESP_BOOT*%
X51411500Y-65073900D02*
X51411500Y-63500000D01*
X58980000Y-67584000D02*
X58980000Y-66008700D01*
X58980000Y-66008700D02*
X58045200Y-65073900D01*
X58045200Y-65073900D02*
X51411500Y-65073900D01*
X51411500Y-65073900D02*
X51172700Y-65073900D01*
X51172700Y-65073900D02*
X50017800Y-66228800D01*
X50017800Y-66228800D02*
X50017800Y-87303600D01*
X50017800Y-87303600D02*
X51711000Y-88996800D01*
X51711000Y-88996800D02*
X172981200Y-88996800D01*
X172981200Y-88996800D02*
X174856000Y-87122000D01*
X174856000Y-87122000D02*
X181356000Y-87122000D01*
%TO.N,RX*%
X52980000Y-67584000D02*
X52980000Y-69159300D01*
X68580000Y-75184000D02*
X59004700Y-75184000D01*
X59004700Y-75184000D02*
X52980000Y-69159300D01*
%TO.N,TX*%
X50980000Y-69159300D02*
X59544700Y-77724000D01*
X59544700Y-77724000D02*
X68580000Y-77724000D01*
X50980000Y-67584000D02*
X50980000Y-69159300D01*
%TD*%
D26*
%TO.N,GND*%
X183236001Y-89002000D02*
X174050801Y-89002000D01*
X174364624Y-88688177D01*
X174379088Y-88694168D01*
X174694967Y-88757000D01*
X175017033Y-88757000D01*
X175332912Y-88694168D01*
X175630463Y-88570918D01*
X175898252Y-88391987D01*
X176125987Y-88164252D01*
X176304918Y-87896463D01*
X176310909Y-87882000D01*
X179901091Y-87882000D01*
X179907082Y-87896463D01*
X180086013Y-88164252D01*
X180313748Y-88391987D01*
X180581537Y-88570918D01*
X180879088Y-88694168D01*
X181194967Y-88757000D01*
X181517033Y-88757000D01*
X181832912Y-88694168D01*
X182130463Y-88570918D01*
X182398252Y-88391987D01*
X182625987Y-88164252D01*
X182804918Y-87896463D01*
X182928168Y-87598912D01*
X182991000Y-87283033D01*
X182991000Y-86960967D01*
X182928168Y-86645088D01*
X182804918Y-86347537D01*
X182625987Y-86079748D01*
X182398252Y-85852013D01*
X182130463Y-85673082D01*
X181832912Y-85549832D01*
X181517033Y-85487000D01*
X181194967Y-85487000D01*
X180879088Y-85549832D01*
X180581537Y-85673082D01*
X180313748Y-85852013D01*
X180086013Y-86079748D01*
X179907082Y-86347537D01*
X179901091Y-86362000D01*
X176310909Y-86362000D01*
X176304918Y-86347537D01*
X176125987Y-86079748D01*
X175898252Y-85852013D01*
X175630463Y-85673082D01*
X175332912Y-85549832D01*
X175017033Y-85487000D01*
X174694967Y-85487000D01*
X174379088Y-85549832D01*
X174081537Y-85673082D01*
X173813748Y-85852013D01*
X173586013Y-86079748D01*
X173407082Y-86347537D01*
X173283832Y-86645088D01*
X173221000Y-86960967D01*
X173221000Y-87283033D01*
X173283832Y-87598912D01*
X173289823Y-87613376D01*
X172666399Y-88236800D01*
X143373401Y-88236800D01*
X147852788Y-83757413D01*
X173900192Y-83757413D01*
X173995956Y-84021814D01*
X174285571Y-84162704D01*
X174597108Y-84244384D01*
X174918595Y-84263718D01*
X175237675Y-84219961D01*
X175542088Y-84114795D01*
X175716044Y-84021814D01*
X175811808Y-83757413D01*
X180400192Y-83757413D01*
X180495956Y-84021814D01*
X180785571Y-84162704D01*
X181097108Y-84244384D01*
X181418595Y-84263718D01*
X181737675Y-84219961D01*
X182042088Y-84114795D01*
X182216044Y-84021814D01*
X182311808Y-83757413D01*
X181356000Y-82801605D01*
X180400192Y-83757413D01*
X175811808Y-83757413D01*
X174856000Y-82801605D01*
X173900192Y-83757413D01*
X147852788Y-83757413D01*
X148925606Y-82684595D01*
X173214282Y-82684595D01*
X173258039Y-83003675D01*
X173363205Y-83308088D01*
X173456186Y-83482044D01*
X173720587Y-83577808D01*
X174676395Y-82622000D01*
X175035605Y-82622000D01*
X175991413Y-83577808D01*
X176255814Y-83482044D01*
X176396704Y-83192429D01*
X176478384Y-82880892D01*
X176490189Y-82684595D01*
X179714282Y-82684595D01*
X179758039Y-83003675D01*
X179863205Y-83308088D01*
X179956186Y-83482044D01*
X180220587Y-83577808D01*
X181176395Y-82622000D01*
X181535605Y-82622000D01*
X182491413Y-83577808D01*
X182755814Y-83482044D01*
X182896704Y-83192429D01*
X182978384Y-82880892D01*
X182997718Y-82559405D01*
X182953961Y-82240325D01*
X182848795Y-81935912D01*
X182755814Y-81761956D01*
X182491413Y-81666192D01*
X181535605Y-82622000D01*
X181176395Y-82622000D01*
X180220587Y-81666192D01*
X179956186Y-81761956D01*
X179815296Y-82051571D01*
X179733616Y-82363108D01*
X179714282Y-82684595D01*
X176490189Y-82684595D01*
X176497718Y-82559405D01*
X176453961Y-82240325D01*
X176348795Y-81935912D01*
X176255814Y-81761956D01*
X175991413Y-81666192D01*
X175035605Y-82622000D01*
X174676395Y-82622000D01*
X173720587Y-81666192D01*
X173456186Y-81761956D01*
X173315296Y-82051571D01*
X173233616Y-82363108D01*
X173214282Y-82684595D01*
X148925606Y-82684595D01*
X150123614Y-81486587D01*
X173900192Y-81486587D01*
X174856000Y-82442395D01*
X175811808Y-81486587D01*
X180400192Y-81486587D01*
X181356000Y-82442395D01*
X182311808Y-81486587D01*
X182216044Y-81222186D01*
X181926429Y-81081296D01*
X181614892Y-80999616D01*
X181293405Y-80980282D01*
X180974325Y-81024039D01*
X180669912Y-81129205D01*
X180495956Y-81222186D01*
X180400192Y-81486587D01*
X175811808Y-81486587D01*
X175716044Y-81222186D01*
X175426429Y-81081296D01*
X175114892Y-80999616D01*
X174793405Y-80980282D01*
X174474325Y-81024039D01*
X174169912Y-81129205D01*
X173995956Y-81222186D01*
X173900192Y-81486587D01*
X150123614Y-81486587D01*
X155780190Y-75830012D01*
X155831890Y-76089925D01*
X156000369Y-76496669D01*
X156244962Y-76862729D01*
X156556271Y-77174038D01*
X156922331Y-77418631D01*
X157329075Y-77587110D01*
X157760872Y-77673000D01*
X158201128Y-77673000D01*
X158632925Y-77587110D01*
X159039669Y-77418631D01*
X159405729Y-77174038D01*
X159717038Y-76862729D01*
X159961631Y-76496669D01*
X160130110Y-76089925D01*
X160216000Y-75658128D01*
X160216000Y-75470946D01*
X163329687Y-75470946D01*
X163382158Y-75937811D01*
X163524703Y-76385468D01*
X163715234Y-76741927D01*
X164056391Y-76928003D01*
X164564530Y-76419864D01*
X164564148Y-76779458D01*
X164235997Y-77107609D01*
X164422073Y-77448766D01*
X164563358Y-77521805D01*
X164561928Y-78867000D01*
X164574188Y-78991482D01*
X164610498Y-79111180D01*
X164669463Y-79221494D01*
X164748815Y-79318185D01*
X164845506Y-79397537D01*
X164955820Y-79456502D01*
X165075518Y-79492812D01*
X165200000Y-79505072D01*
X168584250Y-79502000D01*
X168743000Y-79343250D01*
X168743000Y-75819000D01*
X168997000Y-75819000D01*
X168997000Y-79343250D01*
X169155750Y-79502000D01*
X172540000Y-79505072D01*
X172664482Y-79492812D01*
X172784180Y-79456502D01*
X172894494Y-79397537D01*
X172991185Y-79318185D01*
X173070537Y-79221494D01*
X173129502Y-79111180D01*
X173165812Y-78991482D01*
X173178072Y-78867000D01*
X173175000Y-75977750D01*
X173016250Y-75819000D01*
X168997000Y-75819000D01*
X168743000Y-75819000D01*
X168723000Y-75819000D01*
X168723000Y-75565000D01*
X168743000Y-75565000D01*
X168743000Y-72040750D01*
X168997000Y-72040750D01*
X168997000Y-75565000D01*
X173016250Y-75565000D01*
X173175000Y-75406250D01*
X173178072Y-72517000D01*
X173165812Y-72392518D01*
X173129502Y-72272820D01*
X173070537Y-72162506D01*
X172991185Y-72065815D01*
X172894494Y-71986463D01*
X172784180Y-71927498D01*
X172664482Y-71891188D01*
X172540000Y-71878928D01*
X169155750Y-71882000D01*
X168997000Y-72040750D01*
X168743000Y-72040750D01*
X168584250Y-71882000D01*
X165200000Y-71878928D01*
X165075518Y-71891188D01*
X164955820Y-71927498D01*
X164845506Y-71986463D01*
X164748815Y-72065815D01*
X164669463Y-72162506D01*
X164610498Y-72272820D01*
X164574188Y-72392518D01*
X164561928Y-72517000D01*
X164562816Y-73352006D01*
X164422073Y-73427234D01*
X164235997Y-73768391D01*
X164563607Y-74096001D01*
X164563989Y-74455595D01*
X164056391Y-73947997D01*
X163715234Y-74134073D01*
X163499487Y-74551409D01*
X163369304Y-75002815D01*
X163329687Y-75470946D01*
X160216000Y-75470946D01*
X160216000Y-75217872D01*
X160130110Y-74786075D01*
X159961631Y-74379331D01*
X159717038Y-74013271D01*
X159405729Y-73701962D01*
X159039669Y-73457369D01*
X158632925Y-73288890D01*
X158373012Y-73237190D01*
X161458789Y-70151413D01*
X174050192Y-70151413D01*
X174145956Y-70415814D01*
X174435571Y-70556704D01*
X174747108Y-70638384D01*
X175068595Y-70657718D01*
X175387675Y-70613961D01*
X175692088Y-70508795D01*
X175866044Y-70415814D01*
X175961808Y-70151413D01*
X180550192Y-70151413D01*
X180645956Y-70415814D01*
X180935571Y-70556704D01*
X181247108Y-70638384D01*
X181568595Y-70657718D01*
X181887675Y-70613961D01*
X182192088Y-70508795D01*
X182366044Y-70415814D01*
X182461808Y-70151413D01*
X181506000Y-69195605D01*
X180550192Y-70151413D01*
X175961808Y-70151413D01*
X175006000Y-69195605D01*
X174050192Y-70151413D01*
X161458789Y-70151413D01*
X162531607Y-69078595D01*
X173364282Y-69078595D01*
X173408039Y-69397675D01*
X173513205Y-69702088D01*
X173606186Y-69876044D01*
X173870587Y-69971808D01*
X174826395Y-69016000D01*
X175185605Y-69016000D01*
X176141413Y-69971808D01*
X176405814Y-69876044D01*
X176546704Y-69586429D01*
X176628384Y-69274892D01*
X176640189Y-69078595D01*
X179864282Y-69078595D01*
X179908039Y-69397675D01*
X180013205Y-69702088D01*
X180106186Y-69876044D01*
X180370587Y-69971808D01*
X181326395Y-69016000D01*
X181685605Y-69016000D01*
X182641413Y-69971808D01*
X182905814Y-69876044D01*
X183046704Y-69586429D01*
X183128384Y-69274892D01*
X183147718Y-68953405D01*
X183103961Y-68634325D01*
X182998795Y-68329912D01*
X182905814Y-68155956D01*
X182641413Y-68060192D01*
X181685605Y-69016000D01*
X181326395Y-69016000D01*
X180370587Y-68060192D01*
X180106186Y-68155956D01*
X179965296Y-68445571D01*
X179883616Y-68757108D01*
X179864282Y-69078595D01*
X176640189Y-69078595D01*
X176647718Y-68953405D01*
X176603961Y-68634325D01*
X176498795Y-68329912D01*
X176405814Y-68155956D01*
X176141413Y-68060192D01*
X175185605Y-69016000D01*
X174826395Y-69016000D01*
X173870587Y-68060192D01*
X173606186Y-68155956D01*
X173465296Y-68445571D01*
X173383616Y-68757108D01*
X173364282Y-69078595D01*
X162531607Y-69078595D01*
X163729615Y-67880587D01*
X174050192Y-67880587D01*
X175006000Y-68836395D01*
X175961808Y-67880587D01*
X180550192Y-67880587D01*
X181506000Y-68836395D01*
X182461808Y-67880587D01*
X182366044Y-67616186D01*
X182076429Y-67475296D01*
X181764892Y-67393616D01*
X181443405Y-67374282D01*
X181124325Y-67418039D01*
X180819912Y-67523205D01*
X180645956Y-67616186D01*
X180550192Y-67880587D01*
X175961808Y-67880587D01*
X175866044Y-67616186D01*
X175576429Y-67475296D01*
X175264892Y-67393616D01*
X174943405Y-67374282D01*
X174624325Y-67418039D01*
X174319912Y-67523205D01*
X174145956Y-67616186D01*
X174050192Y-67880587D01*
X163729615Y-67880587D01*
X166334202Y-65276000D01*
X173551091Y-65276000D01*
X173557082Y-65290463D01*
X173736013Y-65558252D01*
X173963748Y-65785987D01*
X174231537Y-65964918D01*
X174529088Y-66088168D01*
X174844967Y-66151000D01*
X175167033Y-66151000D01*
X175482912Y-66088168D01*
X175780463Y-65964918D01*
X176048252Y-65785987D01*
X176275987Y-65558252D01*
X176454918Y-65290463D01*
X176460909Y-65276000D01*
X180051091Y-65276000D01*
X180057082Y-65290463D01*
X180236013Y-65558252D01*
X180463748Y-65785987D01*
X180731537Y-65964918D01*
X181029088Y-66088168D01*
X181344967Y-66151000D01*
X181667033Y-66151000D01*
X181982912Y-66088168D01*
X182280463Y-65964918D01*
X182548252Y-65785987D01*
X182775987Y-65558252D01*
X182954918Y-65290463D01*
X183078168Y-64992912D01*
X183141000Y-64677033D01*
X183141000Y-64354967D01*
X183078168Y-64039088D01*
X182954918Y-63741537D01*
X182775987Y-63473748D01*
X182548252Y-63246013D01*
X182280463Y-63067082D01*
X181982912Y-62943832D01*
X181667033Y-62881000D01*
X181344967Y-62881000D01*
X181029088Y-62943832D01*
X180731537Y-63067082D01*
X180463748Y-63246013D01*
X180236013Y-63473748D01*
X180057082Y-63741537D01*
X180051091Y-63756000D01*
X176460909Y-63756000D01*
X176454918Y-63741537D01*
X176275987Y-63473748D01*
X176048252Y-63246013D01*
X175780463Y-63067082D01*
X175482912Y-62943832D01*
X175167033Y-62881000D01*
X174844967Y-62881000D01*
X174529088Y-62943832D01*
X174231537Y-63067082D01*
X173963748Y-63246013D01*
X173736013Y-63473748D01*
X173557082Y-63741537D01*
X173551091Y-63756000D01*
X166056722Y-63756000D01*
X166019399Y-63752324D01*
X165982076Y-63756000D01*
X165982067Y-63756000D01*
X165870414Y-63766997D01*
X165727153Y-63810454D01*
X165595124Y-63881026D01*
X165479399Y-63975999D01*
X165455601Y-64004997D01*
X141695399Y-87765200D01*
X89776072Y-87765200D01*
X89776072Y-86053831D01*
X89981909Y-85847994D01*
X90010901Y-85824201D01*
X90034695Y-85795208D01*
X90034699Y-85795204D01*
X90105873Y-85708477D01*
X90105874Y-85708476D01*
X90176446Y-85576447D01*
X90219903Y-85433186D01*
X90230900Y-85321533D01*
X90230900Y-85321524D01*
X90234576Y-85284201D01*
X90230900Y-85246878D01*
X90230900Y-83459560D01*
X99580000Y-83459560D01*
X99580000Y-83924440D01*
X99670694Y-84380387D01*
X99848595Y-84809879D01*
X100106868Y-85196412D01*
X100435588Y-85525132D01*
X100822121Y-85783405D01*
X101251613Y-85961306D01*
X101707560Y-86052000D01*
X102172440Y-86052000D01*
X102628387Y-85961306D01*
X103057879Y-85783405D01*
X103444412Y-85525132D01*
X103773132Y-85196412D01*
X104031405Y-84809879D01*
X104209306Y-84380387D01*
X104300000Y-83924440D01*
X104300000Y-83459560D01*
X104209306Y-83003613D01*
X104031405Y-82574121D01*
X103773132Y-82187588D01*
X103444412Y-81858868D01*
X103057879Y-81600595D01*
X102628387Y-81422694D01*
X102172440Y-81332000D01*
X101707560Y-81332000D01*
X101251613Y-81422694D01*
X100822121Y-81600595D01*
X100435588Y-81858868D01*
X100106868Y-82187588D01*
X99848595Y-82574121D01*
X99670694Y-83003613D01*
X99580000Y-83459560D01*
X90230900Y-83459560D01*
X90230900Y-81260423D01*
X90234576Y-81223100D01*
X90230900Y-81185777D01*
X90230900Y-81185767D01*
X90219903Y-81074114D01*
X90176446Y-80930853D01*
X90120836Y-80826815D01*
X90105874Y-80798823D01*
X90034699Y-80712097D01*
X90010901Y-80683099D01*
X89981903Y-80659301D01*
X88827673Y-79505072D01*
X93880000Y-79505072D01*
X94004482Y-79492812D01*
X94124180Y-79456502D01*
X94234494Y-79397537D01*
X94331185Y-79318185D01*
X94410537Y-79221494D01*
X94469502Y-79111180D01*
X94505812Y-78991482D01*
X94518072Y-78867000D01*
X94518072Y-77826072D01*
X95476000Y-77826072D01*
X95600482Y-77813812D01*
X95720180Y-77777502D01*
X95830494Y-77718537D01*
X95927185Y-77639185D01*
X96006537Y-77542494D01*
X96065502Y-77432180D01*
X96101812Y-77312482D01*
X96114072Y-77188000D01*
X96114072Y-75217872D01*
X100136000Y-75217872D01*
X100136000Y-75658128D01*
X100221890Y-76089925D01*
X100390369Y-76496669D01*
X100634962Y-76862729D01*
X100946271Y-77174038D01*
X101312331Y-77418631D01*
X101719075Y-77587110D01*
X102150872Y-77673000D01*
X102591128Y-77673000D01*
X103022925Y-77587110D01*
X103429669Y-77418631D01*
X103795729Y-77174038D01*
X104107038Y-76862729D01*
X104351631Y-76496669D01*
X104520110Y-76089925D01*
X104606000Y-75658128D01*
X104606000Y-75217872D01*
X104520110Y-74786075D01*
X104351631Y-74379331D01*
X104107038Y-74013271D01*
X103795729Y-73701962D01*
X103429669Y-73457369D01*
X103022925Y-73288890D01*
X102591128Y-73203000D01*
X102150872Y-73203000D01*
X101719075Y-73288890D01*
X101312331Y-73457369D01*
X100946271Y-73701962D01*
X100634962Y-74013271D01*
X100390369Y-74379331D01*
X100221890Y-74786075D01*
X100136000Y-75217872D01*
X96114072Y-75217872D01*
X96114072Y-73688000D01*
X96101812Y-73563518D01*
X96065502Y-73443820D01*
X96006537Y-73333506D01*
X95927185Y-73236815D01*
X95830494Y-73157463D01*
X95720180Y-73098498D01*
X95600482Y-73062188D01*
X95476000Y-73049928D01*
X94518072Y-73049928D01*
X94518072Y-72517000D01*
X94505812Y-72392518D01*
X94469502Y-72272820D01*
X94410537Y-72162506D01*
X94331185Y-72065815D01*
X94234494Y-71986463D01*
X94124180Y-71927498D01*
X94004482Y-71891188D01*
X93880000Y-71878928D01*
X86974600Y-71878928D01*
X86974600Y-69182701D01*
X88645541Y-67511761D01*
X91780000Y-67511761D01*
X91780000Y-67872239D01*
X91850325Y-68225791D01*
X91988275Y-68558830D01*
X92188546Y-68858557D01*
X92443443Y-69113454D01*
X92743170Y-69313725D01*
X93076209Y-69451675D01*
X93429761Y-69522000D01*
X93790239Y-69522000D01*
X94143791Y-69451675D01*
X94476830Y-69313725D01*
X94776557Y-69113454D01*
X95031454Y-68858557D01*
X95231725Y-68558830D01*
X95369675Y-68225791D01*
X95440000Y-67872239D01*
X95440000Y-67511761D01*
X95429617Y-67459560D01*
X154780000Y-67459560D01*
X154780000Y-67924440D01*
X154870694Y-68380387D01*
X155048595Y-68809879D01*
X155306868Y-69196412D01*
X155635588Y-69525132D01*
X156022121Y-69783405D01*
X156451613Y-69961306D01*
X156907560Y-70052000D01*
X157372440Y-70052000D01*
X157828387Y-69961306D01*
X158257879Y-69783405D01*
X158644412Y-69525132D01*
X158973132Y-69196412D01*
X159231405Y-68809879D01*
X159409306Y-68380387D01*
X159500000Y-67924440D01*
X159500000Y-67459560D01*
X159409306Y-67003613D01*
X159231405Y-66574121D01*
X158973132Y-66187588D01*
X158644412Y-65858868D01*
X158257879Y-65600595D01*
X157828387Y-65422694D01*
X157372440Y-65332000D01*
X156907560Y-65332000D01*
X156451613Y-65422694D01*
X156022121Y-65600595D01*
X155635588Y-65858868D01*
X155306868Y-66187588D01*
X155048595Y-66574121D01*
X154870694Y-67003613D01*
X154780000Y-67459560D01*
X95429617Y-67459560D01*
X95369675Y-67158209D01*
X95231725Y-66825170D01*
X95031454Y-66525443D01*
X94776557Y-66270546D01*
X94476830Y-66070275D01*
X94143791Y-65932325D01*
X93790239Y-65862000D01*
X93429761Y-65862000D01*
X93076209Y-65932325D01*
X92743170Y-66070275D01*
X92443443Y-66270546D01*
X92188546Y-66525443D01*
X91988275Y-66825170D01*
X91850325Y-67158209D01*
X91780000Y-67511761D01*
X88645541Y-67511761D01*
X88867609Y-67289694D01*
X88896601Y-67265901D01*
X88920395Y-67236908D01*
X88920399Y-67236904D01*
X88991573Y-67150177D01*
X88991574Y-67150176D01*
X89062146Y-67018147D01*
X89105603Y-66874886D01*
X89116600Y-66763233D01*
X89116600Y-66763224D01*
X89120276Y-66725901D01*
X89116600Y-66688578D01*
X89116600Y-65098343D01*
X89120276Y-65061038D01*
X89116600Y-65023695D01*
X89116600Y-65023667D01*
X89111562Y-64972515D01*
X89105610Y-64912052D01*
X89105605Y-64912036D01*
X89105603Y-64912014D01*
X89077997Y-64821008D01*
X89062160Y-64768789D01*
X89062153Y-64768776D01*
X89062146Y-64768753D01*
X89021676Y-64693039D01*
X88991595Y-64636756D01*
X88991584Y-64636742D01*
X88991574Y-64636724D01*
X88946217Y-64581457D01*
X88920425Y-64550025D01*
X88920408Y-64550008D01*
X88896601Y-64520999D01*
X88867621Y-64497216D01*
X88596746Y-64226313D01*
X88628008Y-64123255D01*
X88645072Y-63950001D01*
X88645072Y-63049999D01*
X88628008Y-62876745D01*
X88577472Y-62710149D01*
X88537838Y-62636000D01*
X183236000Y-62636000D01*
X183236001Y-89002000D01*
%TA.AperFunction,Conductor*%
D27*
G36*
X183236001Y-89002000D02*
G01*
X174050801Y-89002000D01*
X174364624Y-88688177D01*
X174379088Y-88694168D01*
X174694967Y-88757000D01*
X175017033Y-88757000D01*
X175332912Y-88694168D01*
X175630463Y-88570918D01*
X175898252Y-88391987D01*
X176125987Y-88164252D01*
X176304918Y-87896463D01*
X176310909Y-87882000D01*
X179901091Y-87882000D01*
X179907082Y-87896463D01*
X180086013Y-88164252D01*
X180313748Y-88391987D01*
X180581537Y-88570918D01*
X180879088Y-88694168D01*
X181194967Y-88757000D01*
X181517033Y-88757000D01*
X181832912Y-88694168D01*
X182130463Y-88570918D01*
X182398252Y-88391987D01*
X182625987Y-88164252D01*
X182804918Y-87896463D01*
X182928168Y-87598912D01*
X182991000Y-87283033D01*
X182991000Y-86960967D01*
X182928168Y-86645088D01*
X182804918Y-86347537D01*
X182625987Y-86079748D01*
X182398252Y-85852013D01*
X182130463Y-85673082D01*
X181832912Y-85549832D01*
X181517033Y-85487000D01*
X181194967Y-85487000D01*
X180879088Y-85549832D01*
X180581537Y-85673082D01*
X180313748Y-85852013D01*
X180086013Y-86079748D01*
X179907082Y-86347537D01*
X179901091Y-86362000D01*
X176310909Y-86362000D01*
X176304918Y-86347537D01*
X176125987Y-86079748D01*
X175898252Y-85852013D01*
X175630463Y-85673082D01*
X175332912Y-85549832D01*
X175017033Y-85487000D01*
X174694967Y-85487000D01*
X174379088Y-85549832D01*
X174081537Y-85673082D01*
X173813748Y-85852013D01*
X173586013Y-86079748D01*
X173407082Y-86347537D01*
X173283832Y-86645088D01*
X173221000Y-86960967D01*
X173221000Y-87283033D01*
X173283832Y-87598912D01*
X173289823Y-87613376D01*
X172666399Y-88236800D01*
X143373401Y-88236800D01*
X147852788Y-83757413D01*
X173900192Y-83757413D01*
X173995956Y-84021814D01*
X174285571Y-84162704D01*
X174597108Y-84244384D01*
X174918595Y-84263718D01*
X175237675Y-84219961D01*
X175542088Y-84114795D01*
X175716044Y-84021814D01*
X175811808Y-83757413D01*
X180400192Y-83757413D01*
X180495956Y-84021814D01*
X180785571Y-84162704D01*
X181097108Y-84244384D01*
X181418595Y-84263718D01*
X181737675Y-84219961D01*
X182042088Y-84114795D01*
X182216044Y-84021814D01*
X182311808Y-83757413D01*
X181356000Y-82801605D01*
X180400192Y-83757413D01*
X175811808Y-83757413D01*
X174856000Y-82801605D01*
X173900192Y-83757413D01*
X147852788Y-83757413D01*
X148925606Y-82684595D01*
X173214282Y-82684595D01*
X173258039Y-83003675D01*
X173363205Y-83308088D01*
X173456186Y-83482044D01*
X173720587Y-83577808D01*
X174676395Y-82622000D01*
X175035605Y-82622000D01*
X175991413Y-83577808D01*
X176255814Y-83482044D01*
X176396704Y-83192429D01*
X176478384Y-82880892D01*
X176490189Y-82684595D01*
X179714282Y-82684595D01*
X179758039Y-83003675D01*
X179863205Y-83308088D01*
X179956186Y-83482044D01*
X180220587Y-83577808D01*
X181176395Y-82622000D01*
X181535605Y-82622000D01*
X182491413Y-83577808D01*
X182755814Y-83482044D01*
X182896704Y-83192429D01*
X182978384Y-82880892D01*
X182997718Y-82559405D01*
X182953961Y-82240325D01*
X182848795Y-81935912D01*
X182755814Y-81761956D01*
X182491413Y-81666192D01*
X181535605Y-82622000D01*
X181176395Y-82622000D01*
X180220587Y-81666192D01*
X179956186Y-81761956D01*
X179815296Y-82051571D01*
X179733616Y-82363108D01*
X179714282Y-82684595D01*
X176490189Y-82684595D01*
X176497718Y-82559405D01*
X176453961Y-82240325D01*
X176348795Y-81935912D01*
X176255814Y-81761956D01*
X175991413Y-81666192D01*
X175035605Y-82622000D01*
X174676395Y-82622000D01*
X173720587Y-81666192D01*
X173456186Y-81761956D01*
X173315296Y-82051571D01*
X173233616Y-82363108D01*
X173214282Y-82684595D01*
X148925606Y-82684595D01*
X150123614Y-81486587D01*
X173900192Y-81486587D01*
X174856000Y-82442395D01*
X175811808Y-81486587D01*
X180400192Y-81486587D01*
X181356000Y-82442395D01*
X182311808Y-81486587D01*
X182216044Y-81222186D01*
X181926429Y-81081296D01*
X181614892Y-80999616D01*
X181293405Y-80980282D01*
X180974325Y-81024039D01*
X180669912Y-81129205D01*
X180495956Y-81222186D01*
X180400192Y-81486587D01*
X175811808Y-81486587D01*
X175716044Y-81222186D01*
X175426429Y-81081296D01*
X175114892Y-80999616D01*
X174793405Y-80980282D01*
X174474325Y-81024039D01*
X174169912Y-81129205D01*
X173995956Y-81222186D01*
X173900192Y-81486587D01*
X150123614Y-81486587D01*
X155780190Y-75830012D01*
X155831890Y-76089925D01*
X156000369Y-76496669D01*
X156244962Y-76862729D01*
X156556271Y-77174038D01*
X156922331Y-77418631D01*
X157329075Y-77587110D01*
X157760872Y-77673000D01*
X158201128Y-77673000D01*
X158632925Y-77587110D01*
X159039669Y-77418631D01*
X159405729Y-77174038D01*
X159717038Y-76862729D01*
X159961631Y-76496669D01*
X160130110Y-76089925D01*
X160216000Y-75658128D01*
X160216000Y-75470946D01*
X163329687Y-75470946D01*
X163382158Y-75937811D01*
X163524703Y-76385468D01*
X163715234Y-76741927D01*
X164056391Y-76928003D01*
X164564530Y-76419864D01*
X164564148Y-76779458D01*
X164235997Y-77107609D01*
X164422073Y-77448766D01*
X164563358Y-77521805D01*
X164561928Y-78867000D01*
X164574188Y-78991482D01*
X164610498Y-79111180D01*
X164669463Y-79221494D01*
X164748815Y-79318185D01*
X164845506Y-79397537D01*
X164955820Y-79456502D01*
X165075518Y-79492812D01*
X165200000Y-79505072D01*
X168584250Y-79502000D01*
X168743000Y-79343250D01*
X168743000Y-75819000D01*
X168997000Y-75819000D01*
X168997000Y-79343250D01*
X169155750Y-79502000D01*
X172540000Y-79505072D01*
X172664482Y-79492812D01*
X172784180Y-79456502D01*
X172894494Y-79397537D01*
X172991185Y-79318185D01*
X173070537Y-79221494D01*
X173129502Y-79111180D01*
X173165812Y-78991482D01*
X173178072Y-78867000D01*
X173175000Y-75977750D01*
X173016250Y-75819000D01*
X168997000Y-75819000D01*
X168743000Y-75819000D01*
X168723000Y-75819000D01*
X168723000Y-75565000D01*
X168743000Y-75565000D01*
X168743000Y-72040750D01*
X168997000Y-72040750D01*
X168997000Y-75565000D01*
X173016250Y-75565000D01*
X173175000Y-75406250D01*
X173178072Y-72517000D01*
X173165812Y-72392518D01*
X173129502Y-72272820D01*
X173070537Y-72162506D01*
X172991185Y-72065815D01*
X172894494Y-71986463D01*
X172784180Y-71927498D01*
X172664482Y-71891188D01*
X172540000Y-71878928D01*
X169155750Y-71882000D01*
X168997000Y-72040750D01*
X168743000Y-72040750D01*
X168584250Y-71882000D01*
X165200000Y-71878928D01*
X165075518Y-71891188D01*
X164955820Y-71927498D01*
X164845506Y-71986463D01*
X164748815Y-72065815D01*
X164669463Y-72162506D01*
X164610498Y-72272820D01*
X164574188Y-72392518D01*
X164561928Y-72517000D01*
X164562816Y-73352006D01*
X164422073Y-73427234D01*
X164235997Y-73768391D01*
X164563607Y-74096001D01*
X164563989Y-74455595D01*
X164056391Y-73947997D01*
X163715234Y-74134073D01*
X163499487Y-74551409D01*
X163369304Y-75002815D01*
X163329687Y-75470946D01*
X160216000Y-75470946D01*
X160216000Y-75217872D01*
X160130110Y-74786075D01*
X159961631Y-74379331D01*
X159717038Y-74013271D01*
X159405729Y-73701962D01*
X159039669Y-73457369D01*
X158632925Y-73288890D01*
X158373012Y-73237190D01*
X161458789Y-70151413D01*
X174050192Y-70151413D01*
X174145956Y-70415814D01*
X174435571Y-70556704D01*
X174747108Y-70638384D01*
X175068595Y-70657718D01*
X175387675Y-70613961D01*
X175692088Y-70508795D01*
X175866044Y-70415814D01*
X175961808Y-70151413D01*
X180550192Y-70151413D01*
X180645956Y-70415814D01*
X180935571Y-70556704D01*
X181247108Y-70638384D01*
X181568595Y-70657718D01*
X181887675Y-70613961D01*
X182192088Y-70508795D01*
X182366044Y-70415814D01*
X182461808Y-70151413D01*
X181506000Y-69195605D01*
X180550192Y-70151413D01*
X175961808Y-70151413D01*
X175006000Y-69195605D01*
X174050192Y-70151413D01*
X161458789Y-70151413D01*
X162531607Y-69078595D01*
X173364282Y-69078595D01*
X173408039Y-69397675D01*
X173513205Y-69702088D01*
X173606186Y-69876044D01*
X173870587Y-69971808D01*
X174826395Y-69016000D01*
X175185605Y-69016000D01*
X176141413Y-69971808D01*
X176405814Y-69876044D01*
X176546704Y-69586429D01*
X176628384Y-69274892D01*
X176640189Y-69078595D01*
X179864282Y-69078595D01*
X179908039Y-69397675D01*
X180013205Y-69702088D01*
X180106186Y-69876044D01*
X180370587Y-69971808D01*
X181326395Y-69016000D01*
X181685605Y-69016000D01*
X182641413Y-69971808D01*
X182905814Y-69876044D01*
X183046704Y-69586429D01*
X183128384Y-69274892D01*
X183147718Y-68953405D01*
X183103961Y-68634325D01*
X182998795Y-68329912D01*
X182905814Y-68155956D01*
X182641413Y-68060192D01*
X181685605Y-69016000D01*
X181326395Y-69016000D01*
X180370587Y-68060192D01*
X180106186Y-68155956D01*
X179965296Y-68445571D01*
X179883616Y-68757108D01*
X179864282Y-69078595D01*
X176640189Y-69078595D01*
X176647718Y-68953405D01*
X176603961Y-68634325D01*
X176498795Y-68329912D01*
X176405814Y-68155956D01*
X176141413Y-68060192D01*
X175185605Y-69016000D01*
X174826395Y-69016000D01*
X173870587Y-68060192D01*
X173606186Y-68155956D01*
X173465296Y-68445571D01*
X173383616Y-68757108D01*
X173364282Y-69078595D01*
X162531607Y-69078595D01*
X163729615Y-67880587D01*
X174050192Y-67880587D01*
X175006000Y-68836395D01*
X175961808Y-67880587D01*
X180550192Y-67880587D01*
X181506000Y-68836395D01*
X182461808Y-67880587D01*
X182366044Y-67616186D01*
X182076429Y-67475296D01*
X181764892Y-67393616D01*
X181443405Y-67374282D01*
X181124325Y-67418039D01*
X180819912Y-67523205D01*
X180645956Y-67616186D01*
X180550192Y-67880587D01*
X175961808Y-67880587D01*
X175866044Y-67616186D01*
X175576429Y-67475296D01*
X175264892Y-67393616D01*
X174943405Y-67374282D01*
X174624325Y-67418039D01*
X174319912Y-67523205D01*
X174145956Y-67616186D01*
X174050192Y-67880587D01*
X163729615Y-67880587D01*
X166334202Y-65276000D01*
X173551091Y-65276000D01*
X173557082Y-65290463D01*
X173736013Y-65558252D01*
X173963748Y-65785987D01*
X174231537Y-65964918D01*
X174529088Y-66088168D01*
X174844967Y-66151000D01*
X175167033Y-66151000D01*
X175482912Y-66088168D01*
X175780463Y-65964918D01*
X176048252Y-65785987D01*
X176275987Y-65558252D01*
X176454918Y-65290463D01*
X176460909Y-65276000D01*
X180051091Y-65276000D01*
X180057082Y-65290463D01*
X180236013Y-65558252D01*
X180463748Y-65785987D01*
X180731537Y-65964918D01*
X181029088Y-66088168D01*
X181344967Y-66151000D01*
X181667033Y-66151000D01*
X181982912Y-66088168D01*
X182280463Y-65964918D01*
X182548252Y-65785987D01*
X182775987Y-65558252D01*
X182954918Y-65290463D01*
X183078168Y-64992912D01*
X183141000Y-64677033D01*
X183141000Y-64354967D01*
X183078168Y-64039088D01*
X182954918Y-63741537D01*
X182775987Y-63473748D01*
X182548252Y-63246013D01*
X182280463Y-63067082D01*
X181982912Y-62943832D01*
X181667033Y-62881000D01*
X181344967Y-62881000D01*
X181029088Y-62943832D01*
X180731537Y-63067082D01*
X180463748Y-63246013D01*
X180236013Y-63473748D01*
X180057082Y-63741537D01*
X180051091Y-63756000D01*
X176460909Y-63756000D01*
X176454918Y-63741537D01*
X176275987Y-63473748D01*
X176048252Y-63246013D01*
X175780463Y-63067082D01*
X175482912Y-62943832D01*
X175167033Y-62881000D01*
X174844967Y-62881000D01*
X174529088Y-62943832D01*
X174231537Y-63067082D01*
X173963748Y-63246013D01*
X173736013Y-63473748D01*
X173557082Y-63741537D01*
X173551091Y-63756000D01*
X166056722Y-63756000D01*
X166019399Y-63752324D01*
X165982076Y-63756000D01*
X165982067Y-63756000D01*
X165870414Y-63766997D01*
X165727153Y-63810454D01*
X165595124Y-63881026D01*
X165479399Y-63975999D01*
X165455601Y-64004997D01*
X141695399Y-87765200D01*
X89776072Y-87765200D01*
X89776072Y-86053831D01*
X89981909Y-85847994D01*
X90010901Y-85824201D01*
X90034695Y-85795208D01*
X90034699Y-85795204D01*
X90105873Y-85708477D01*
X90105874Y-85708476D01*
X90176446Y-85576447D01*
X90219903Y-85433186D01*
X90230900Y-85321533D01*
X90230900Y-85321524D01*
X90234576Y-85284201D01*
X90230900Y-85246878D01*
X90230900Y-83459560D01*
X99580000Y-83459560D01*
X99580000Y-83924440D01*
X99670694Y-84380387D01*
X99848595Y-84809879D01*
X100106868Y-85196412D01*
X100435588Y-85525132D01*
X100822121Y-85783405D01*
X101251613Y-85961306D01*
X101707560Y-86052000D01*
X102172440Y-86052000D01*
X102628387Y-85961306D01*
X103057879Y-85783405D01*
X103444412Y-85525132D01*
X103773132Y-85196412D01*
X104031405Y-84809879D01*
X104209306Y-84380387D01*
X104300000Y-83924440D01*
X104300000Y-83459560D01*
X104209306Y-83003613D01*
X104031405Y-82574121D01*
X103773132Y-82187588D01*
X103444412Y-81858868D01*
X103057879Y-81600595D01*
X102628387Y-81422694D01*
X102172440Y-81332000D01*
X101707560Y-81332000D01*
X101251613Y-81422694D01*
X100822121Y-81600595D01*
X100435588Y-81858868D01*
X100106868Y-82187588D01*
X99848595Y-82574121D01*
X99670694Y-83003613D01*
X99580000Y-83459560D01*
X90230900Y-83459560D01*
X90230900Y-81260423D01*
X90234576Y-81223100D01*
X90230900Y-81185777D01*
X90230900Y-81185767D01*
X90219903Y-81074114D01*
X90176446Y-80930853D01*
X90120836Y-80826815D01*
X90105874Y-80798823D01*
X90034699Y-80712097D01*
X90010901Y-80683099D01*
X89981903Y-80659301D01*
X88827673Y-79505072D01*
X93880000Y-79505072D01*
X94004482Y-79492812D01*
X94124180Y-79456502D01*
X94234494Y-79397537D01*
X94331185Y-79318185D01*
X94410537Y-79221494D01*
X94469502Y-79111180D01*
X94505812Y-78991482D01*
X94518072Y-78867000D01*
X94518072Y-77826072D01*
X95476000Y-77826072D01*
X95600482Y-77813812D01*
X95720180Y-77777502D01*
X95830494Y-77718537D01*
X95927185Y-77639185D01*
X96006537Y-77542494D01*
X96065502Y-77432180D01*
X96101812Y-77312482D01*
X96114072Y-77188000D01*
X96114072Y-75217872D01*
X100136000Y-75217872D01*
X100136000Y-75658128D01*
X100221890Y-76089925D01*
X100390369Y-76496669D01*
X100634962Y-76862729D01*
X100946271Y-77174038D01*
X101312331Y-77418631D01*
X101719075Y-77587110D01*
X102150872Y-77673000D01*
X102591128Y-77673000D01*
X103022925Y-77587110D01*
X103429669Y-77418631D01*
X103795729Y-77174038D01*
X104107038Y-76862729D01*
X104351631Y-76496669D01*
X104520110Y-76089925D01*
X104606000Y-75658128D01*
X104606000Y-75217872D01*
X104520110Y-74786075D01*
X104351631Y-74379331D01*
X104107038Y-74013271D01*
X103795729Y-73701962D01*
X103429669Y-73457369D01*
X103022925Y-73288890D01*
X102591128Y-73203000D01*
X102150872Y-73203000D01*
X101719075Y-73288890D01*
X101312331Y-73457369D01*
X100946271Y-73701962D01*
X100634962Y-74013271D01*
X100390369Y-74379331D01*
X100221890Y-74786075D01*
X100136000Y-75217872D01*
X96114072Y-75217872D01*
X96114072Y-73688000D01*
X96101812Y-73563518D01*
X96065502Y-73443820D01*
X96006537Y-73333506D01*
X95927185Y-73236815D01*
X95830494Y-73157463D01*
X95720180Y-73098498D01*
X95600482Y-73062188D01*
X95476000Y-73049928D01*
X94518072Y-73049928D01*
X94518072Y-72517000D01*
X94505812Y-72392518D01*
X94469502Y-72272820D01*
X94410537Y-72162506D01*
X94331185Y-72065815D01*
X94234494Y-71986463D01*
X94124180Y-71927498D01*
X94004482Y-71891188D01*
X93880000Y-71878928D01*
X86974600Y-71878928D01*
X86974600Y-69182701D01*
X88645541Y-67511761D01*
X91780000Y-67511761D01*
X91780000Y-67872239D01*
X91850325Y-68225791D01*
X91988275Y-68558830D01*
X92188546Y-68858557D01*
X92443443Y-69113454D01*
X92743170Y-69313725D01*
X93076209Y-69451675D01*
X93429761Y-69522000D01*
X93790239Y-69522000D01*
X94143791Y-69451675D01*
X94476830Y-69313725D01*
X94776557Y-69113454D01*
X95031454Y-68858557D01*
X95231725Y-68558830D01*
X95369675Y-68225791D01*
X95440000Y-67872239D01*
X95440000Y-67511761D01*
X95429617Y-67459560D01*
X154780000Y-67459560D01*
X154780000Y-67924440D01*
X154870694Y-68380387D01*
X155048595Y-68809879D01*
X155306868Y-69196412D01*
X155635588Y-69525132D01*
X156022121Y-69783405D01*
X156451613Y-69961306D01*
X156907560Y-70052000D01*
X157372440Y-70052000D01*
X157828387Y-69961306D01*
X158257879Y-69783405D01*
X158644412Y-69525132D01*
X158973132Y-69196412D01*
X159231405Y-68809879D01*
X159409306Y-68380387D01*
X159500000Y-67924440D01*
X159500000Y-67459560D01*
X159409306Y-67003613D01*
X159231405Y-66574121D01*
X158973132Y-66187588D01*
X158644412Y-65858868D01*
X158257879Y-65600595D01*
X157828387Y-65422694D01*
X157372440Y-65332000D01*
X156907560Y-65332000D01*
X156451613Y-65422694D01*
X156022121Y-65600595D01*
X155635588Y-65858868D01*
X155306868Y-66187588D01*
X155048595Y-66574121D01*
X154870694Y-67003613D01*
X154780000Y-67459560D01*
X95429617Y-67459560D01*
X95369675Y-67158209D01*
X95231725Y-66825170D01*
X95031454Y-66525443D01*
X94776557Y-66270546D01*
X94476830Y-66070275D01*
X94143791Y-65932325D01*
X93790239Y-65862000D01*
X93429761Y-65862000D01*
X93076209Y-65932325D01*
X92743170Y-66070275D01*
X92443443Y-66270546D01*
X92188546Y-66525443D01*
X91988275Y-66825170D01*
X91850325Y-67158209D01*
X91780000Y-67511761D01*
X88645541Y-67511761D01*
X88867609Y-67289694D01*
X88896601Y-67265901D01*
X88920395Y-67236908D01*
X88920399Y-67236904D01*
X88991573Y-67150177D01*
X88991574Y-67150176D01*
X89062146Y-67018147D01*
X89105603Y-66874886D01*
X89116600Y-66763233D01*
X89116600Y-66763224D01*
X89120276Y-66725901D01*
X89116600Y-66688578D01*
X89116600Y-65098343D01*
X89120276Y-65061038D01*
X89116600Y-65023695D01*
X89116600Y-65023667D01*
X89111562Y-64972515D01*
X89105610Y-64912052D01*
X89105605Y-64912036D01*
X89105603Y-64912014D01*
X89077997Y-64821008D01*
X89062160Y-64768789D01*
X89062153Y-64768776D01*
X89062146Y-64768753D01*
X89021676Y-64693039D01*
X88991595Y-64636756D01*
X88991584Y-64636742D01*
X88991574Y-64636724D01*
X88946217Y-64581457D01*
X88920425Y-64550025D01*
X88920408Y-64550008D01*
X88896601Y-64520999D01*
X88867621Y-64497216D01*
X88596746Y-64226313D01*
X88628008Y-64123255D01*
X88645072Y-63950001D01*
X88645072Y-63049999D01*
X88628008Y-62876745D01*
X88577472Y-62710149D01*
X88537838Y-62636000D01*
X183236000Y-62636000D01*
X183236001Y-89002000D01*
G37*
%TD.AperFunction*%
D26*
X72329748Y-87583858D02*
X72315605Y-87598000D01*
X72329748Y-87612143D01*
X72176690Y-87765200D01*
X72095310Y-87765200D01*
X71942253Y-87612143D01*
X71956395Y-87598000D01*
X71942253Y-87583858D01*
X72121858Y-87404253D01*
X72136000Y-87418395D01*
X72150143Y-87404253D01*
X72329748Y-87583858D01*
%TA.AperFunction,Conductor*%
D27*
G36*
X72329748Y-87583858D02*
G01*
X72315605Y-87598000D01*
X72329748Y-87612143D01*
X72176690Y-87765200D01*
X72095310Y-87765200D01*
X71942253Y-87612143D01*
X71956395Y-87598000D01*
X71942253Y-87583858D01*
X72121858Y-87404253D01*
X72136000Y-87418395D01*
X72150143Y-87404253D01*
X72329748Y-87583858D01*
G37*
%TD.AperFunction*%
D26*
X58980901Y-78235003D02*
X59004699Y-78264001D01*
X59033697Y-78287799D01*
X59120423Y-78358974D01*
X59213268Y-78408601D01*
X59252453Y-78429546D01*
X59395714Y-78473003D01*
X59507367Y-78484000D01*
X59507377Y-78484000D01*
X59544700Y-78487676D01*
X59582023Y-78484000D01*
X67301822Y-78484000D01*
X67426525Y-78670632D01*
X67558380Y-78802487D01*
X67485820Y-78824498D01*
X67375506Y-78883463D01*
X67278815Y-78962815D01*
X67199463Y-79059506D01*
X67140498Y-79169820D01*
X67104188Y-79289518D01*
X67091928Y-79414000D01*
X67095000Y-79978250D01*
X67253750Y-80137000D01*
X68453000Y-80137000D01*
X68453000Y-80117000D01*
X68707000Y-80117000D01*
X68707000Y-80137000D01*
X69906250Y-80137000D01*
X70065000Y-79978250D01*
X70068072Y-79414000D01*
X70055812Y-79289518D01*
X70019502Y-79169820D01*
X69960537Y-79059506D01*
X69881185Y-78962815D01*
X69784494Y-78883463D01*
X69674180Y-78824498D01*
X69601620Y-78802487D01*
X69733475Y-78670632D01*
X69889469Y-78437170D01*
X75566300Y-84114002D01*
X75590099Y-84143001D01*
X75705824Y-84237974D01*
X75837853Y-84308546D01*
X75981114Y-84352003D01*
X76092767Y-84363000D01*
X76092775Y-84363000D01*
X76130100Y-84366676D01*
X76167425Y-84363000D01*
X76491928Y-84363000D01*
X76491928Y-86228000D01*
X76504188Y-86352482D01*
X76540498Y-86472180D01*
X76599463Y-86582494D01*
X76678815Y-86679185D01*
X76775506Y-86758537D01*
X76885820Y-86817502D01*
X77005518Y-86853812D01*
X77130000Y-86866072D01*
X79130000Y-86866072D01*
X79254482Y-86853812D01*
X79374180Y-86817502D01*
X79484494Y-86758537D01*
X79581185Y-86679185D01*
X79660537Y-86582494D01*
X79719502Y-86472180D01*
X79755812Y-86352482D01*
X79768072Y-86228000D01*
X79768072Y-84363000D01*
X82064899Y-84363000D01*
X82540901Y-84839002D01*
X82564699Y-84868001D01*
X82680424Y-84962974D01*
X82791928Y-85022575D01*
X82791928Y-85078000D01*
X82804188Y-85202482D01*
X82840498Y-85322180D01*
X82899463Y-85432494D01*
X82936809Y-85478000D01*
X82899463Y-85523506D01*
X82840498Y-85633820D01*
X82804188Y-85753518D01*
X82791928Y-85878000D01*
X82791928Y-87378000D01*
X82804188Y-87502482D01*
X82840498Y-87622180D01*
X82899463Y-87732494D01*
X82926304Y-87765200D01*
X73365408Y-87765200D01*
X73366000Y-87762687D01*
X73374495Y-87519562D01*
X73335395Y-87279451D01*
X73250202Y-87051582D01*
X73209348Y-86975148D01*
X72985766Y-86927842D01*
X73102872Y-86810736D01*
X73044994Y-86752858D01*
X73090494Y-86728537D01*
X73187185Y-86649185D01*
X73266537Y-86552494D01*
X73325502Y-86442180D01*
X73361812Y-86322482D01*
X73374072Y-86198000D01*
X73374072Y-84998000D01*
X73361812Y-84873518D01*
X73325502Y-84753820D01*
X73266537Y-84643506D01*
X73187185Y-84546815D01*
X73090494Y-84467463D01*
X72980180Y-84408498D01*
X72860482Y-84372188D01*
X72736000Y-84359928D01*
X71536000Y-84359928D01*
X71411518Y-84372188D01*
X71291820Y-84408498D01*
X71181506Y-84467463D01*
X71084815Y-84546815D01*
X71005463Y-84643506D01*
X70946498Y-84753820D01*
X70910188Y-84873518D01*
X70907760Y-84898170D01*
X70786424Y-84963026D01*
X70670699Y-85057999D01*
X70646901Y-85086997D01*
X68853599Y-86880300D01*
X64097679Y-86880300D01*
X64100072Y-86856000D01*
X64100072Y-85356000D01*
X64087812Y-85231518D01*
X64051502Y-85111820D01*
X63992537Y-85001506D01*
X63913185Y-84904815D01*
X63816494Y-84825463D01*
X63740000Y-84784575D01*
X63740000Y-84615046D01*
X63834494Y-84564537D01*
X63931185Y-84485185D01*
X63980000Y-84425704D01*
X64028815Y-84485185D01*
X64125506Y-84564537D01*
X64235820Y-84623502D01*
X64355518Y-84659812D01*
X64480000Y-84672072D01*
X65480000Y-84672072D01*
X65604482Y-84659812D01*
X65724180Y-84623502D01*
X65834494Y-84564537D01*
X65931185Y-84485185D01*
X66010537Y-84388494D01*
X66069502Y-84278180D01*
X66105812Y-84158482D01*
X66118072Y-84034000D01*
X66118072Y-81534000D01*
X66105812Y-81409518D01*
X66069502Y-81289820D01*
X66010537Y-81179506D01*
X65956778Y-81114000D01*
X67091928Y-81114000D01*
X67104188Y-81238482D01*
X67140498Y-81358180D01*
X67199463Y-81468494D01*
X67278815Y-81565185D01*
X67375506Y-81644537D01*
X67485820Y-81703502D01*
X67605518Y-81739812D01*
X67730000Y-81752072D01*
X68294250Y-81749000D01*
X68453000Y-81590250D01*
X68453000Y-80391000D01*
X68707000Y-80391000D01*
X68707000Y-81590250D01*
X68865750Y-81749000D01*
X69430000Y-81752072D01*
X69554482Y-81739812D01*
X69674180Y-81703502D01*
X69784494Y-81644537D01*
X69881185Y-81565185D01*
X69960537Y-81468494D01*
X70019502Y-81358180D01*
X70055812Y-81238482D01*
X70068072Y-81114000D01*
X70065000Y-80549750D01*
X69906250Y-80391000D01*
X68707000Y-80391000D01*
X68453000Y-80391000D01*
X67253750Y-80391000D01*
X67095000Y-80549750D01*
X67091928Y-81114000D01*
X65956778Y-81114000D01*
X65931185Y-81082815D01*
X65834494Y-81003463D01*
X65724180Y-80944498D01*
X65604482Y-80908188D01*
X65480000Y-80895928D01*
X64480000Y-80895928D01*
X64355518Y-80908188D01*
X64235820Y-80944498D01*
X64125506Y-81003463D01*
X64028815Y-81082815D01*
X63980000Y-81142296D01*
X63931185Y-81082815D01*
X63834494Y-81003463D01*
X63724180Y-80944498D01*
X63604482Y-80908188D01*
X63480000Y-80895928D01*
X62480000Y-80895928D01*
X62355518Y-80908188D01*
X62235820Y-80944498D01*
X62125506Y-81003463D01*
X62028815Y-81082815D01*
X61980000Y-81142296D01*
X61931185Y-81082815D01*
X61834494Y-81003463D01*
X61724180Y-80944498D01*
X61604482Y-80908188D01*
X61480000Y-80895928D01*
X60480000Y-80895928D01*
X60355518Y-80908188D01*
X60235820Y-80944498D01*
X60125506Y-81003463D01*
X60028815Y-81082815D01*
X59980000Y-81142296D01*
X59931185Y-81082815D01*
X59834494Y-81003463D01*
X59724180Y-80944498D01*
X59604482Y-80908188D01*
X59480000Y-80895928D01*
X58480000Y-80895928D01*
X58355518Y-80908188D01*
X58235820Y-80944498D01*
X58125506Y-81003463D01*
X58028815Y-81082815D01*
X57980000Y-81142296D01*
X57931185Y-81082815D01*
X57834494Y-81003463D01*
X57724180Y-80944498D01*
X57604482Y-80908188D01*
X57480000Y-80895928D01*
X56480000Y-80895928D01*
X56355518Y-80908188D01*
X56235820Y-80944498D01*
X56125506Y-81003463D01*
X56028815Y-81082815D01*
X55980000Y-81142296D01*
X55931185Y-81082815D01*
X55834494Y-81003463D01*
X55724180Y-80944498D01*
X55604482Y-80908188D01*
X55480000Y-80895928D01*
X54480000Y-80895928D01*
X54355518Y-80908188D01*
X54235820Y-80944498D01*
X54125506Y-81003463D01*
X54028815Y-81082815D01*
X53980000Y-81142296D01*
X53931185Y-81082815D01*
X53834494Y-81003463D01*
X53724180Y-80944498D01*
X53604482Y-80908188D01*
X53480000Y-80895928D01*
X52480000Y-80895928D01*
X52355518Y-80908188D01*
X52235820Y-80944498D01*
X52125506Y-81003463D01*
X52028815Y-81082815D01*
X51980000Y-81142296D01*
X51931185Y-81082815D01*
X51834494Y-81003463D01*
X51724180Y-80944498D01*
X51604482Y-80908188D01*
X51480000Y-80895928D01*
X50777800Y-80895928D01*
X50777800Y-70031901D01*
X58980901Y-78235003D01*
%TA.AperFunction,Conductor*%
D27*
G36*
X58980901Y-78235003D02*
G01*
X59004699Y-78264001D01*
X59033697Y-78287799D01*
X59120423Y-78358974D01*
X59213268Y-78408601D01*
X59252453Y-78429546D01*
X59395714Y-78473003D01*
X59507367Y-78484000D01*
X59507377Y-78484000D01*
X59544700Y-78487676D01*
X59582023Y-78484000D01*
X67301822Y-78484000D01*
X67426525Y-78670632D01*
X67558380Y-78802487D01*
X67485820Y-78824498D01*
X67375506Y-78883463D01*
X67278815Y-78962815D01*
X67199463Y-79059506D01*
X67140498Y-79169820D01*
X67104188Y-79289518D01*
X67091928Y-79414000D01*
X67095000Y-79978250D01*
X67253750Y-80137000D01*
X68453000Y-80137000D01*
X68453000Y-80117000D01*
X68707000Y-80117000D01*
X68707000Y-80137000D01*
X69906250Y-80137000D01*
X70065000Y-79978250D01*
X70068072Y-79414000D01*
X70055812Y-79289518D01*
X70019502Y-79169820D01*
X69960537Y-79059506D01*
X69881185Y-78962815D01*
X69784494Y-78883463D01*
X69674180Y-78824498D01*
X69601620Y-78802487D01*
X69733475Y-78670632D01*
X69889469Y-78437170D01*
X75566300Y-84114002D01*
X75590099Y-84143001D01*
X75705824Y-84237974D01*
X75837853Y-84308546D01*
X75981114Y-84352003D01*
X76092767Y-84363000D01*
X76092775Y-84363000D01*
X76130100Y-84366676D01*
X76167425Y-84363000D01*
X76491928Y-84363000D01*
X76491928Y-86228000D01*
X76504188Y-86352482D01*
X76540498Y-86472180D01*
X76599463Y-86582494D01*
X76678815Y-86679185D01*
X76775506Y-86758537D01*
X76885820Y-86817502D01*
X77005518Y-86853812D01*
X77130000Y-86866072D01*
X79130000Y-86866072D01*
X79254482Y-86853812D01*
X79374180Y-86817502D01*
X79484494Y-86758537D01*
X79581185Y-86679185D01*
X79660537Y-86582494D01*
X79719502Y-86472180D01*
X79755812Y-86352482D01*
X79768072Y-86228000D01*
X79768072Y-84363000D01*
X82064899Y-84363000D01*
X82540901Y-84839002D01*
X82564699Y-84868001D01*
X82680424Y-84962974D01*
X82791928Y-85022575D01*
X82791928Y-85078000D01*
X82804188Y-85202482D01*
X82840498Y-85322180D01*
X82899463Y-85432494D01*
X82936809Y-85478000D01*
X82899463Y-85523506D01*
X82840498Y-85633820D01*
X82804188Y-85753518D01*
X82791928Y-85878000D01*
X82791928Y-87378000D01*
X82804188Y-87502482D01*
X82840498Y-87622180D01*
X82899463Y-87732494D01*
X82926304Y-87765200D01*
X73365408Y-87765200D01*
X73366000Y-87762687D01*
X73374495Y-87519562D01*
X73335395Y-87279451D01*
X73250202Y-87051582D01*
X73209348Y-86975148D01*
X72985766Y-86927842D01*
X73102872Y-86810736D01*
X73044994Y-86752858D01*
X73090494Y-86728537D01*
X73187185Y-86649185D01*
X73266537Y-86552494D01*
X73325502Y-86442180D01*
X73361812Y-86322482D01*
X73374072Y-86198000D01*
X73374072Y-84998000D01*
X73361812Y-84873518D01*
X73325502Y-84753820D01*
X73266537Y-84643506D01*
X73187185Y-84546815D01*
X73090494Y-84467463D01*
X72980180Y-84408498D01*
X72860482Y-84372188D01*
X72736000Y-84359928D01*
X71536000Y-84359928D01*
X71411518Y-84372188D01*
X71291820Y-84408498D01*
X71181506Y-84467463D01*
X71084815Y-84546815D01*
X71005463Y-84643506D01*
X70946498Y-84753820D01*
X70910188Y-84873518D01*
X70907760Y-84898170D01*
X70786424Y-84963026D01*
X70670699Y-85057999D01*
X70646901Y-85086997D01*
X68853599Y-86880300D01*
X64097679Y-86880300D01*
X64100072Y-86856000D01*
X64100072Y-85356000D01*
X64087812Y-85231518D01*
X64051502Y-85111820D01*
X63992537Y-85001506D01*
X63913185Y-84904815D01*
X63816494Y-84825463D01*
X63740000Y-84784575D01*
X63740000Y-84615046D01*
X63834494Y-84564537D01*
X63931185Y-84485185D01*
X63980000Y-84425704D01*
X64028815Y-84485185D01*
X64125506Y-84564537D01*
X64235820Y-84623502D01*
X64355518Y-84659812D01*
X64480000Y-84672072D01*
X65480000Y-84672072D01*
X65604482Y-84659812D01*
X65724180Y-84623502D01*
X65834494Y-84564537D01*
X65931185Y-84485185D01*
X66010537Y-84388494D01*
X66069502Y-84278180D01*
X66105812Y-84158482D01*
X66118072Y-84034000D01*
X66118072Y-81534000D01*
X66105812Y-81409518D01*
X66069502Y-81289820D01*
X66010537Y-81179506D01*
X65956778Y-81114000D01*
X67091928Y-81114000D01*
X67104188Y-81238482D01*
X67140498Y-81358180D01*
X67199463Y-81468494D01*
X67278815Y-81565185D01*
X67375506Y-81644537D01*
X67485820Y-81703502D01*
X67605518Y-81739812D01*
X67730000Y-81752072D01*
X68294250Y-81749000D01*
X68453000Y-81590250D01*
X68453000Y-80391000D01*
X68707000Y-80391000D01*
X68707000Y-81590250D01*
X68865750Y-81749000D01*
X69430000Y-81752072D01*
X69554482Y-81739812D01*
X69674180Y-81703502D01*
X69784494Y-81644537D01*
X69881185Y-81565185D01*
X69960537Y-81468494D01*
X70019502Y-81358180D01*
X70055812Y-81238482D01*
X70068072Y-81114000D01*
X70065000Y-80549750D01*
X69906250Y-80391000D01*
X68707000Y-80391000D01*
X68453000Y-80391000D01*
X67253750Y-80391000D01*
X67095000Y-80549750D01*
X67091928Y-81114000D01*
X65956778Y-81114000D01*
X65931185Y-81082815D01*
X65834494Y-81003463D01*
X65724180Y-80944498D01*
X65604482Y-80908188D01*
X65480000Y-80895928D01*
X64480000Y-80895928D01*
X64355518Y-80908188D01*
X64235820Y-80944498D01*
X64125506Y-81003463D01*
X64028815Y-81082815D01*
X63980000Y-81142296D01*
X63931185Y-81082815D01*
X63834494Y-81003463D01*
X63724180Y-80944498D01*
X63604482Y-80908188D01*
X63480000Y-80895928D01*
X62480000Y-80895928D01*
X62355518Y-80908188D01*
X62235820Y-80944498D01*
X62125506Y-81003463D01*
X62028815Y-81082815D01*
X61980000Y-81142296D01*
X61931185Y-81082815D01*
X61834494Y-81003463D01*
X61724180Y-80944498D01*
X61604482Y-80908188D01*
X61480000Y-80895928D01*
X60480000Y-80895928D01*
X60355518Y-80908188D01*
X60235820Y-80944498D01*
X60125506Y-81003463D01*
X60028815Y-81082815D01*
X59980000Y-81142296D01*
X59931185Y-81082815D01*
X59834494Y-81003463D01*
X59724180Y-80944498D01*
X59604482Y-80908188D01*
X59480000Y-80895928D01*
X58480000Y-80895928D01*
X58355518Y-80908188D01*
X58235820Y-80944498D01*
X58125506Y-81003463D01*
X58028815Y-81082815D01*
X57980000Y-81142296D01*
X57931185Y-81082815D01*
X57834494Y-81003463D01*
X57724180Y-80944498D01*
X57604482Y-80908188D01*
X57480000Y-80895928D01*
X56480000Y-80895928D01*
X56355518Y-80908188D01*
X56235820Y-80944498D01*
X56125506Y-81003463D01*
X56028815Y-81082815D01*
X55980000Y-81142296D01*
X55931185Y-81082815D01*
X55834494Y-81003463D01*
X55724180Y-80944498D01*
X55604482Y-80908188D01*
X55480000Y-80895928D01*
X54480000Y-80895928D01*
X54355518Y-80908188D01*
X54235820Y-80944498D01*
X54125506Y-81003463D01*
X54028815Y-81082815D01*
X53980000Y-81142296D01*
X53931185Y-81082815D01*
X53834494Y-81003463D01*
X53724180Y-80944498D01*
X53604482Y-80908188D01*
X53480000Y-80895928D01*
X52480000Y-80895928D01*
X52355518Y-80908188D01*
X52235820Y-80944498D01*
X52125506Y-81003463D01*
X52028815Y-81082815D01*
X51980000Y-81142296D01*
X51931185Y-81082815D01*
X51834494Y-81003463D01*
X51724180Y-80944498D01*
X51604482Y-80908188D01*
X51480000Y-80895928D01*
X50777800Y-80895928D01*
X50777800Y-70031901D01*
X58980901Y-78235003D01*
G37*
%TD.AperFunction*%
D26*
X84518928Y-66236001D02*
X84535992Y-66409255D01*
X84586528Y-66575851D01*
X84668595Y-66729387D01*
X84779038Y-66863962D01*
X84913613Y-66974405D01*
X85067149Y-67056472D01*
X85233745Y-67107008D01*
X85406999Y-67124072D01*
X85932001Y-67124072D01*
X86105255Y-67107008D01*
X86271851Y-67056472D01*
X86425387Y-66974405D01*
X86506637Y-66907724D01*
X86530815Y-66937185D01*
X86627506Y-67016537D01*
X86737820Y-67075502D01*
X86857518Y-67111812D01*
X86892446Y-67115252D01*
X85703598Y-68304101D01*
X85674600Y-68327899D01*
X85650802Y-68356897D01*
X85650801Y-68356898D01*
X85579626Y-68443624D01*
X85509054Y-68575654D01*
X85489964Y-68638589D01*
X85465598Y-68718914D01*
X85454601Y-68830567D01*
X85450924Y-68867900D01*
X85454601Y-68905232D01*
X85454600Y-79001178D01*
X85450924Y-79038500D01*
X85454600Y-79075822D01*
X85454600Y-79075832D01*
X85465597Y-79187485D01*
X85495420Y-79285799D01*
X85509054Y-79330746D01*
X85579626Y-79462776D01*
X85611817Y-79502000D01*
X85674599Y-79578501D01*
X85703603Y-79602304D01*
X85898096Y-79796797D01*
X85921899Y-79825801D01*
X86037624Y-79920774D01*
X86169653Y-79991346D01*
X86312914Y-80034803D01*
X86424567Y-80045800D01*
X86424577Y-80045800D01*
X86461899Y-80049476D01*
X86499222Y-80045800D01*
X87218799Y-80045800D01*
X87493835Y-80320836D01*
X87467554Y-80329121D01*
X87194911Y-80478684D01*
X86956685Y-80678563D01*
X86762031Y-80921077D01*
X86618429Y-81196906D01*
X86547437Y-81415020D01*
X86667406Y-81661000D01*
X88011000Y-81661000D01*
X88011000Y-81641000D01*
X88265000Y-81641000D01*
X88265000Y-81661000D01*
X88285000Y-81661000D01*
X88285000Y-81915000D01*
X88265000Y-81915000D01*
X88265000Y-81935000D01*
X88011000Y-81935000D01*
X88011000Y-81915000D01*
X86667406Y-81915000D01*
X86547437Y-82160980D01*
X86618429Y-82379094D01*
X86762031Y-82654923D01*
X86956685Y-82897437D01*
X87141899Y-83052837D01*
X86962537Y-83200037D01*
X86764155Y-83441765D01*
X86696681Y-83568000D01*
X86067087Y-83568000D01*
X86055812Y-83453518D01*
X86019502Y-83333820D01*
X85960537Y-83223506D01*
X85923191Y-83178000D01*
X85960537Y-83132494D01*
X86019502Y-83022180D01*
X86055812Y-82902482D01*
X86068072Y-82778000D01*
X86065000Y-82313750D01*
X85906250Y-82155000D01*
X84557000Y-82155000D01*
X84557000Y-82175000D01*
X84303000Y-82175000D01*
X84303000Y-82155000D01*
X82953750Y-82155000D01*
X82795000Y-82313750D01*
X82791928Y-82778000D01*
X82804188Y-82902482D01*
X82830731Y-82989983D01*
X82803976Y-82968026D01*
X82671947Y-82897454D01*
X82528686Y-82853997D01*
X82417033Y-82843000D01*
X82417022Y-82843000D01*
X82379700Y-82839324D01*
X82342378Y-82843000D01*
X79768072Y-82843000D01*
X79768072Y-82428000D01*
X79755812Y-82303518D01*
X79719502Y-82183820D01*
X79660537Y-82073506D01*
X79581185Y-81976815D01*
X79484494Y-81897463D01*
X79374180Y-81838498D01*
X79254482Y-81802188D01*
X79130000Y-81789928D01*
X77130000Y-81789928D01*
X77005518Y-81802188D01*
X76885820Y-81838498D01*
X76775506Y-81897463D01*
X76678815Y-81976815D01*
X76599463Y-82073506D01*
X76540498Y-82183820D01*
X76504188Y-82303518D01*
X76491928Y-82428000D01*
X76491928Y-82843000D01*
X76444902Y-82843000D01*
X74879902Y-81278000D01*
X82791928Y-81278000D01*
X82795000Y-81742250D01*
X82953750Y-81901000D01*
X84303000Y-81901000D01*
X84303000Y-80801750D01*
X84557000Y-80801750D01*
X84557000Y-81901000D01*
X85906250Y-81901000D01*
X86065000Y-81742250D01*
X86068072Y-81278000D01*
X86055812Y-81153518D01*
X86019502Y-81033820D01*
X85960537Y-80923506D01*
X85881185Y-80826815D01*
X85784494Y-80747463D01*
X85674180Y-80688498D01*
X85554482Y-80652188D01*
X85430000Y-80639928D01*
X84715750Y-80643000D01*
X84557000Y-80801750D01*
X84303000Y-80801750D01*
X84144250Y-80643000D01*
X83430000Y-80639928D01*
X83305518Y-80652188D01*
X83185820Y-80688498D01*
X83075506Y-80747463D01*
X82978815Y-80826815D01*
X82899463Y-80923506D01*
X82840498Y-81033820D01*
X82804188Y-81153518D01*
X82791928Y-81278000D01*
X74879902Y-81278000D01*
X72544561Y-78942659D01*
X72573418Y-78958084D01*
X72721255Y-79002929D01*
X72875000Y-79018072D01*
X73099670Y-79018072D01*
X73302501Y-79220903D01*
X73326299Y-79249901D01*
X73442024Y-79344874D01*
X73574053Y-79415446D01*
X73717314Y-79458903D01*
X73828967Y-79469900D01*
X73828977Y-79469900D01*
X73866300Y-79473576D01*
X73903623Y-79469900D01*
X75907178Y-79469900D01*
X75944500Y-79473576D01*
X75981822Y-79469900D01*
X75981833Y-79469900D01*
X76093486Y-79458903D01*
X76236747Y-79415446D01*
X76368776Y-79344874D01*
X76484501Y-79249901D01*
X76508304Y-79220897D01*
X76710998Y-79018203D01*
X76740001Y-78994401D01*
X76834974Y-78878676D01*
X76905546Y-78746647D01*
X76949003Y-78603386D01*
X76960000Y-78491733D01*
X76960000Y-78491732D01*
X76962000Y-78471427D01*
X76962000Y-78856250D01*
X77120750Y-79015000D01*
X77135000Y-79018072D01*
X77259482Y-79005812D01*
X77379180Y-78969502D01*
X77489494Y-78910537D01*
X77586185Y-78831185D01*
X77665537Y-78734494D01*
X77724502Y-78624180D01*
X77760812Y-78504482D01*
X77773072Y-78380000D01*
X77770000Y-77690750D01*
X77611250Y-77532000D01*
X76962000Y-77532000D01*
X76962000Y-78437373D01*
X76960000Y-78417067D01*
X76960000Y-77258000D01*
X76962000Y-77258000D01*
X76962000Y-77278000D01*
X77611250Y-77278000D01*
X77770000Y-77119250D01*
X77771584Y-76763764D01*
X80863841Y-76763764D01*
X80911148Y-76987348D01*
X81132516Y-77088237D01*
X81369313Y-77144000D01*
X81612438Y-77152495D01*
X81852549Y-77113395D01*
X82080418Y-77028202D01*
X82156852Y-76987348D01*
X82204159Y-76763764D01*
X81534000Y-76093605D01*
X80863841Y-76763764D01*
X77771584Y-76763764D01*
X77773072Y-76430000D01*
X77760812Y-76305518D01*
X77724502Y-76185820D01*
X77665537Y-76075506D01*
X77586185Y-75978815D01*
X77531700Y-75934101D01*
X80322080Y-73143722D01*
X80308188Y-73189518D01*
X80295928Y-73314000D01*
X80295928Y-74514000D01*
X80308188Y-74638482D01*
X80344498Y-74758180D01*
X80403463Y-74868494D01*
X80482815Y-74965185D01*
X80579506Y-75044537D01*
X80625006Y-75068858D01*
X80567128Y-75126736D01*
X80684234Y-75243842D01*
X80460652Y-75291148D01*
X80359763Y-75512516D01*
X80304000Y-75749313D01*
X80295505Y-75992438D01*
X80334605Y-76232549D01*
X80419798Y-76460418D01*
X80460652Y-76536852D01*
X80684236Y-76584159D01*
X81354395Y-75914000D01*
X81340253Y-75899858D01*
X81519858Y-75720253D01*
X81534000Y-75734395D01*
X81548143Y-75720253D01*
X81727748Y-75899858D01*
X81713605Y-75914000D01*
X82383764Y-76584159D01*
X82607348Y-76536852D01*
X82708237Y-76315484D01*
X82764000Y-76078687D01*
X82772495Y-75835562D01*
X82733395Y-75595451D01*
X82648202Y-75367582D01*
X82607348Y-75291148D01*
X82383766Y-75243842D01*
X82500872Y-75126736D01*
X82442994Y-75068858D01*
X82488494Y-75044537D01*
X82585185Y-74965185D01*
X82664537Y-74868494D01*
X82723502Y-74758180D01*
X82759812Y-74638482D01*
X82772072Y-74514000D01*
X82772072Y-73314000D01*
X82759812Y-73189518D01*
X82723502Y-73069820D01*
X82664537Y-72959506D01*
X82585185Y-72862815D01*
X82488494Y-72783463D01*
X82378180Y-72724498D01*
X82258482Y-72688188D01*
X82134000Y-72675928D01*
X80934000Y-72675928D01*
X80809518Y-72688188D01*
X80763722Y-72702080D01*
X80775004Y-72690798D01*
X80804001Y-72667001D01*
X80855717Y-72603985D01*
X80898974Y-72551277D01*
X80969546Y-72419247D01*
X80982725Y-72375801D01*
X81013003Y-72275986D01*
X81024000Y-72164333D01*
X81024000Y-72164323D01*
X81027676Y-72127000D01*
X81024000Y-72089677D01*
X81024000Y-70620178D01*
X81210632Y-70495475D01*
X81417475Y-70288632D01*
X81535100Y-70112594D01*
X81706412Y-70342269D01*
X81922645Y-70537178D01*
X82172748Y-70686157D01*
X82447109Y-70783481D01*
X82677000Y-70662814D01*
X82677000Y-69469000D01*
X82931000Y-69469000D01*
X82931000Y-70662814D01*
X83160891Y-70783481D01*
X83435252Y-70686157D01*
X83685355Y-70537178D01*
X83901588Y-70342269D01*
X84075641Y-70108920D01*
X84200825Y-69846099D01*
X84245476Y-69698890D01*
X84124155Y-69469000D01*
X82931000Y-69469000D01*
X82677000Y-69469000D01*
X82657000Y-69469000D01*
X82657000Y-69215000D01*
X82677000Y-69215000D01*
X82677000Y-69195000D01*
X82931000Y-69195000D01*
X82931000Y-69215000D01*
X84124155Y-69215000D01*
X84245476Y-68985110D01*
X84200825Y-68837901D01*
X84075641Y-68575080D01*
X83901588Y-68341731D01*
X83685355Y-68146822D01*
X83568466Y-68077195D01*
X83750632Y-67955475D01*
X83957475Y-67748632D01*
X84119990Y-67505411D01*
X84231932Y-67235158D01*
X84289000Y-66948260D01*
X84289000Y-66655740D01*
X84231932Y-66368842D01*
X84127524Y-66116777D01*
X84518928Y-65725373D01*
X84518928Y-66236001D01*
%TA.AperFunction,Conductor*%
D27*
G36*
X84518928Y-66236001D02*
G01*
X84535992Y-66409255D01*
X84586528Y-66575851D01*
X84668595Y-66729387D01*
X84779038Y-66863962D01*
X84913613Y-66974405D01*
X85067149Y-67056472D01*
X85233745Y-67107008D01*
X85406999Y-67124072D01*
X85932001Y-67124072D01*
X86105255Y-67107008D01*
X86271851Y-67056472D01*
X86425387Y-66974405D01*
X86506637Y-66907724D01*
X86530815Y-66937185D01*
X86627506Y-67016537D01*
X86737820Y-67075502D01*
X86857518Y-67111812D01*
X86892446Y-67115252D01*
X85703598Y-68304101D01*
X85674600Y-68327899D01*
X85650802Y-68356897D01*
X85650801Y-68356898D01*
X85579626Y-68443624D01*
X85509054Y-68575654D01*
X85489964Y-68638589D01*
X85465598Y-68718914D01*
X85454601Y-68830567D01*
X85450924Y-68867900D01*
X85454601Y-68905232D01*
X85454600Y-79001178D01*
X85450924Y-79038500D01*
X85454600Y-79075822D01*
X85454600Y-79075832D01*
X85465597Y-79187485D01*
X85495420Y-79285799D01*
X85509054Y-79330746D01*
X85579626Y-79462776D01*
X85611817Y-79502000D01*
X85674599Y-79578501D01*
X85703603Y-79602304D01*
X85898096Y-79796797D01*
X85921899Y-79825801D01*
X86037624Y-79920774D01*
X86169653Y-79991346D01*
X86312914Y-80034803D01*
X86424567Y-80045800D01*
X86424577Y-80045800D01*
X86461899Y-80049476D01*
X86499222Y-80045800D01*
X87218799Y-80045800D01*
X87493835Y-80320836D01*
X87467554Y-80329121D01*
X87194911Y-80478684D01*
X86956685Y-80678563D01*
X86762031Y-80921077D01*
X86618429Y-81196906D01*
X86547437Y-81415020D01*
X86667406Y-81661000D01*
X88011000Y-81661000D01*
X88011000Y-81641000D01*
X88265000Y-81641000D01*
X88265000Y-81661000D01*
X88285000Y-81661000D01*
X88285000Y-81915000D01*
X88265000Y-81915000D01*
X88265000Y-81935000D01*
X88011000Y-81935000D01*
X88011000Y-81915000D01*
X86667406Y-81915000D01*
X86547437Y-82160980D01*
X86618429Y-82379094D01*
X86762031Y-82654923D01*
X86956685Y-82897437D01*
X87141899Y-83052837D01*
X86962537Y-83200037D01*
X86764155Y-83441765D01*
X86696681Y-83568000D01*
X86067087Y-83568000D01*
X86055812Y-83453518D01*
X86019502Y-83333820D01*
X85960537Y-83223506D01*
X85923191Y-83178000D01*
X85960537Y-83132494D01*
X86019502Y-83022180D01*
X86055812Y-82902482D01*
X86068072Y-82778000D01*
X86065000Y-82313750D01*
X85906250Y-82155000D01*
X84557000Y-82155000D01*
X84557000Y-82175000D01*
X84303000Y-82175000D01*
X84303000Y-82155000D01*
X82953750Y-82155000D01*
X82795000Y-82313750D01*
X82791928Y-82778000D01*
X82804188Y-82902482D01*
X82830731Y-82989983D01*
X82803976Y-82968026D01*
X82671947Y-82897454D01*
X82528686Y-82853997D01*
X82417033Y-82843000D01*
X82417022Y-82843000D01*
X82379700Y-82839324D01*
X82342378Y-82843000D01*
X79768072Y-82843000D01*
X79768072Y-82428000D01*
X79755812Y-82303518D01*
X79719502Y-82183820D01*
X79660537Y-82073506D01*
X79581185Y-81976815D01*
X79484494Y-81897463D01*
X79374180Y-81838498D01*
X79254482Y-81802188D01*
X79130000Y-81789928D01*
X77130000Y-81789928D01*
X77005518Y-81802188D01*
X76885820Y-81838498D01*
X76775506Y-81897463D01*
X76678815Y-81976815D01*
X76599463Y-82073506D01*
X76540498Y-82183820D01*
X76504188Y-82303518D01*
X76491928Y-82428000D01*
X76491928Y-82843000D01*
X76444902Y-82843000D01*
X74879902Y-81278000D01*
X82791928Y-81278000D01*
X82795000Y-81742250D01*
X82953750Y-81901000D01*
X84303000Y-81901000D01*
X84303000Y-80801750D01*
X84557000Y-80801750D01*
X84557000Y-81901000D01*
X85906250Y-81901000D01*
X86065000Y-81742250D01*
X86068072Y-81278000D01*
X86055812Y-81153518D01*
X86019502Y-81033820D01*
X85960537Y-80923506D01*
X85881185Y-80826815D01*
X85784494Y-80747463D01*
X85674180Y-80688498D01*
X85554482Y-80652188D01*
X85430000Y-80639928D01*
X84715750Y-80643000D01*
X84557000Y-80801750D01*
X84303000Y-80801750D01*
X84144250Y-80643000D01*
X83430000Y-80639928D01*
X83305518Y-80652188D01*
X83185820Y-80688498D01*
X83075506Y-80747463D01*
X82978815Y-80826815D01*
X82899463Y-80923506D01*
X82840498Y-81033820D01*
X82804188Y-81153518D01*
X82791928Y-81278000D01*
X74879902Y-81278000D01*
X72544561Y-78942659D01*
X72573418Y-78958084D01*
X72721255Y-79002929D01*
X72875000Y-79018072D01*
X73099670Y-79018072D01*
X73302501Y-79220903D01*
X73326299Y-79249901D01*
X73442024Y-79344874D01*
X73574053Y-79415446D01*
X73717314Y-79458903D01*
X73828967Y-79469900D01*
X73828977Y-79469900D01*
X73866300Y-79473576D01*
X73903623Y-79469900D01*
X75907178Y-79469900D01*
X75944500Y-79473576D01*
X75981822Y-79469900D01*
X75981833Y-79469900D01*
X76093486Y-79458903D01*
X76236747Y-79415446D01*
X76368776Y-79344874D01*
X76484501Y-79249901D01*
X76508304Y-79220897D01*
X76710998Y-79018203D01*
X76740001Y-78994401D01*
X76834974Y-78878676D01*
X76905546Y-78746647D01*
X76949003Y-78603386D01*
X76960000Y-78491733D01*
X76960000Y-78491732D01*
X76962000Y-78471427D01*
X76962000Y-78856250D01*
X77120750Y-79015000D01*
X77135000Y-79018072D01*
X77259482Y-79005812D01*
X77379180Y-78969502D01*
X77489494Y-78910537D01*
X77586185Y-78831185D01*
X77665537Y-78734494D01*
X77724502Y-78624180D01*
X77760812Y-78504482D01*
X77773072Y-78380000D01*
X77770000Y-77690750D01*
X77611250Y-77532000D01*
X76962000Y-77532000D01*
X76962000Y-78437373D01*
X76960000Y-78417067D01*
X76960000Y-77258000D01*
X76962000Y-77258000D01*
X76962000Y-77278000D01*
X77611250Y-77278000D01*
X77770000Y-77119250D01*
X77771584Y-76763764D01*
X80863841Y-76763764D01*
X80911148Y-76987348D01*
X81132516Y-77088237D01*
X81369313Y-77144000D01*
X81612438Y-77152495D01*
X81852549Y-77113395D01*
X82080418Y-77028202D01*
X82156852Y-76987348D01*
X82204159Y-76763764D01*
X81534000Y-76093605D01*
X80863841Y-76763764D01*
X77771584Y-76763764D01*
X77773072Y-76430000D01*
X77760812Y-76305518D01*
X77724502Y-76185820D01*
X77665537Y-76075506D01*
X77586185Y-75978815D01*
X77531700Y-75934101D01*
X80322080Y-73143722D01*
X80308188Y-73189518D01*
X80295928Y-73314000D01*
X80295928Y-74514000D01*
X80308188Y-74638482D01*
X80344498Y-74758180D01*
X80403463Y-74868494D01*
X80482815Y-74965185D01*
X80579506Y-75044537D01*
X80625006Y-75068858D01*
X80567128Y-75126736D01*
X80684234Y-75243842D01*
X80460652Y-75291148D01*
X80359763Y-75512516D01*
X80304000Y-75749313D01*
X80295505Y-75992438D01*
X80334605Y-76232549D01*
X80419798Y-76460418D01*
X80460652Y-76536852D01*
X80684236Y-76584159D01*
X81354395Y-75914000D01*
X81340253Y-75899858D01*
X81519858Y-75720253D01*
X81534000Y-75734395D01*
X81548143Y-75720253D01*
X81727748Y-75899858D01*
X81713605Y-75914000D01*
X82383764Y-76584159D01*
X82607348Y-76536852D01*
X82708237Y-76315484D01*
X82764000Y-76078687D01*
X82772495Y-75835562D01*
X82733395Y-75595451D01*
X82648202Y-75367582D01*
X82607348Y-75291148D01*
X82383766Y-75243842D01*
X82500872Y-75126736D01*
X82442994Y-75068858D01*
X82488494Y-75044537D01*
X82585185Y-74965185D01*
X82664537Y-74868494D01*
X82723502Y-74758180D01*
X82759812Y-74638482D01*
X82772072Y-74514000D01*
X82772072Y-73314000D01*
X82759812Y-73189518D01*
X82723502Y-73069820D01*
X82664537Y-72959506D01*
X82585185Y-72862815D01*
X82488494Y-72783463D01*
X82378180Y-72724498D01*
X82258482Y-72688188D01*
X82134000Y-72675928D01*
X80934000Y-72675928D01*
X80809518Y-72688188D01*
X80763722Y-72702080D01*
X80775004Y-72690798D01*
X80804001Y-72667001D01*
X80855717Y-72603985D01*
X80898974Y-72551277D01*
X80969546Y-72419247D01*
X80982725Y-72375801D01*
X81013003Y-72275986D01*
X81024000Y-72164333D01*
X81024000Y-72164323D01*
X81027676Y-72127000D01*
X81024000Y-72089677D01*
X81024000Y-70620178D01*
X81210632Y-70495475D01*
X81417475Y-70288632D01*
X81535100Y-70112594D01*
X81706412Y-70342269D01*
X81922645Y-70537178D01*
X82172748Y-70686157D01*
X82447109Y-70783481D01*
X82677000Y-70662814D01*
X82677000Y-69469000D01*
X82931000Y-69469000D01*
X82931000Y-70662814D01*
X83160891Y-70783481D01*
X83435252Y-70686157D01*
X83685355Y-70537178D01*
X83901588Y-70342269D01*
X84075641Y-70108920D01*
X84200825Y-69846099D01*
X84245476Y-69698890D01*
X84124155Y-69469000D01*
X82931000Y-69469000D01*
X82677000Y-69469000D01*
X82657000Y-69469000D01*
X82657000Y-69215000D01*
X82677000Y-69215000D01*
X82677000Y-69195000D01*
X82931000Y-69195000D01*
X82931000Y-69215000D01*
X84124155Y-69215000D01*
X84245476Y-68985110D01*
X84200825Y-68837901D01*
X84075641Y-68575080D01*
X83901588Y-68341731D01*
X83685355Y-68146822D01*
X83568466Y-68077195D01*
X83750632Y-67955475D01*
X83957475Y-67748632D01*
X84119990Y-67505411D01*
X84231932Y-67235158D01*
X84289000Y-66948260D01*
X84289000Y-66655740D01*
X84231932Y-66368842D01*
X84127524Y-66116777D01*
X84518928Y-65725373D01*
X84518928Y-66236001D01*
G37*
%TD.AperFunction*%
D26*
X84586528Y-62710149D02*
X84535992Y-62876745D01*
X84518928Y-63049999D01*
X84518928Y-63575770D01*
X84237560Y-63857138D01*
X84231932Y-63828842D01*
X84119990Y-63558589D01*
X83957475Y-63315368D01*
X83750632Y-63108525D01*
X83507411Y-62946010D01*
X83237158Y-62834068D01*
X82950260Y-62777000D01*
X82657740Y-62777000D01*
X82370842Y-62834068D01*
X82100589Y-62946010D01*
X81857368Y-63108525D01*
X81725513Y-63240380D01*
X81703502Y-63167820D01*
X81644537Y-63057506D01*
X81565185Y-62960815D01*
X81468494Y-62881463D01*
X81358180Y-62822498D01*
X81238482Y-62786188D01*
X81114000Y-62773928D01*
X79414000Y-62773928D01*
X79289518Y-62786188D01*
X79169820Y-62822498D01*
X79059506Y-62881463D01*
X78962815Y-62960815D01*
X78883463Y-63057506D01*
X78824498Y-63167820D01*
X78788188Y-63287518D01*
X78775928Y-63412000D01*
X78775928Y-65112000D01*
X78788188Y-65236482D01*
X78810189Y-65309009D01*
X77656603Y-66462596D01*
X77627599Y-66486399D01*
X77595557Y-66525443D01*
X77532626Y-66602124D01*
X77466465Y-66725901D01*
X77462054Y-66734154D01*
X77418597Y-66877415D01*
X77409345Y-66971352D01*
X77192406Y-67188292D01*
X77193072Y-67093000D01*
X77180812Y-66968518D01*
X77144502Y-66848820D01*
X77085537Y-66738506D01*
X77006185Y-66641815D01*
X76909494Y-66562463D01*
X76799180Y-66503498D01*
X76679482Y-66467188D01*
X76555000Y-66454928D01*
X76253250Y-66458000D01*
X76094500Y-66616750D01*
X76094500Y-67691000D01*
X76114500Y-67691000D01*
X76114500Y-67945000D01*
X76094500Y-67945000D01*
X76094500Y-67965000D01*
X75840500Y-67965000D01*
X75840500Y-67945000D01*
X75820500Y-67945000D01*
X75820500Y-67691000D01*
X75840500Y-67691000D01*
X75840500Y-66616750D01*
X75681750Y-66458000D01*
X75380000Y-66454928D01*
X75255518Y-66467188D01*
X75247823Y-66469522D01*
X75024004Y-66245703D01*
X75000201Y-66216699D01*
X74884476Y-66121726D01*
X74752447Y-66051154D01*
X74609186Y-66007697D01*
X74497533Y-65996700D01*
X74497522Y-65996700D01*
X74460200Y-65993024D01*
X74422878Y-65996700D01*
X73298125Y-65996700D01*
X73260800Y-65993024D01*
X73223475Y-65996700D01*
X73223467Y-65996700D01*
X73111814Y-66007697D01*
X72968553Y-66051154D01*
X72836524Y-66121726D01*
X72720799Y-66216699D01*
X72697001Y-66245697D01*
X71203599Y-67739100D01*
X70612850Y-67739100D01*
X70543250Y-67669500D01*
X69469000Y-67669500D01*
X69469000Y-67689500D01*
X69215000Y-67689500D01*
X69215000Y-67669500D01*
X69195000Y-67669500D01*
X69195000Y-67415500D01*
X69215000Y-67415500D01*
X69215000Y-66478750D01*
X69469000Y-66478750D01*
X69469000Y-67415500D01*
X70543250Y-67415500D01*
X70702000Y-67256750D01*
X70705072Y-66955000D01*
X70692812Y-66830518D01*
X70656502Y-66710820D01*
X70597537Y-66600506D01*
X70518185Y-66503815D01*
X70421494Y-66424463D01*
X70311180Y-66365498D01*
X70191482Y-66329188D01*
X70067000Y-66316928D01*
X69627750Y-66320000D01*
X69469000Y-66478750D01*
X69215000Y-66478750D01*
X69056250Y-66320000D01*
X68617000Y-66316928D01*
X68492518Y-66329188D01*
X68372820Y-66365498D01*
X68262506Y-66424463D01*
X68165815Y-66503815D01*
X68086463Y-66600506D01*
X68027498Y-66710820D01*
X68006161Y-66781159D01*
X66722604Y-65497603D01*
X66698801Y-65468599D01*
X66583076Y-65373626D01*
X66451047Y-65303054D01*
X66307786Y-65259597D01*
X66196133Y-65248600D01*
X66196122Y-65248600D01*
X66158800Y-65244924D01*
X66121478Y-65248600D01*
X64317223Y-65248600D01*
X64279900Y-65244924D01*
X64242578Y-65248600D01*
X64242567Y-65248600D01*
X64130914Y-65259597D01*
X63987653Y-65303054D01*
X63855624Y-65373626D01*
X63740000Y-65468516D01*
X63740000Y-64815038D01*
X63775518Y-64825812D01*
X63900000Y-64838072D01*
X64126750Y-64835000D01*
X64285500Y-64676250D01*
X64285500Y-63627000D01*
X64539500Y-63627000D01*
X64539500Y-64676250D01*
X64698250Y-64835000D01*
X64925000Y-64838072D01*
X65049482Y-64825812D01*
X65169180Y-64789502D01*
X65279494Y-64730537D01*
X65376185Y-64651185D01*
X65455537Y-64554494D01*
X65514502Y-64444180D01*
X65550812Y-64324482D01*
X65563072Y-64200000D01*
X65560000Y-63785750D01*
X65401250Y-63627000D01*
X64539500Y-63627000D01*
X64285500Y-63627000D01*
X64265500Y-63627000D01*
X64265500Y-63373000D01*
X64285500Y-63373000D01*
X64285500Y-63353000D01*
X64539500Y-63353000D01*
X64539500Y-63373000D01*
X65401250Y-63373000D01*
X65554250Y-63220000D01*
X66303899Y-63220000D01*
X67856901Y-64773003D01*
X67880699Y-64802001D01*
X67996424Y-64896974D01*
X68128453Y-64967546D01*
X68271714Y-65011003D01*
X68313204Y-65015089D01*
X68442525Y-65208632D01*
X68649368Y-65415475D01*
X68892589Y-65577990D01*
X69162842Y-65689932D01*
X69449740Y-65747000D01*
X69742260Y-65747000D01*
X70029158Y-65689932D01*
X70299411Y-65577990D01*
X70542632Y-65415475D01*
X70749475Y-65208632D01*
X70866000Y-65034240D01*
X70982525Y-65208632D01*
X71189368Y-65415475D01*
X71432589Y-65577990D01*
X71702842Y-65689932D01*
X71989740Y-65747000D01*
X72282260Y-65747000D01*
X72569158Y-65689932D01*
X72839411Y-65577990D01*
X73082632Y-65415475D01*
X73214487Y-65283620D01*
X73236498Y-65356180D01*
X73295463Y-65466494D01*
X73374815Y-65563185D01*
X73471506Y-65642537D01*
X73581820Y-65701502D01*
X73701518Y-65737812D01*
X73826000Y-65750072D01*
X74390250Y-65747000D01*
X74549000Y-65588250D01*
X74549000Y-64389000D01*
X74803000Y-64389000D01*
X74803000Y-65588250D01*
X74961750Y-65747000D01*
X75526000Y-65750072D01*
X75650482Y-65737812D01*
X75770180Y-65701502D01*
X75880494Y-65642537D01*
X75977185Y-65563185D01*
X76056537Y-65466494D01*
X76115502Y-65356180D01*
X76151812Y-65236482D01*
X76164072Y-65112000D01*
X76161000Y-64547750D01*
X76002250Y-64389000D01*
X74803000Y-64389000D01*
X74549000Y-64389000D01*
X74529000Y-64389000D01*
X74529000Y-64135000D01*
X74549000Y-64135000D01*
X74549000Y-62935750D01*
X74803000Y-62935750D01*
X74803000Y-64135000D01*
X76002250Y-64135000D01*
X76161000Y-63976250D01*
X76164072Y-63412000D01*
X76151812Y-63287518D01*
X76115502Y-63167820D01*
X76056537Y-63057506D01*
X75977185Y-62960815D01*
X75880494Y-62881463D01*
X75770180Y-62822498D01*
X75650482Y-62786188D01*
X75526000Y-62773928D01*
X74961750Y-62777000D01*
X74803000Y-62935750D01*
X74549000Y-62935750D01*
X74390250Y-62777000D01*
X73826000Y-62773928D01*
X73701518Y-62786188D01*
X73581820Y-62822498D01*
X73471506Y-62881463D01*
X73374815Y-62960815D01*
X73295463Y-63057506D01*
X73236498Y-63167820D01*
X73214487Y-63240380D01*
X73082632Y-63108525D01*
X72839411Y-62946010D01*
X72569158Y-62834068D01*
X72282260Y-62777000D01*
X71989740Y-62777000D01*
X71702842Y-62834068D01*
X71432589Y-62946010D01*
X71189368Y-63108525D01*
X70982525Y-63315368D01*
X70866000Y-63489760D01*
X70749475Y-63315368D01*
X70542632Y-63108525D01*
X70299411Y-62946010D01*
X70029158Y-62834068D01*
X69742260Y-62777000D01*
X69449740Y-62777000D01*
X69162842Y-62834068D01*
X68892589Y-62946010D01*
X68649368Y-63108525D01*
X68495697Y-63262196D01*
X67869501Y-62636000D01*
X84626162Y-62636000D01*
X84586528Y-62710149D01*
%TA.AperFunction,Conductor*%
D27*
G36*
X84586528Y-62710149D02*
G01*
X84535992Y-62876745D01*
X84518928Y-63049999D01*
X84518928Y-63575770D01*
X84237560Y-63857138D01*
X84231932Y-63828842D01*
X84119990Y-63558589D01*
X83957475Y-63315368D01*
X83750632Y-63108525D01*
X83507411Y-62946010D01*
X83237158Y-62834068D01*
X82950260Y-62777000D01*
X82657740Y-62777000D01*
X82370842Y-62834068D01*
X82100589Y-62946010D01*
X81857368Y-63108525D01*
X81725513Y-63240380D01*
X81703502Y-63167820D01*
X81644537Y-63057506D01*
X81565185Y-62960815D01*
X81468494Y-62881463D01*
X81358180Y-62822498D01*
X81238482Y-62786188D01*
X81114000Y-62773928D01*
X79414000Y-62773928D01*
X79289518Y-62786188D01*
X79169820Y-62822498D01*
X79059506Y-62881463D01*
X78962815Y-62960815D01*
X78883463Y-63057506D01*
X78824498Y-63167820D01*
X78788188Y-63287518D01*
X78775928Y-63412000D01*
X78775928Y-65112000D01*
X78788188Y-65236482D01*
X78810189Y-65309009D01*
X77656603Y-66462596D01*
X77627599Y-66486399D01*
X77595557Y-66525443D01*
X77532626Y-66602124D01*
X77466465Y-66725901D01*
X77462054Y-66734154D01*
X77418597Y-66877415D01*
X77409345Y-66971352D01*
X77192406Y-67188292D01*
X77193072Y-67093000D01*
X77180812Y-66968518D01*
X77144502Y-66848820D01*
X77085537Y-66738506D01*
X77006185Y-66641815D01*
X76909494Y-66562463D01*
X76799180Y-66503498D01*
X76679482Y-66467188D01*
X76555000Y-66454928D01*
X76253250Y-66458000D01*
X76094500Y-66616750D01*
X76094500Y-67691000D01*
X76114500Y-67691000D01*
X76114500Y-67945000D01*
X76094500Y-67945000D01*
X76094500Y-67965000D01*
X75840500Y-67965000D01*
X75840500Y-67945000D01*
X75820500Y-67945000D01*
X75820500Y-67691000D01*
X75840500Y-67691000D01*
X75840500Y-66616750D01*
X75681750Y-66458000D01*
X75380000Y-66454928D01*
X75255518Y-66467188D01*
X75247823Y-66469522D01*
X75024004Y-66245703D01*
X75000201Y-66216699D01*
X74884476Y-66121726D01*
X74752447Y-66051154D01*
X74609186Y-66007697D01*
X74497533Y-65996700D01*
X74497522Y-65996700D01*
X74460200Y-65993024D01*
X74422878Y-65996700D01*
X73298125Y-65996700D01*
X73260800Y-65993024D01*
X73223475Y-65996700D01*
X73223467Y-65996700D01*
X73111814Y-66007697D01*
X72968553Y-66051154D01*
X72836524Y-66121726D01*
X72720799Y-66216699D01*
X72697001Y-66245697D01*
X71203599Y-67739100D01*
X70612850Y-67739100D01*
X70543250Y-67669500D01*
X69469000Y-67669500D01*
X69469000Y-67689500D01*
X69215000Y-67689500D01*
X69215000Y-67669500D01*
X69195000Y-67669500D01*
X69195000Y-67415500D01*
X69215000Y-67415500D01*
X69215000Y-66478750D01*
X69469000Y-66478750D01*
X69469000Y-67415500D01*
X70543250Y-67415500D01*
X70702000Y-67256750D01*
X70705072Y-66955000D01*
X70692812Y-66830518D01*
X70656502Y-66710820D01*
X70597537Y-66600506D01*
X70518185Y-66503815D01*
X70421494Y-66424463D01*
X70311180Y-66365498D01*
X70191482Y-66329188D01*
X70067000Y-66316928D01*
X69627750Y-66320000D01*
X69469000Y-66478750D01*
X69215000Y-66478750D01*
X69056250Y-66320000D01*
X68617000Y-66316928D01*
X68492518Y-66329188D01*
X68372820Y-66365498D01*
X68262506Y-66424463D01*
X68165815Y-66503815D01*
X68086463Y-66600506D01*
X68027498Y-66710820D01*
X68006161Y-66781159D01*
X66722604Y-65497603D01*
X66698801Y-65468599D01*
X66583076Y-65373626D01*
X66451047Y-65303054D01*
X66307786Y-65259597D01*
X66196133Y-65248600D01*
X66196122Y-65248600D01*
X66158800Y-65244924D01*
X66121478Y-65248600D01*
X64317223Y-65248600D01*
X64279900Y-65244924D01*
X64242578Y-65248600D01*
X64242567Y-65248600D01*
X64130914Y-65259597D01*
X63987653Y-65303054D01*
X63855624Y-65373626D01*
X63740000Y-65468516D01*
X63740000Y-64815038D01*
X63775518Y-64825812D01*
X63900000Y-64838072D01*
X64126750Y-64835000D01*
X64285500Y-64676250D01*
X64285500Y-63627000D01*
X64539500Y-63627000D01*
X64539500Y-64676250D01*
X64698250Y-64835000D01*
X64925000Y-64838072D01*
X65049482Y-64825812D01*
X65169180Y-64789502D01*
X65279494Y-64730537D01*
X65376185Y-64651185D01*
X65455537Y-64554494D01*
X65514502Y-64444180D01*
X65550812Y-64324482D01*
X65563072Y-64200000D01*
X65560000Y-63785750D01*
X65401250Y-63627000D01*
X64539500Y-63627000D01*
X64285500Y-63627000D01*
X64265500Y-63627000D01*
X64265500Y-63373000D01*
X64285500Y-63373000D01*
X64285500Y-63353000D01*
X64539500Y-63353000D01*
X64539500Y-63373000D01*
X65401250Y-63373000D01*
X65554250Y-63220000D01*
X66303899Y-63220000D01*
X67856901Y-64773003D01*
X67880699Y-64802001D01*
X67996424Y-64896974D01*
X68128453Y-64967546D01*
X68271714Y-65011003D01*
X68313204Y-65015089D01*
X68442525Y-65208632D01*
X68649368Y-65415475D01*
X68892589Y-65577990D01*
X69162842Y-65689932D01*
X69449740Y-65747000D01*
X69742260Y-65747000D01*
X70029158Y-65689932D01*
X70299411Y-65577990D01*
X70542632Y-65415475D01*
X70749475Y-65208632D01*
X70866000Y-65034240D01*
X70982525Y-65208632D01*
X71189368Y-65415475D01*
X71432589Y-65577990D01*
X71702842Y-65689932D01*
X71989740Y-65747000D01*
X72282260Y-65747000D01*
X72569158Y-65689932D01*
X72839411Y-65577990D01*
X73082632Y-65415475D01*
X73214487Y-65283620D01*
X73236498Y-65356180D01*
X73295463Y-65466494D01*
X73374815Y-65563185D01*
X73471506Y-65642537D01*
X73581820Y-65701502D01*
X73701518Y-65737812D01*
X73826000Y-65750072D01*
X74390250Y-65747000D01*
X74549000Y-65588250D01*
X74549000Y-64389000D01*
X74803000Y-64389000D01*
X74803000Y-65588250D01*
X74961750Y-65747000D01*
X75526000Y-65750072D01*
X75650482Y-65737812D01*
X75770180Y-65701502D01*
X75880494Y-65642537D01*
X75977185Y-65563185D01*
X76056537Y-65466494D01*
X76115502Y-65356180D01*
X76151812Y-65236482D01*
X76164072Y-65112000D01*
X76161000Y-64547750D01*
X76002250Y-64389000D01*
X74803000Y-64389000D01*
X74549000Y-64389000D01*
X74529000Y-64389000D01*
X74529000Y-64135000D01*
X74549000Y-64135000D01*
X74549000Y-62935750D01*
X74803000Y-62935750D01*
X74803000Y-64135000D01*
X76002250Y-64135000D01*
X76161000Y-63976250D01*
X76164072Y-63412000D01*
X76151812Y-63287518D01*
X76115502Y-63167820D01*
X76056537Y-63057506D01*
X75977185Y-62960815D01*
X75880494Y-62881463D01*
X75770180Y-62822498D01*
X75650482Y-62786188D01*
X75526000Y-62773928D01*
X74961750Y-62777000D01*
X74803000Y-62935750D01*
X74549000Y-62935750D01*
X74390250Y-62777000D01*
X73826000Y-62773928D01*
X73701518Y-62786188D01*
X73581820Y-62822498D01*
X73471506Y-62881463D01*
X73374815Y-62960815D01*
X73295463Y-63057506D01*
X73236498Y-63167820D01*
X73214487Y-63240380D01*
X73082632Y-63108525D01*
X72839411Y-62946010D01*
X72569158Y-62834068D01*
X72282260Y-62777000D01*
X71989740Y-62777000D01*
X71702842Y-62834068D01*
X71432589Y-62946010D01*
X71189368Y-63108525D01*
X70982525Y-63315368D01*
X70866000Y-63489760D01*
X70749475Y-63315368D01*
X70542632Y-63108525D01*
X70299411Y-62946010D01*
X70029158Y-62834068D01*
X69742260Y-62777000D01*
X69449740Y-62777000D01*
X69162842Y-62834068D01*
X68892589Y-62946010D01*
X68649368Y-63108525D01*
X68495697Y-63262196D01*
X67869501Y-62636000D01*
X84626162Y-62636000D01*
X84586528Y-62710149D01*
G37*
%TD.AperFunction*%
D26*
X87596600Y-65933000D02*
X87367500Y-65933000D01*
X87367500Y-65913000D01*
X87347500Y-65913000D01*
X87347500Y-65659000D01*
X87367500Y-65659000D01*
X87367500Y-65639000D01*
X87596601Y-65639000D01*
X87596600Y-65933000D01*
%TA.AperFunction,Conductor*%
D27*
G36*
X87596600Y-65933000D02*
G01*
X87367500Y-65933000D01*
X87367500Y-65913000D01*
X87347500Y-65913000D01*
X87347500Y-65659000D01*
X87367500Y-65659000D01*
X87367500Y-65639000D01*
X87596601Y-65639000D01*
X87596600Y-65933000D01*
G37*
%TD.AperFunction*%
%TD*%
M02*
