M48
; DRILL file {KiCad (5.1.9)-1} date 03/29/21 21:18:24
; FORMAT={-:-/ absolute / inch / decimal}
; #@! TF.CreationDate,2021-03-29T21:18:24+02:00
; #@! TF.GenerationSoftware,Kicad,Pcbnew,(5.1.9)-1
FMAT,2
INCH
T1C0.0157
T2C0.0236
T3C0.0394
T4C0.0433
T5C0.0787
T6C0.0941
T7C0.1260
T8C0.1358
%
G90
G05
T1
X2.9013Y-2.9886
T2
X2.84Y-3.37
X2.84Y-3.4487
X3.21Y-2.91
X3.21Y-2.9887
T3
X2.7Y-2.86
X2.7Y-2.96
X2.7Y-3.06
X2.7Y-3.16
X2.74Y-2.53
X2.84Y-2.53
X2.94Y-2.53
X3.16Y-2.53
X3.16Y-2.63
X3.16Y-2.73
X3.26Y-2.53
X3.26Y-2.63
X3.26Y-2.73
T4
X3.47Y-3.22
X3.47Y-3.32
X3.47Y-3.42
X6.8841Y-3.2528
X6.8841Y-3.43
X6.89Y-2.54
X6.89Y-2.7172
X7.14Y-3.2528
X7.14Y-3.43
X7.1459Y-2.54
X7.1459Y-2.7172
T5
X3.69Y-2.97
X6.5246Y-2.97
T6
X3.6854Y-2.665
T7
X4.0304Y-2.97
X6.2197Y-2.97
T8
X4.0134Y-3.295
X6.1866Y-2.665
T0
M30
