%TF.GenerationSoftware,KiCad,Pcbnew,(5.1.9)-1*%
%TF.CreationDate,2021-03-29T21:17:45+02:00*%
%TF.ProjectId,ESP_Windowsensor,4553505f-5769-46e6-946f-7773656e736f,rev?*%
%TF.SameCoordinates,Original*%
%TF.FileFunction,Legend,Top*%
%TF.FilePolarity,Positive*%
%FSLAX46Y46*%
G04 Gerber Fmt 4.6, Leading zero omitted, Abs format (unit mm)*
G04 Created by KiCad (PCBNEW (5.1.9)-1) date 2021-03-29 21:17:45*
%MOMM*%
%LPD*%
G01*
G04 APERTURE LIST*
%ADD10C,0.120000*%
%ADD11C,0.150000*%
G04 APERTURE END LIST*
D10*
%TO.C,SW3*%
X180356000Y-81622000D02*
X175856000Y-81622000D01*
X181606000Y-85622000D02*
X181606000Y-84122000D01*
X175856000Y-88122000D02*
X180356000Y-88122000D01*
X174606000Y-84122000D02*
X174606000Y-85622000D01*
%TO.C,SW2*%
X176006000Y-70016000D02*
X180506000Y-70016000D01*
X174756000Y-66016000D02*
X174756000Y-67516000D01*
X180506000Y-63516000D02*
X176006000Y-63516000D01*
X181756000Y-67516000D02*
X181756000Y-66016000D01*
%TO.C,R7*%
X52551064Y-64235000D02*
X52096936Y-64235000D01*
X52551064Y-62765000D02*
X52096936Y-62765000D01*
%TO.C,R6*%
X52043064Y-87349000D02*
X51588936Y-87349000D01*
X52043064Y-85879000D02*
X51588936Y-85879000D01*
%TO.C,R5*%
X63272936Y-62765000D02*
X63727064Y-62765000D01*
X63272936Y-64235000D02*
X63727064Y-64235000D01*
%TO.C,R4*%
X57176936Y-85879000D02*
X57631064Y-85879000D01*
X57176936Y-87349000D02*
X57631064Y-87349000D01*
%TO.C,J2*%
X69910000Y-71314000D02*
X67250000Y-71314000D01*
X69910000Y-78994000D02*
X69910000Y-71314000D01*
X67250000Y-78994000D02*
X67250000Y-71314000D01*
X69910000Y-78994000D02*
X67250000Y-78994000D01*
X69910000Y-80264000D02*
X69910000Y-81594000D01*
X69910000Y-81594000D02*
X68580000Y-81594000D01*
%TO.C,C4*%
X74668748Y-67083000D02*
X75191252Y-67083000D01*
X74668748Y-68553000D02*
X75191252Y-68553000D01*
%TO.C,C3*%
X68607000Y-68841252D02*
X68607000Y-68318748D01*
X70077000Y-68841252D02*
X70077000Y-68318748D01*
%TO.C,C2*%
X83654000Y-74914000D02*
G75*
G03*
X83654000Y-74914000I-2120000J0D01*
G01*
X83614000Y-74914000D02*
X79454000Y-74914000D01*
X83614000Y-74954000D02*
X79454000Y-74954000D01*
X83613000Y-74994000D02*
X79455000Y-74994000D01*
X83611000Y-75034000D02*
X79457000Y-75034000D01*
X83608000Y-75074000D02*
X79460000Y-75074000D01*
X83605000Y-75114000D02*
X82374000Y-75114000D01*
X80694000Y-75114000D02*
X79463000Y-75114000D01*
X83601000Y-75154000D02*
X82374000Y-75154000D01*
X80694000Y-75154000D02*
X79467000Y-75154000D01*
X83596000Y-75194000D02*
X82374000Y-75194000D01*
X80694000Y-75194000D02*
X79472000Y-75194000D01*
X83590000Y-75234000D02*
X82374000Y-75234000D01*
X80694000Y-75234000D02*
X79478000Y-75234000D01*
X83584000Y-75274000D02*
X82374000Y-75274000D01*
X80694000Y-75274000D02*
X79484000Y-75274000D01*
X83576000Y-75314000D02*
X82374000Y-75314000D01*
X80694000Y-75314000D02*
X79492000Y-75314000D01*
X83568000Y-75354000D02*
X82374000Y-75354000D01*
X80694000Y-75354000D02*
X79500000Y-75354000D01*
X83559000Y-75394000D02*
X82374000Y-75394000D01*
X80694000Y-75394000D02*
X79509000Y-75394000D01*
X83550000Y-75434000D02*
X82374000Y-75434000D01*
X80694000Y-75434000D02*
X79518000Y-75434000D01*
X83539000Y-75474000D02*
X82374000Y-75474000D01*
X80694000Y-75474000D02*
X79529000Y-75474000D01*
X83528000Y-75514000D02*
X82374000Y-75514000D01*
X80694000Y-75514000D02*
X79540000Y-75514000D01*
X83516000Y-75554000D02*
X82374000Y-75554000D01*
X80694000Y-75554000D02*
X79552000Y-75554000D01*
X83502000Y-75594000D02*
X82374000Y-75594000D01*
X80694000Y-75594000D02*
X79566000Y-75594000D01*
X83488000Y-75635000D02*
X82374000Y-75635000D01*
X80694000Y-75635000D02*
X79580000Y-75635000D01*
X83474000Y-75675000D02*
X82374000Y-75675000D01*
X80694000Y-75675000D02*
X79594000Y-75675000D01*
X83458000Y-75715000D02*
X82374000Y-75715000D01*
X80694000Y-75715000D02*
X79610000Y-75715000D01*
X83441000Y-75755000D02*
X82374000Y-75755000D01*
X80694000Y-75755000D02*
X79627000Y-75755000D01*
X83423000Y-75795000D02*
X82374000Y-75795000D01*
X80694000Y-75795000D02*
X79645000Y-75795000D01*
X83404000Y-75835000D02*
X82374000Y-75835000D01*
X80694000Y-75835000D02*
X79664000Y-75835000D01*
X83385000Y-75875000D02*
X82374000Y-75875000D01*
X80694000Y-75875000D02*
X79683000Y-75875000D01*
X83364000Y-75915000D02*
X82374000Y-75915000D01*
X80694000Y-75915000D02*
X79704000Y-75915000D01*
X83342000Y-75955000D02*
X82374000Y-75955000D01*
X80694000Y-75955000D02*
X79726000Y-75955000D01*
X83319000Y-75995000D02*
X82374000Y-75995000D01*
X80694000Y-75995000D02*
X79749000Y-75995000D01*
X83294000Y-76035000D02*
X82374000Y-76035000D01*
X80694000Y-76035000D02*
X79774000Y-76035000D01*
X83269000Y-76075000D02*
X82374000Y-76075000D01*
X80694000Y-76075000D02*
X79799000Y-76075000D01*
X83242000Y-76115000D02*
X82374000Y-76115000D01*
X80694000Y-76115000D02*
X79826000Y-76115000D01*
X83214000Y-76155000D02*
X82374000Y-76155000D01*
X80694000Y-76155000D02*
X79854000Y-76155000D01*
X83184000Y-76195000D02*
X82374000Y-76195000D01*
X80694000Y-76195000D02*
X79884000Y-76195000D01*
X83153000Y-76235000D02*
X82374000Y-76235000D01*
X80694000Y-76235000D02*
X79915000Y-76235000D01*
X83121000Y-76275000D02*
X82374000Y-76275000D01*
X80694000Y-76275000D02*
X79947000Y-76275000D01*
X83086000Y-76315000D02*
X82374000Y-76315000D01*
X80694000Y-76315000D02*
X79982000Y-76315000D01*
X83050000Y-76355000D02*
X82374000Y-76355000D01*
X80694000Y-76355000D02*
X80018000Y-76355000D01*
X83012000Y-76395000D02*
X82374000Y-76395000D01*
X80694000Y-76395000D02*
X80056000Y-76395000D01*
X82972000Y-76435000D02*
X82374000Y-76435000D01*
X80694000Y-76435000D02*
X80096000Y-76435000D01*
X82930000Y-76475000D02*
X82374000Y-76475000D01*
X80694000Y-76475000D02*
X80138000Y-76475000D01*
X82885000Y-76515000D02*
X82374000Y-76515000D01*
X80694000Y-76515000D02*
X80183000Y-76515000D01*
X82838000Y-76555000D02*
X82374000Y-76555000D01*
X80694000Y-76555000D02*
X80230000Y-76555000D01*
X82788000Y-76595000D02*
X82374000Y-76595000D01*
X80694000Y-76595000D02*
X80280000Y-76595000D01*
X82734000Y-76635000D02*
X82374000Y-76635000D01*
X80694000Y-76635000D02*
X80334000Y-76635000D01*
X82676000Y-76675000D02*
X82374000Y-76675000D01*
X80694000Y-76675000D02*
X80392000Y-76675000D01*
X82614000Y-76715000D02*
X82374000Y-76715000D01*
X80694000Y-76715000D02*
X80454000Y-76715000D01*
X82547000Y-76755000D02*
X80521000Y-76755000D01*
X82474000Y-76795000D02*
X80594000Y-76795000D01*
X82393000Y-76835000D02*
X80675000Y-76835000D01*
X82302000Y-76875000D02*
X80766000Y-76875000D01*
X82198000Y-76915000D02*
X80870000Y-76915000D01*
X82071000Y-76955000D02*
X80997000Y-76955000D01*
X81904000Y-76995000D02*
X81164000Y-76995000D01*
X82729000Y-72644199D02*
X82729000Y-73044199D01*
X82929000Y-72844199D02*
X82529000Y-72844199D01*
%TO.C,C1*%
X74256000Y-86598000D02*
G75*
G03*
X74256000Y-86598000I-2120000J0D01*
G01*
X74216000Y-86598000D02*
X70056000Y-86598000D01*
X74216000Y-86638000D02*
X70056000Y-86638000D01*
X74215000Y-86678000D02*
X70057000Y-86678000D01*
X74213000Y-86718000D02*
X70059000Y-86718000D01*
X74210000Y-86758000D02*
X70062000Y-86758000D01*
X74207000Y-86798000D02*
X72976000Y-86798000D01*
X71296000Y-86798000D02*
X70065000Y-86798000D01*
X74203000Y-86838000D02*
X72976000Y-86838000D01*
X71296000Y-86838000D02*
X70069000Y-86838000D01*
X74198000Y-86878000D02*
X72976000Y-86878000D01*
X71296000Y-86878000D02*
X70074000Y-86878000D01*
X74192000Y-86918000D02*
X72976000Y-86918000D01*
X71296000Y-86918000D02*
X70080000Y-86918000D01*
X74186000Y-86958000D02*
X72976000Y-86958000D01*
X71296000Y-86958000D02*
X70086000Y-86958000D01*
X74178000Y-86998000D02*
X72976000Y-86998000D01*
X71296000Y-86998000D02*
X70094000Y-86998000D01*
X74170000Y-87038000D02*
X72976000Y-87038000D01*
X71296000Y-87038000D02*
X70102000Y-87038000D01*
X74161000Y-87078000D02*
X72976000Y-87078000D01*
X71296000Y-87078000D02*
X70111000Y-87078000D01*
X74152000Y-87118000D02*
X72976000Y-87118000D01*
X71296000Y-87118000D02*
X70120000Y-87118000D01*
X74141000Y-87158000D02*
X72976000Y-87158000D01*
X71296000Y-87158000D02*
X70131000Y-87158000D01*
X74130000Y-87198000D02*
X72976000Y-87198000D01*
X71296000Y-87198000D02*
X70142000Y-87198000D01*
X74118000Y-87238000D02*
X72976000Y-87238000D01*
X71296000Y-87238000D02*
X70154000Y-87238000D01*
X74104000Y-87278000D02*
X72976000Y-87278000D01*
X71296000Y-87278000D02*
X70168000Y-87278000D01*
X74090000Y-87319000D02*
X72976000Y-87319000D01*
X71296000Y-87319000D02*
X70182000Y-87319000D01*
X74076000Y-87359000D02*
X72976000Y-87359000D01*
X71296000Y-87359000D02*
X70196000Y-87359000D01*
X74060000Y-87399000D02*
X72976000Y-87399000D01*
X71296000Y-87399000D02*
X70212000Y-87399000D01*
X74043000Y-87439000D02*
X72976000Y-87439000D01*
X71296000Y-87439000D02*
X70229000Y-87439000D01*
X74025000Y-87479000D02*
X72976000Y-87479000D01*
X71296000Y-87479000D02*
X70247000Y-87479000D01*
X74006000Y-87519000D02*
X72976000Y-87519000D01*
X71296000Y-87519000D02*
X70266000Y-87519000D01*
X73987000Y-87559000D02*
X72976000Y-87559000D01*
X71296000Y-87559000D02*
X70285000Y-87559000D01*
X73966000Y-87599000D02*
X72976000Y-87599000D01*
X71296000Y-87599000D02*
X70306000Y-87599000D01*
X73944000Y-87639000D02*
X72976000Y-87639000D01*
X71296000Y-87639000D02*
X70328000Y-87639000D01*
X73921000Y-87679000D02*
X72976000Y-87679000D01*
X71296000Y-87679000D02*
X70351000Y-87679000D01*
X73896000Y-87719000D02*
X72976000Y-87719000D01*
X71296000Y-87719000D02*
X70376000Y-87719000D01*
X73871000Y-87759000D02*
X72976000Y-87759000D01*
X71296000Y-87759000D02*
X70401000Y-87759000D01*
X73844000Y-87799000D02*
X72976000Y-87799000D01*
X71296000Y-87799000D02*
X70428000Y-87799000D01*
X73816000Y-87839000D02*
X72976000Y-87839000D01*
X71296000Y-87839000D02*
X70456000Y-87839000D01*
X73786000Y-87879000D02*
X72976000Y-87879000D01*
X71296000Y-87879000D02*
X70486000Y-87879000D01*
X73755000Y-87919000D02*
X72976000Y-87919000D01*
X71296000Y-87919000D02*
X70517000Y-87919000D01*
X73723000Y-87959000D02*
X72976000Y-87959000D01*
X71296000Y-87959000D02*
X70549000Y-87959000D01*
X73688000Y-87999000D02*
X72976000Y-87999000D01*
X71296000Y-87999000D02*
X70584000Y-87999000D01*
X73652000Y-88039000D02*
X72976000Y-88039000D01*
X71296000Y-88039000D02*
X70620000Y-88039000D01*
X73614000Y-88079000D02*
X72976000Y-88079000D01*
X71296000Y-88079000D02*
X70658000Y-88079000D01*
X73574000Y-88119000D02*
X72976000Y-88119000D01*
X71296000Y-88119000D02*
X70698000Y-88119000D01*
X73532000Y-88159000D02*
X72976000Y-88159000D01*
X71296000Y-88159000D02*
X70740000Y-88159000D01*
X73487000Y-88199000D02*
X72976000Y-88199000D01*
X71296000Y-88199000D02*
X70785000Y-88199000D01*
X73440000Y-88239000D02*
X72976000Y-88239000D01*
X71296000Y-88239000D02*
X70832000Y-88239000D01*
X73390000Y-88279000D02*
X72976000Y-88279000D01*
X71296000Y-88279000D02*
X70882000Y-88279000D01*
X73336000Y-88319000D02*
X72976000Y-88319000D01*
X71296000Y-88319000D02*
X70936000Y-88319000D01*
X73278000Y-88359000D02*
X72976000Y-88359000D01*
X71296000Y-88359000D02*
X70994000Y-88359000D01*
X73216000Y-88399000D02*
X72976000Y-88399000D01*
X71296000Y-88399000D02*
X71056000Y-88399000D01*
X73149000Y-88439000D02*
X71123000Y-88439000D01*
X73076000Y-88479000D02*
X71196000Y-88479000D01*
X72995000Y-88519000D02*
X71277000Y-88519000D01*
X72904000Y-88559000D02*
X71368000Y-88559000D01*
X72800000Y-88599000D02*
X71472000Y-88599000D01*
X72673000Y-88639000D02*
X71599000Y-88639000D01*
X72506000Y-88679000D02*
X71766000Y-88679000D01*
X73331000Y-84328199D02*
X73331000Y-84728199D01*
X73531000Y-84528199D02*
X73131000Y-84528199D01*
%TO.C,R3*%
X86354936Y-65051000D02*
X86809064Y-65051000D01*
X86354936Y-66521000D02*
X86809064Y-66521000D01*
%TO.C,R2*%
X86354936Y-62765000D02*
X86809064Y-62765000D01*
X86354936Y-64235000D02*
X86809064Y-64235000D01*
%TO.C,J1*%
X78934000Y-70672000D02*
X84134000Y-70672000D01*
X78934000Y-65532000D02*
X78934000Y-70672000D01*
X84134000Y-62932000D02*
X84134000Y-70672000D01*
X78934000Y-65532000D02*
X81534000Y-65532000D01*
X81534000Y-65532000D02*
X81534000Y-62932000D01*
X81534000Y-62932000D02*
X84134000Y-62932000D01*
X78934000Y-64262000D02*
X78934000Y-62932000D01*
X78934000Y-62932000D02*
X80264000Y-62932000D01*
%TO.C,WIFI_RESET*%
X65012000Y-86406000D02*
G75*
G02*
X64312000Y-87106000I-700000J0D01*
G01*
X64312000Y-85106000D02*
G75*
G02*
X65012000Y-85806000I0J-700000D01*
G01*
X62212000Y-85806000D02*
G75*
G02*
X62912000Y-85106000I700000J0D01*
G01*
X62912000Y-87106000D02*
G75*
G02*
X62212000Y-86406000I0J700000D01*
G01*
X65012000Y-85806000D02*
X65012000Y-86406000D01*
X62912000Y-85106000D02*
X64312000Y-85106000D01*
X62212000Y-86406000D02*
X62212000Y-85806000D01*
X64312000Y-87106000D02*
X62912000Y-87106000D01*
%TO.C,Q2*%
X84868000Y-89448000D02*
X84868000Y-79208000D01*
X89509000Y-89448000D02*
X89509000Y-79208000D01*
X84868000Y-89448000D02*
X89509000Y-89448000D01*
X84868000Y-79208000D02*
X89509000Y-79208000D01*
X86378000Y-89448000D02*
X86378000Y-79208000D01*
X84868000Y-86178000D02*
X86378000Y-86178000D01*
X84868000Y-82477000D02*
X86378000Y-82477000D01*
%TO.C,BT2*%
X90726000Y-85488000D02*
X90726000Y-65388000D01*
X168726000Y-85488000D02*
X90726000Y-85488000D01*
X168726000Y-65388000D02*
X168726000Y-85488000D01*
X90726000Y-65388000D02*
X168726000Y-65388000D01*
%TO.C,SW1*%
X76006000Y-62932000D02*
X76006000Y-64262000D01*
X74676000Y-62932000D02*
X76006000Y-62932000D01*
X73406000Y-62932000D02*
X73406000Y-65592000D01*
X73406000Y-65592000D02*
X68266000Y-65592000D01*
X73406000Y-62932000D02*
X68266000Y-62932000D01*
X68266000Y-62932000D02*
X68266000Y-65592000D01*
%TO.C,R1*%
X57684936Y-64235000D02*
X58139064Y-64235000D01*
X57684936Y-62765000D02*
X58139064Y-62765000D01*
%TO.C,Q1*%
X85380000Y-87738000D02*
X79370000Y-87738000D01*
X83130000Y-80918000D02*
X79370000Y-80918000D01*
X79370000Y-87738000D02*
X79370000Y-86478000D01*
X79370000Y-80918000D02*
X79370000Y-82178000D01*
%TO.C,IC2*%
X65780000Y-67064000D02*
X66600000Y-67064000D01*
X66600000Y-67064000D02*
X66600000Y-83304000D01*
X66600000Y-83304000D02*
X65780000Y-83304000D01*
X50480000Y-84334000D02*
X51480000Y-84334000D01*
X64180000Y-83304000D02*
X63780000Y-83304000D01*
X64180000Y-67064000D02*
X63780000Y-67064000D01*
X62180000Y-83304000D02*
X61780000Y-83304000D01*
X62180000Y-67064000D02*
X61780000Y-67064000D01*
X60180000Y-83304000D02*
X59780000Y-83304000D01*
X60180000Y-67064000D02*
X59780000Y-67064000D01*
X58180000Y-83304000D02*
X57780000Y-83304000D01*
X58180000Y-67064000D02*
X57780000Y-67064000D01*
X56180000Y-83304000D02*
X55780000Y-83304000D01*
X56180000Y-67064000D02*
X55780000Y-67064000D01*
X54180000Y-83304000D02*
X53780000Y-83304000D01*
X54180000Y-67064000D02*
X53780000Y-67064000D01*
X52180000Y-83304000D02*
X51780000Y-83304000D01*
X52180000Y-67064000D02*
X51780000Y-67064000D01*
%TO.C,IC1*%
X72370000Y-74930000D02*
X72370000Y-78380000D01*
X72370000Y-74930000D02*
X72370000Y-72980000D01*
X77490000Y-74930000D02*
X77490000Y-76880000D01*
X77490000Y-74930000D02*
X77490000Y-72980000D01*
%TO.C,BT1*%
X87040000Y-70942000D02*
X87040000Y-68442000D01*
X85790000Y-69692000D02*
X88290000Y-69692000D01*
X173290000Y-69692000D02*
X170790000Y-69692000D01*
X168180000Y-72252000D02*
X168180000Y-65272000D01*
X168180000Y-65252000D02*
X90900000Y-65252000D01*
X90900000Y-65252000D02*
X90900000Y-72252000D01*
X168180000Y-79132000D02*
X168180000Y-86132000D01*
X168180000Y-86132000D02*
X90900000Y-86132000D01*
X90900000Y-86132000D02*
X90900000Y-79132000D01*
X90900000Y-72252000D02*
X86540000Y-72252000D01*
%TO.C,SW3*%
D11*
X176720666Y-80668761D02*
X176863523Y-80716380D01*
X177101619Y-80716380D01*
X177196857Y-80668761D01*
X177244476Y-80621142D01*
X177292095Y-80525904D01*
X177292095Y-80430666D01*
X177244476Y-80335428D01*
X177196857Y-80287809D01*
X177101619Y-80240190D01*
X176911142Y-80192571D01*
X176815904Y-80144952D01*
X176768285Y-80097333D01*
X176720666Y-80002095D01*
X176720666Y-79906857D01*
X176768285Y-79811619D01*
X176815904Y-79764000D01*
X176911142Y-79716380D01*
X177149238Y-79716380D01*
X177292095Y-79764000D01*
X177625428Y-79716380D02*
X177863523Y-80716380D01*
X178054000Y-80002095D01*
X178244476Y-80716380D01*
X178482571Y-79716380D01*
X178768285Y-79716380D02*
X179387333Y-79716380D01*
X179054000Y-80097333D01*
X179196857Y-80097333D01*
X179292095Y-80144952D01*
X179339714Y-80192571D01*
X179387333Y-80287809D01*
X179387333Y-80525904D01*
X179339714Y-80621142D01*
X179292095Y-80668761D01*
X179196857Y-80716380D01*
X178911142Y-80716380D01*
X178815904Y-80668761D01*
X178768285Y-80621142D01*
%TO.C,SW2*%
X177228666Y-72032761D02*
X177371523Y-72080380D01*
X177609619Y-72080380D01*
X177704857Y-72032761D01*
X177752476Y-71985142D01*
X177800095Y-71889904D01*
X177800095Y-71794666D01*
X177752476Y-71699428D01*
X177704857Y-71651809D01*
X177609619Y-71604190D01*
X177419142Y-71556571D01*
X177323904Y-71508952D01*
X177276285Y-71461333D01*
X177228666Y-71366095D01*
X177228666Y-71270857D01*
X177276285Y-71175619D01*
X177323904Y-71128000D01*
X177419142Y-71080380D01*
X177657238Y-71080380D01*
X177800095Y-71128000D01*
X178133428Y-71080380D02*
X178371523Y-72080380D01*
X178562000Y-71366095D01*
X178752476Y-72080380D01*
X178990571Y-71080380D01*
X179323904Y-71175619D02*
X179371523Y-71128000D01*
X179466761Y-71080380D01*
X179704857Y-71080380D01*
X179800095Y-71128000D01*
X179847714Y-71175619D01*
X179895333Y-71270857D01*
X179895333Y-71366095D01*
X179847714Y-71508952D01*
X179276285Y-72080380D01*
X179895333Y-72080380D01*
%TO.C,R7*%
X54951333Y-63952380D02*
X54618000Y-63476190D01*
X54379904Y-63952380D02*
X54379904Y-62952380D01*
X54760857Y-62952380D01*
X54856095Y-63000000D01*
X54903714Y-63047619D01*
X54951333Y-63142857D01*
X54951333Y-63285714D01*
X54903714Y-63380952D01*
X54856095Y-63428571D01*
X54760857Y-63476190D01*
X54379904Y-63476190D01*
X55284666Y-62952380D02*
X55951333Y-62952380D01*
X55522761Y-63952380D01*
%TO.C,R6*%
X54443333Y-87066380D02*
X54110000Y-86590190D01*
X53871904Y-87066380D02*
X53871904Y-86066380D01*
X54252857Y-86066380D01*
X54348095Y-86114000D01*
X54395714Y-86161619D01*
X54443333Y-86256857D01*
X54443333Y-86399714D01*
X54395714Y-86494952D01*
X54348095Y-86542571D01*
X54252857Y-86590190D01*
X53871904Y-86590190D01*
X55300476Y-86066380D02*
X55110000Y-86066380D01*
X55014761Y-86114000D01*
X54967142Y-86161619D01*
X54871904Y-86304476D01*
X54824285Y-86494952D01*
X54824285Y-86875904D01*
X54871904Y-86971142D01*
X54919523Y-87018761D01*
X55014761Y-87066380D01*
X55205238Y-87066380D01*
X55300476Y-87018761D01*
X55348095Y-86971142D01*
X55395714Y-86875904D01*
X55395714Y-86637809D01*
X55348095Y-86542571D01*
X55300476Y-86494952D01*
X55205238Y-86447333D01*
X55014761Y-86447333D01*
X54919523Y-86494952D01*
X54871904Y-86542571D01*
X54824285Y-86637809D01*
%TO.C,R5*%
X66127333Y-63952380D02*
X65794000Y-63476190D01*
X65555904Y-63952380D02*
X65555904Y-62952380D01*
X65936857Y-62952380D01*
X66032095Y-63000000D01*
X66079714Y-63047619D01*
X66127333Y-63142857D01*
X66127333Y-63285714D01*
X66079714Y-63380952D01*
X66032095Y-63428571D01*
X65936857Y-63476190D01*
X65555904Y-63476190D01*
X67032095Y-62952380D02*
X66555904Y-62952380D01*
X66508285Y-63428571D01*
X66555904Y-63380952D01*
X66651142Y-63333333D01*
X66889238Y-63333333D01*
X66984476Y-63380952D01*
X67032095Y-63428571D01*
X67079714Y-63523809D01*
X67079714Y-63761904D01*
X67032095Y-63857142D01*
X66984476Y-63904761D01*
X66889238Y-63952380D01*
X66651142Y-63952380D01*
X66555904Y-63904761D01*
X66508285Y-63857142D01*
%TO.C,R4*%
X60031333Y-87066380D02*
X59698000Y-86590190D01*
X59459904Y-87066380D02*
X59459904Y-86066380D01*
X59840857Y-86066380D01*
X59936095Y-86114000D01*
X59983714Y-86161619D01*
X60031333Y-86256857D01*
X60031333Y-86399714D01*
X59983714Y-86494952D01*
X59936095Y-86542571D01*
X59840857Y-86590190D01*
X59459904Y-86590190D01*
X60888476Y-86399714D02*
X60888476Y-87066380D01*
X60650380Y-86018761D02*
X60412285Y-86733047D01*
X61031333Y-86733047D01*
%TO.C,J2*%
X68246666Y-82046380D02*
X68246666Y-82760666D01*
X68199047Y-82903523D01*
X68103809Y-82998761D01*
X67960952Y-83046380D01*
X67865714Y-83046380D01*
X68675238Y-82141619D02*
X68722857Y-82094000D01*
X68818095Y-82046380D01*
X69056190Y-82046380D01*
X69151428Y-82094000D01*
X69199047Y-82141619D01*
X69246666Y-82236857D01*
X69246666Y-82332095D01*
X69199047Y-82474952D01*
X68627619Y-83046380D01*
X69246666Y-83046380D01*
%TO.C,C4*%
X71715333Y-68175142D02*
X71667714Y-68222761D01*
X71524857Y-68270380D01*
X71429619Y-68270380D01*
X71286761Y-68222761D01*
X71191523Y-68127523D01*
X71143904Y-68032285D01*
X71096285Y-67841809D01*
X71096285Y-67698952D01*
X71143904Y-67508476D01*
X71191523Y-67413238D01*
X71286761Y-67318000D01*
X71429619Y-67270380D01*
X71524857Y-67270380D01*
X71667714Y-67318000D01*
X71715333Y-67365619D01*
X72572476Y-67603714D02*
X72572476Y-68270380D01*
X72334380Y-67222761D02*
X72096285Y-67937047D01*
X72715333Y-67937047D01*
%TO.C,C3*%
X68019142Y-68746666D02*
X68066761Y-68794285D01*
X68114380Y-68937142D01*
X68114380Y-69032380D01*
X68066761Y-69175238D01*
X67971523Y-69270476D01*
X67876285Y-69318095D01*
X67685809Y-69365714D01*
X67542952Y-69365714D01*
X67352476Y-69318095D01*
X67257238Y-69270476D01*
X67162000Y-69175238D01*
X67114380Y-69032380D01*
X67114380Y-68937142D01*
X67162000Y-68794285D01*
X67209619Y-68746666D01*
X67114380Y-68413333D02*
X67114380Y-67794285D01*
X67495333Y-68127619D01*
X67495333Y-67984761D01*
X67542952Y-67889523D01*
X67590571Y-67841904D01*
X67685809Y-67794285D01*
X67923904Y-67794285D01*
X68019142Y-67841904D01*
X68066761Y-67889523D01*
X68114380Y-67984761D01*
X68114380Y-68270476D01*
X68066761Y-68365714D01*
X68019142Y-68413333D01*
%TO.C,C2*%
X85141142Y-75080666D02*
X85188761Y-75128285D01*
X85236380Y-75271142D01*
X85236380Y-75366380D01*
X85188761Y-75509238D01*
X85093523Y-75604476D01*
X84998285Y-75652095D01*
X84807809Y-75699714D01*
X84664952Y-75699714D01*
X84474476Y-75652095D01*
X84379238Y-75604476D01*
X84284000Y-75509238D01*
X84236380Y-75366380D01*
X84236380Y-75271142D01*
X84284000Y-75128285D01*
X84331619Y-75080666D01*
X84331619Y-74699714D02*
X84284000Y-74652095D01*
X84236380Y-74556857D01*
X84236380Y-74318761D01*
X84284000Y-74223523D01*
X84331619Y-74175904D01*
X84426857Y-74128285D01*
X84522095Y-74128285D01*
X84664952Y-74175904D01*
X85236380Y-74747333D01*
X85236380Y-74128285D01*
%TO.C,C1*%
X75287142Y-88558666D02*
X75334761Y-88606285D01*
X75382380Y-88749142D01*
X75382380Y-88844380D01*
X75334761Y-88987238D01*
X75239523Y-89082476D01*
X75144285Y-89130095D01*
X74953809Y-89177714D01*
X74810952Y-89177714D01*
X74620476Y-89130095D01*
X74525238Y-89082476D01*
X74430000Y-88987238D01*
X74382380Y-88844380D01*
X74382380Y-88749142D01*
X74430000Y-88606285D01*
X74477619Y-88558666D01*
X75382380Y-87606285D02*
X75382380Y-88177714D01*
X75382380Y-87892000D02*
X74382380Y-87892000D01*
X74525238Y-87987238D01*
X74620476Y-88082476D01*
X74668095Y-88177714D01*
%TO.C,R3*%
X89241333Y-66424380D02*
X88908000Y-65948190D01*
X88669904Y-66424380D02*
X88669904Y-65424380D01*
X89050857Y-65424380D01*
X89146095Y-65472000D01*
X89193714Y-65519619D01*
X89241333Y-65614857D01*
X89241333Y-65757714D01*
X89193714Y-65852952D01*
X89146095Y-65900571D01*
X89050857Y-65948190D01*
X88669904Y-65948190D01*
X89574666Y-65424380D02*
X90193714Y-65424380D01*
X89860380Y-65805333D01*
X90003238Y-65805333D01*
X90098476Y-65852952D01*
X90146095Y-65900571D01*
X90193714Y-65995809D01*
X90193714Y-66233904D01*
X90146095Y-66329142D01*
X90098476Y-66376761D01*
X90003238Y-66424380D01*
X89717523Y-66424380D01*
X89622285Y-66376761D01*
X89574666Y-66329142D01*
%TO.C,R2*%
X89241333Y-64040380D02*
X88908000Y-63564190D01*
X88669904Y-64040380D02*
X88669904Y-63040380D01*
X89050857Y-63040380D01*
X89146095Y-63088000D01*
X89193714Y-63135619D01*
X89241333Y-63230857D01*
X89241333Y-63373714D01*
X89193714Y-63468952D01*
X89146095Y-63516571D01*
X89050857Y-63564190D01*
X88669904Y-63564190D01*
X89622285Y-63135619D02*
X89669904Y-63088000D01*
X89765142Y-63040380D01*
X90003238Y-63040380D01*
X90098476Y-63088000D01*
X90146095Y-63135619D01*
X90193714Y-63230857D01*
X90193714Y-63326095D01*
X90146095Y-63468952D01*
X89574666Y-64040380D01*
X90193714Y-64040380D01*
%TO.C,J1*%
X85010666Y-70318380D02*
X85010666Y-71032666D01*
X84963047Y-71175523D01*
X84867809Y-71270761D01*
X84724952Y-71318380D01*
X84629714Y-71318380D01*
X86010666Y-71318380D02*
X85439238Y-71318380D01*
X85724952Y-71318380D02*
X85724952Y-70318380D01*
X85629714Y-70461238D01*
X85534476Y-70556476D01*
X85439238Y-70604095D01*
%TO.C,WIFI_RESET*%
X60539809Y-87844380D02*
X60777904Y-88844380D01*
X60968380Y-88130095D01*
X61158857Y-88844380D01*
X61396952Y-87844380D01*
X61777904Y-88844380D02*
X61777904Y-87844380D01*
X62587428Y-88320571D02*
X62254095Y-88320571D01*
X62254095Y-88844380D02*
X62254095Y-87844380D01*
X62730285Y-87844380D01*
X63111238Y-88844380D02*
X63111238Y-87844380D01*
X63349333Y-88939619D02*
X64111238Y-88939619D01*
X64920761Y-88844380D02*
X64587428Y-88368190D01*
X64349333Y-88844380D02*
X64349333Y-87844380D01*
X64730285Y-87844380D01*
X64825523Y-87892000D01*
X64873142Y-87939619D01*
X64920761Y-88034857D01*
X64920761Y-88177714D01*
X64873142Y-88272952D01*
X64825523Y-88320571D01*
X64730285Y-88368190D01*
X64349333Y-88368190D01*
X65349333Y-88320571D02*
X65682666Y-88320571D01*
X65825523Y-88844380D02*
X65349333Y-88844380D01*
X65349333Y-87844380D01*
X65825523Y-87844380D01*
X66206476Y-88796761D02*
X66349333Y-88844380D01*
X66587428Y-88844380D01*
X66682666Y-88796761D01*
X66730285Y-88749142D01*
X66777904Y-88653904D01*
X66777904Y-88558666D01*
X66730285Y-88463428D01*
X66682666Y-88415809D01*
X66587428Y-88368190D01*
X66396952Y-88320571D01*
X66301714Y-88272952D01*
X66254095Y-88225333D01*
X66206476Y-88130095D01*
X66206476Y-88034857D01*
X66254095Y-87939619D01*
X66301714Y-87892000D01*
X66396952Y-87844380D01*
X66635047Y-87844380D01*
X66777904Y-87892000D01*
X67206476Y-88320571D02*
X67539809Y-88320571D01*
X67682666Y-88844380D02*
X67206476Y-88844380D01*
X67206476Y-87844380D01*
X67682666Y-87844380D01*
X67968380Y-87844380D02*
X68539809Y-87844380D01*
X68254095Y-88844380D02*
X68254095Y-87844380D01*
%TO.C,Q2*%
X91479619Y-88487238D02*
X91432000Y-88582476D01*
X91336761Y-88677714D01*
X91193904Y-88820571D01*
X91146285Y-88915809D01*
X91146285Y-89011047D01*
X91384380Y-88963428D02*
X91336761Y-89058666D01*
X91241523Y-89153904D01*
X91051047Y-89201523D01*
X90717714Y-89201523D01*
X90527238Y-89153904D01*
X90432000Y-89058666D01*
X90384380Y-88963428D01*
X90384380Y-88772952D01*
X90432000Y-88677714D01*
X90527238Y-88582476D01*
X90717714Y-88534857D01*
X91051047Y-88534857D01*
X91241523Y-88582476D01*
X91336761Y-88677714D01*
X91384380Y-88772952D01*
X91384380Y-88963428D01*
X90479619Y-88153904D02*
X90432000Y-88106285D01*
X90384380Y-88011047D01*
X90384380Y-87772952D01*
X90432000Y-87677714D01*
X90479619Y-87630095D01*
X90574857Y-87582476D01*
X90670095Y-87582476D01*
X90812952Y-87630095D01*
X91384380Y-88201523D01*
X91384380Y-87582476D01*
%TO.C,BT2*%
X128940285Y-76366571D02*
X129083142Y-76414190D01*
X129130761Y-76461809D01*
X129178380Y-76557047D01*
X129178380Y-76699904D01*
X129130761Y-76795142D01*
X129083142Y-76842761D01*
X128987904Y-76890380D01*
X128606952Y-76890380D01*
X128606952Y-75890380D01*
X128940285Y-75890380D01*
X129035523Y-75938000D01*
X129083142Y-75985619D01*
X129130761Y-76080857D01*
X129130761Y-76176095D01*
X129083142Y-76271333D01*
X129035523Y-76318952D01*
X128940285Y-76366571D01*
X128606952Y-76366571D01*
X129464095Y-75890380D02*
X130035523Y-75890380D01*
X129749809Y-76890380D02*
X129749809Y-75890380D01*
X130321238Y-75985619D02*
X130368857Y-75938000D01*
X130464095Y-75890380D01*
X130702190Y-75890380D01*
X130797428Y-75938000D01*
X130845047Y-75985619D01*
X130892666Y-76080857D01*
X130892666Y-76176095D01*
X130845047Y-76318952D01*
X130273619Y-76890380D01*
X130892666Y-76890380D01*
%TO.C,SW1*%
X77874761Y-65595333D02*
X77922380Y-65452476D01*
X77922380Y-65214380D01*
X77874761Y-65119142D01*
X77827142Y-65071523D01*
X77731904Y-65023904D01*
X77636666Y-65023904D01*
X77541428Y-65071523D01*
X77493809Y-65119142D01*
X77446190Y-65214380D01*
X77398571Y-65404857D01*
X77350952Y-65500095D01*
X77303333Y-65547714D01*
X77208095Y-65595333D01*
X77112857Y-65595333D01*
X77017619Y-65547714D01*
X76970000Y-65500095D01*
X76922380Y-65404857D01*
X76922380Y-65166761D01*
X76970000Y-65023904D01*
X76922380Y-64690571D02*
X77922380Y-64452476D01*
X77208095Y-64262000D01*
X77922380Y-64071523D01*
X76922380Y-63833428D01*
X77922380Y-62928666D02*
X77922380Y-63500095D01*
X77922380Y-63214380D02*
X76922380Y-63214380D01*
X77065238Y-63309619D01*
X77160476Y-63404857D01*
X77208095Y-63500095D01*
%TO.C,R1*%
X60539333Y-63952380D02*
X60206000Y-63476190D01*
X59967904Y-63952380D02*
X59967904Y-62952380D01*
X60348857Y-62952380D01*
X60444095Y-63000000D01*
X60491714Y-63047619D01*
X60539333Y-63142857D01*
X60539333Y-63285714D01*
X60491714Y-63380952D01*
X60444095Y-63428571D01*
X60348857Y-63476190D01*
X59967904Y-63476190D01*
X61491714Y-63952380D02*
X60920285Y-63952380D01*
X61206000Y-63952380D02*
X61206000Y-62952380D01*
X61110761Y-63095238D01*
X61015523Y-63190476D01*
X60920285Y-63238095D01*
%TO.C,Q1*%
X81184761Y-87415619D02*
X81089523Y-87368000D01*
X80994285Y-87272761D01*
X80851428Y-87129904D01*
X80756190Y-87082285D01*
X80660952Y-87082285D01*
X80708571Y-87320380D02*
X80613333Y-87272761D01*
X80518095Y-87177523D01*
X80470476Y-86987047D01*
X80470476Y-86653714D01*
X80518095Y-86463238D01*
X80613333Y-86368000D01*
X80708571Y-86320380D01*
X80899047Y-86320380D01*
X80994285Y-86368000D01*
X81089523Y-86463238D01*
X81137142Y-86653714D01*
X81137142Y-86987047D01*
X81089523Y-87177523D01*
X80994285Y-87272761D01*
X80899047Y-87320380D01*
X80708571Y-87320380D01*
X82089523Y-87320380D02*
X81518095Y-87320380D01*
X81803809Y-87320380D02*
X81803809Y-86320380D01*
X81708571Y-86463238D01*
X81613333Y-86558476D01*
X81518095Y-86606095D01*
%TO.C,IC2*%
X65984380Y-76160190D02*
X64984380Y-76160190D01*
X65889142Y-75112571D02*
X65936761Y-75160190D01*
X65984380Y-75303047D01*
X65984380Y-75398285D01*
X65936761Y-75541142D01*
X65841523Y-75636380D01*
X65746285Y-75684000D01*
X65555809Y-75731619D01*
X65412952Y-75731619D01*
X65222476Y-75684000D01*
X65127238Y-75636380D01*
X65032000Y-75541142D01*
X64984380Y-75398285D01*
X64984380Y-75303047D01*
X65032000Y-75160190D01*
X65079619Y-75112571D01*
X65079619Y-74731619D02*
X65032000Y-74684000D01*
X64984380Y-74588761D01*
X64984380Y-74350666D01*
X65032000Y-74255428D01*
X65079619Y-74207809D01*
X65174857Y-74160190D01*
X65270095Y-74160190D01*
X65412952Y-74207809D01*
X65984380Y-74779238D01*
X65984380Y-74160190D01*
%TO.C,IC1*%
X73858380Y-75906190D02*
X72858380Y-75906190D01*
X73763142Y-74858571D02*
X73810761Y-74906190D01*
X73858380Y-75049047D01*
X73858380Y-75144285D01*
X73810761Y-75287142D01*
X73715523Y-75382380D01*
X73620285Y-75430000D01*
X73429809Y-75477619D01*
X73286952Y-75477619D01*
X73096476Y-75430000D01*
X73001238Y-75382380D01*
X72906000Y-75287142D01*
X72858380Y-75144285D01*
X72858380Y-75049047D01*
X72906000Y-74906190D01*
X72953619Y-74858571D01*
X73858380Y-73906190D02*
X73858380Y-74477619D01*
X73858380Y-74191904D02*
X72858380Y-74191904D01*
X73001238Y-74287142D01*
X73096476Y-74382380D01*
X73144095Y-74477619D01*
%TO.C,BT1*%
X128754285Y-64120571D02*
X128897142Y-64168190D01*
X128944761Y-64215809D01*
X128992380Y-64311047D01*
X128992380Y-64453904D01*
X128944761Y-64549142D01*
X128897142Y-64596761D01*
X128801904Y-64644380D01*
X128420952Y-64644380D01*
X128420952Y-63644380D01*
X128754285Y-63644380D01*
X128849523Y-63692000D01*
X128897142Y-63739619D01*
X128944761Y-63834857D01*
X128944761Y-63930095D01*
X128897142Y-64025333D01*
X128849523Y-64072952D01*
X128754285Y-64120571D01*
X128420952Y-64120571D01*
X129278095Y-63644380D02*
X129849523Y-63644380D01*
X129563809Y-64644380D02*
X129563809Y-63644380D01*
X130706666Y-64644380D02*
X130135238Y-64644380D01*
X130420952Y-64644380D02*
X130420952Y-63644380D01*
X130325714Y-63787238D01*
X130230476Y-63882476D01*
X130135238Y-63930095D01*
%TD*%
M02*
